<?xml version="1.0" encoding="UTF-8" standalone="no"?>
<!-- Generator: Adobe Illustrator 27.5.0, SVG Export Plug-In . SVG Version: 6.00 Build 0)  -->

<svg
   version="1.1"
   x="0px"
   y="0px"
   viewBox="0 0 605.83398 443.42099"
   xml:space="preserve"
   id="svg72"
   sodipodi:docname="14661060_5516869.svg"
   width="605.83398"
   height="443.42099"
   inkscape:version="1.3.2 (091e20e, 2023-11-25, custom)"
   xmlns:inkscape="http://www.inkscape.org/namespaces/inkscape"
   xmlns:sodipodi="http://sodipodi.sourceforge.net/DTD/sodipodi-0.dtd"
   xmlns="http://www.w3.org/2000/svg"
   xmlns:svg="http://www.w3.org/2000/svg"><defs
   id="defs72">
	
</defs><sodipodi:namedview
   id="namedview72"
   pagecolor="#505050"
   bordercolor="#ffffff"
   borderopacity="1"
   inkscape:showpageshadow="0"
   inkscape:pageopacity="0"
   inkscape:pagecheckerboard="1"
   inkscape:deskcolor="#505050"
   inkscape:zoom="1.2146667"
   inkscape:cx="300.9056"
   inkscape:cy="218.16685"
   inkscape:window-width="1920"
   inkscape:window-height="1002"
   inkscape:window-x="-8"
   inkscape:window-y="-8"
   inkscape:window-maximized="1"
   inkscape:current-layer="svg72" />

<g
   id="OBJECTS"
   transform="translate(-73.845,-32.25)">
	<g
   id="g72">
		<g
   id="g9">
			<circle
   style="fill:#e6e6fe"
   cx="373.82901"
   cy="247.618"
   r="215.368"
   id="circle1" />
			<path
   style="fill:#e6e6fe"
   d="m 312.853,409.473 h -141.67 c -7.202,0 -13.04,-5.838 -13.04,-13.039 v 0 c 0,-7.202 5.838,-13.04 13.04,-13.04 h 141.67 c 7.202,0 13.04,5.838 13.04,13.04 v 0 c 0,7.201 -5.838,13.039 -13.04,13.039 z"
   id="path1" />
			<path
   style="fill:#e6e6fe"
   d="m 660.032,336.828 h -141.67 c -7.202,0 -13.04,-5.838 -13.04,-13.039 v 0 c 0,-7.201 5.838,-13.039 13.04,-13.039 h 141.67 c 7.202,0 13.04,5.838 13.04,13.039 v 0 c -10e-4,7.201 -5.839,13.039 -13.04,13.039 z"
   id="path2" />
			<path
   style="fill:#e6e6fe"
   d="M 241.641,153.301 H 137.169 c -5.311,0 -9.616,-4.305 -9.616,-9.616 v 0 c 0,-5.311 4.305,-9.616 9.616,-9.616 h 104.472 c 5.311,0 9.616,4.305 9.616,9.616 v 0 c 0,5.311 -4.305,9.616 -9.616,9.616 z"
   id="path3" />
			<path
   style="fill:#e6e6fe"
   d="M 177.133,257.392 H 84.56 c -4.706,0 -8.521,-3.815 -8.521,-8.52 v 0 c 0,-4.706 3.815,-8.521 8.521,-8.521 h 92.573 c 4.706,0 8.52,3.815 8.52,8.521 v 0 c 0,4.705 -3.814,8.52 -8.52,8.52 z"
   id="path4" />
			<path
   style="fill:#ffffff"
   d="m 620.477,310.749 h -69.194 c -3.517,0 -6.369,-2.851 -6.369,-6.369 v 0 c 0,-3.517 2.851,-6.369 6.369,-6.369 h 69.194 c 3.517,0 6.369,2.851 6.369,6.369 v 0 c 0,3.518 -2.851,6.369 -6.369,6.369 z"
   id="path5" />
			<path
   style="fill:#ffffff"
   d="m 235.128,134.127 h -69.193 c -3.517,0 -6.369,-2.851 -6.369,-6.369 v 0 c 0,-3.517 2.851,-6.369 6.369,-6.369 h 69.193 c 3.517,0 6.369,2.851 6.369,6.369 v 0 c 0,3.518 -2.852,6.369 -6.369,6.369 z"
   id="path6" />
			<path
   style="fill:#ffffff"
   d="M 228.554,283.57 H 86.884 c -7.201,0 -13.039,-5.838 -13.039,-13.039 v 0 c 0,-7.202 5.838,-13.04 13.039,-13.04 h 141.67 c 7.202,0 13.04,5.838 13.04,13.04 v 0 c 0,7.201 -5.838,13.039 -13.04,13.039 z"
   id="path7" />
			<path
   style="fill:#e6e6fe"
   d="m 622.498,211.549 h -92.572 c -4.706,0 -8.521,-3.815 -8.521,-8.52 v 0 c 0,-4.706 3.815,-8.52 8.521,-8.52 h 92.572 c 4.706,0 8.52,3.815 8.52,8.52 v 0 c 10e-4,4.705 -3.814,8.52 -8.52,8.52 z"
   id="path8" />
			<path
   style="fill:#ffffff"
   d="M 666.641,237.727 H 524.97 c -7.201,0 -13.039,-5.838 -13.039,-13.04 v 0 c 0,-7.201 5.838,-13.039 13.039,-13.039 h 141.67 c 7.201,0 13.039,5.838 13.039,13.039 v 0 c 10e-4,7.202 -5.837,13.04 -13.038,13.04 z"
   id="path9" />
		</g>
		<g
   id="g71">
			<g
   id="g59">
				<g
   id="g15">
					<polyline
   style="fill:none;stroke:#c3c3ed;stroke-width:4;stroke-linecap:round;stroke-miterlimit:10"
   points="       470.297,197.159 470.297,82.246 357.067,61.39 300.432,116.102      "
   id="polyline9" />
					
						<polyline
   style="fill:none;stroke:#acace2;stroke-width:6;stroke-linecap:round;stroke-linejoin:round;stroke-miterlimit:10"
   points="       352.396,65.902 357.067,61.39 363.62,62.597      "
   id="polyline10" />
					
						<polyline
   style="fill:none;stroke:#acace2;stroke-width:6;stroke-linecap:round;stroke-linejoin:round;stroke-miterlimit:10"
   points="       464.241,81.13 470.297,82.246 470.297,88.515      "
   id="polyline11" />
					<g
   id="g12">
						<g
   id="g11">
							<path
   style="fill:#acace2"
   d="m 465.15,365.803 h -63.405 c -3.027,0 -5.73,-2.214 -6.017,-5.227 -0.329,-3.457 2.38,-6.365 5.769,-6.365 h 63.005 V 193.633 c 0,-3.027 2.214,-5.731 5.227,-6.018 3.457,-0.329 6.365,2.381 6.365,5.769 v 161.475 c -10e-4,6.044 -4.9,10.944 -10.944,10.944 z"
   id="path11" />
						</g>
					</g>
					<g
   id="g14">
						<path
   style="fill:#acace2"
   d="m 305.88,133.668 -23.77,-23.77 1.451,-1.451 c 3.603,-3.603 9.444,-3.603 13.047,0 l 10.723,10.723 c 3.603,3.603 3.603,9.444 0,13.047 z"
   id="path12" />
						<path
   style="fill:#ffffff"
   d="m 304.984,154.422 -43.628,-43.628 2.663,-2.663 c 6.613,-6.613 17.334,-6.613 23.946,0 l 19.682,19.682 c 6.613,6.613 6.613,17.334 0,23.946 z"
   id="path13" />
						<path
   style="fill:#f5f5ff"
   d="m 307.647,127.813 -19.682,-19.682 c -1.702,-1.702 -3.677,-2.957 -5.783,-3.783 l 16.465,16.465 c 6.613,6.613 6.613,17.334 0,23.946 l -1.663,1.663 8,8 2.663,-2.663 c 6.612,-6.612 6.612,-17.333 0,-23.946 z"
   id="path14" />
					</g>
				</g>
				<g
   id="g31">
					<g
   id="g30">
						<g
   id="g18">
							<g
   id="g17">
								<path
   style="fill:#ffab91"
   d="m 413.176,252.068 c 6.975,9.817 15.242,23.25 8.267,44.95 -6.975,21.7 -9.558,55.671 -9.558,55.671 0,0 12.567,29.608 1.042,71.444 l -7.113,-0.545 c 0,0 -12.626,-54.752 -18.176,-68.315 -9.94,-24.291 -3.497,-85.772 -1.883,-103.205 z"
   id="path15" />
								<path
   style="fill:#ffccbc"
   d="m 419.176,252.068 c 6.975,9.817 15.242,23.25 8.267,44.95 -6.975,21.7 -9.558,55.671 -9.558,55.671 0,0 12.567,29.608 1.042,71.444 l -12.113,-0.545 c 0,0 -7.626,-54.752 -13.176,-68.315 -9.94,-24.291 -3.497,-85.772 -1.883,-103.205 z"
   id="path16" />
								<path
   style="opacity:0.71;fill:#00897b"
   d="m 428.527,293.227 c -0.311,1.236 -0.669,2.498 -1.085,3.792 -0.708,2.204 -1.371,4.536 -1.991,6.945 -4.183,1.988 -7.568,2.613 -7.568,2.613 0,0 5.166,-4.455 10.644,-13.35 z"
   id="path17" />
							</g>
						</g>
						<g
   id="g29">
							<path
   style="fill:#372f66"
   d="m 384.324,164.631 c 13.379,3.261 21.969,-10.209 14.064,-20.369 -4.046,-5.2 -12.26,-1.721 -12.466,-16.836 -0.206,-15.115 -12.462,-18.176 -19.199,-16.877 -7.137,1.375 -11.87,7.858 -11.897,12.347 0,0 -8.342,0.072 -8.448,12.421 -0.091,10.712 13.356,15.192 12.86,22.821 -0.005,0.076 0.003,0 -0.005,0.076 -1.822,16.952 6.062,16.575 20.387,16.575 z"
   id="path18" />
							<g
   id="g19">
								<path
   style="fill:#372f66"
   d="m 357.197,151.888 c -0.005,0.076 0.003,0 -0.005,0.076 -0.02,0.182 -0.027,0.36 -0.045,0.541 -3.525,-4.661 -10.266,-9.026 -10.711,-16.338 3.739,6.086 11.131,10.028 10.761,15.721 z"
   id="path19" />
							</g>
							<path
   style="fill:#ffab91"
   d="m 378.759,184.25 5.072,-19.929 c 0,0 -2.911,-2.425 -4.212,-4.656 -1.769,-3.034 -4.273,-9.949 -4.273,-9.949 l -9.729,14.043 c 0,0 4.75,8.555 3.679,17.021 -0.893,7.055 -5.043,13.985 -3.6,19.623 1.444,5.637 13.063,-16.153 13.063,-16.153 z"
   id="path20" />
							<path
   style="fill:#ffccbc"
   d="m 352.015,128.324 c 0,0 -3.241,7.232 -0.261,13.599 2.195,4.689 3.546,8.887 0.853,12.47 0,0 1.463,1.325 3.049,1.451 0,0 1.428,6.075 4.671,8.39 2,1.428 8.89,-0.392 17.236,-9.605 1.988,-2.194 -9.166,-24.837 -16.777,-27.245 -7.612,-2.408 -8.771,0.94 -8.771,0.94 z"
   id="path21" />
							<path
   style="fill:#372f66"
   d="m 356.126,148.608 c 0.252,0.771 0.821,1.277 1.271,1.13 0.45,-0.147 0.611,-0.891 0.359,-1.662 -0.252,-0.771 -0.821,-1.277 -1.271,-1.13 -0.45,0.146 -0.611,0.891 -0.359,1.662 z"
   id="path22" />
							<path
   style="fill:#eeeeee"
   d="m 384.472,211.344 c 0,0 -0.696,-7.659 -2.886,-11.482 0,0 2.852,2.369 5.035,11.144 z"
   id="path23" />
							<g
   id="g25">
								<path
   style="fill:#ffffff"
   d="m 353.639,152.505 c 0,0 -5.514,5.495 6.688,11.729 l 9.006,-11.729 -3.636,-4.462 z"
   id="path24" />
								<polygon
   style="fill:#ffffff"
   points="369.708,144.231 365.406,149.609 365.697,148.044 369.333,143.75 "
   id="polygon24" />
								<polygon
   style="fill:#ffffff"
   points="373,146.732 368.5,152.505 369.333,152.505 374.125,146.732 "
   id="polygon25" />
							</g>
							<path
   style="fill:#ffffff"
   d="m 382.594,261.443 c 0,0 -16.534,-42.456 -17.925,-48.737 -2.169,-9.79 -0.558,-14.256 1.087,-18.143 2.448,-5.784 5.712,-10.188 8.14,-13.563 7.104,-9.875 9.935,-16.679 9.935,-16.679 0,0 19.757,10.186 20.953,35.299 1.633,34.293 10.918,38.532 19.662,48.158 17.307,19.051 11.948,45.072 5.637,92.344 -6.311,47.272 0,0 0,0 l -64.252,3.386 c 10e-4,-10e-4 24.043,-63.357 16.763,-82.065 z"
   id="path25" />
							<g
   id="g27">
								<path
   style="fill:#ffccbc"
   d="m 394.965,220.991 c 0,0 -10.796,37.803 -21.422,34.774 -7.622,-2.172 -30.226,-15.29 -36.381,-16.963 -6.823,-1.854 4.522,-0.813 0.765,-3.888 -3.757,-3.075 -6.01,-3.505 4.159,-1.602 2.517,0.471 6.222,0.887 16.74,3.575 9.585,2.45 9.657,3.64 11.154,1.475 3.39,-4.903 6.978,-22.061 6.978,-22.061 z"
   id="path26" />
								<path
   style="fill:#ffccbc"
   d="m 340.91,232.91 c 0,0 -0.927,0.587 -6.77,-2.941 -6.572,-3.968 -14.075,-4.122 -10.802,-2.147 2.009,1.212 9.001,3.675 0.639,1.733 -2.115,-0.491 -2.101,-0.687 -5.025,-1.332 -3.143,-0.694 -4.02,-0.563 -6.356,-1.346 -2.104,-0.705 -1.948,1.695 3.581,6.052 2.619,2.064 6.03,4.243 8.877,4.548 7.902,0.845 14.328,1.911 14.328,1.911 z"
   id="path27" />
							</g>
							<path
   style="fill:#f5f5ff"
   d="m 391.75,181.75 c 6.583,3.833 11.937,27.333 3.215,39.241 l -18.009,-4.689 c 0,0 7.119,1.052 9.505,1.281 5.47,0.524 10.642,-3.5 11.259,-8.96 1.447,-12.79 -2.755,-22.29 -5.97,-26.873 z"
   id="path28" />
							<path
   style="fill:#372f66"
   d="m 351.806,125.019 c -0.392,3.692 2.861,14.677 14.106,18.564 7.709,2.665 13.708,16.081 13.708,16.081 0,0 -7.922,-39.422 -8.477,-39.859 -0.556,-0.437 -19.337,5.214 -19.337,5.214 z"
   id="path29" />
						</g>
					</g>
				</g>
				<g
   id="g40">
					<path
   style="fill:#acace2"
   d="m 352.761,346.699 -7.358,7.634 L 241.39,254.077 c -2.108,-2.032 -2.17,-5.388 -0.138,-7.496 v 0 c 2.032,-2.108 5.388,-2.17 7.496,-0.138 z"
   id="path31" />
					<path
   style="fill:#acace2"
   d="m 351.045,348.479 -3.927,4.074 -148.407,-143.048 c -1.125,-1.084 -1.158,-2.875 -0.074,-4 v 0 c 1.084,-1.125 2.875,-1.158 4,-0.074 z"
   id="path32" />
					<path
   style="fill:#7368d1"
   d="m 320.566,309.988 v 0 c -3.099,3.215 -8.217,3.309 -11.432,0.21 l -52.713,-50.809 c -3.215,-3.099 -3.309,-8.217 -0.21,-11.432 v 0 c 3.099,-3.215 8.217,-3.309 11.432,-0.21 l 52.713,50.809 c 3.215,3.099 3.309,8.217 0.21,11.432 z"
   id="path33" />
					<path
   style="fill:#7368d1"
   d="m 240.112,237.116 v 0 c -1.567,1.626 -4.155,1.673 -5.781,0.106 l -26.656,-25.693 c -1.626,-1.567 -1.673,-4.155 -0.106,-5.781 v 0 c 1.567,-1.626 4.155,-1.673 5.781,-0.106 l 26.656,25.693 c 1.626,1.567 1.673,4.155 0.106,5.781 z"
   id="path34" />
					<path
   style="fill:#acace2"
   d="M 448.54,475.671 H 296.949 c -4.462,0 -8.079,-3.617 -8.079,-8.079 v 0 c 0,-4.462 3.617,-8.079 8.079,-8.079 H 448.54 c 4.462,0 8.079,3.617 8.079,8.079 v 0 c 0,4.462 -3.617,8.079 -8.079,8.079 z"
   id="path35" />
					<path
   style="fill:#acace2"
   d="m 356.141,464.671 40.093,-36.644 c 4.416,-4.036 10.181,-6.274 16.163,-6.274 h 14.179 c 7.39,0 13.38,5.991 13.38,13.38 v 29.538 z"
   id="path36" />
					<path
   style="fill:#c3c3ed"
   d="m 333.567,340.121 -24.602,67.745 90.904,31.805 c 3.461,1.211 7.309,0.087 9.575,-2.796 v 0 c 3.607,-4.591 1.671,-11.367 -3.817,-13.359 L 360.42,407.11 372.446,373.994 h 50.802 c 12.724,0 24.088,-7.963 28.431,-19.923 l 5.066,-13.95 z"
   id="path37" />
					<g
   id="g37">
						<polygon
   style="fill:#acace2"
   points="333.567,340.121 330.001,349.94 453.179,349.94 456.744,340.121 "
   id="polygon37" />
					</g>
					<g
   id="g39">
						<path
   style="fill:#7368d1"
   d="M 464.241,340.96 H 354.674 c -5.298,0 -9.593,-4.295 -9.593,-9.593 v 0 c 0,-5.298 4.295,-9.593 9.593,-9.593 h 109.567 z"
   id="path38" />
						<path
   style="fill:#7368d1"
   d="m 537.71,381.787 -82.351,-43.006 8.882,-17.007 82.351,43.006 c 4.696,2.453 6.515,8.248 4.063,12.944 v 0 c -2.453,4.696 -8.248,6.515 -12.945,4.063 z"
   id="path39" />
					</g>
				</g>
				<g
   id="g58">
					<g
   id="g56">
						<g
   id="g47">
							<g
   id="g44">
								<path
   style="fill:#ffccbc"
   d="m 511.931,343.857 c -1.65,-2.821 -8.378,-3.035 -8.378,-3.035 l 2.269,-19.642 c 0,0 8.48,9.19 31.312,14.82 0,0 -5.017,10.143 -13.443,12.24 -8.425,2.097 -11.76,-4.383 -11.76,-4.383 z"
   id="path40" />
								<path
   style="fill:#ffffff"
   d="m 563.705,329.425 c -23.194,15.915 -34.364,20.653 -43.619,27.131 2.239,2.152 4.574,3.27 6.519,1.885 l 37.086,-26.402 c 0.806,-0.574 0.916,-1.741 0.209,-2.434 -0.06,-0.059 -0.13,-0.12 -0.195,-0.18 z"
   id="path41" />
								<g
   id="g43">
									<path
   style="fill:#ce93d8"
   d="m 552.013,327.763 c -0.576,0.162 -1.166,0.342 -1.788,0.567 -9.244,3.334 -18.417,4.56 -19.333,5.943 -8.017,12.102 -18.961,9.583 -18.961,9.583 0.888,2.509 4.384,9.074 8.155,12.699 7.721,-5.404 16.781,-9.603 33.036,-20.084 -1.09,-2.582 -1.719,-5.575 -1.109,-8.708 z"
   id="path42" />
									<path
   style="fill:#ba68c8"
   d="m 552.013,327.763 c -0.61,3.133 0.019,6.126 1.109,8.708 3.23,-2.083 6.738,-4.408 10.583,-7.046 -1.72,-1.578 -5.281,-3.465 -11.692,-1.662 z"
   id="path43" />
								</g>
							</g>
							<g
   id="g46">
								<g
   id="g45">
									<path
   style="fill:#252e7f"
   d="m 323.696,293.707 c 2.408,18.754 12.625,34.419 52.423,28.863 23.627,-3.298 56.703,-5.161 56.703,-5.161 0,0 30.782,15.658 70.802,26.098 l 7.386,-19.589 c 0,0 -52.251,-27.942 -71.659,-33.273 -10.1,-2.774 -44.514,-8.546 -69.608,-6.675 -12.048,0.899 -20.982,-11.378 -29.308,-10.764 z"
   id="path44" />
								</g>
							</g>
						</g>
						<g
   id="g55">
							<path
   style="fill:#372f66"
   d="m 290.024,266.386 c -29.344,-13.745 -44.108,-21.382 -45.692,-29.115 -0.859,-4.196 1.444,-7.449 -11.725,-13.327 -13.169,-5.878 -11.233,-17.774 -7.555,-23.189 3.895,-5.736 11.361,-7.441 15.306,-5.773 0,0 3.207,-7.285 14.071,-2.722 9.423,3.958 8.281,17.432 15.154,19.873 0.069,0.024 -0.001,0.003 0.069,0.024 15.545,4.793 27.012,14.852 24.308,30.892 z"
   id="path47" />
							<path
   style="fill:#ffab91"
   d="m 272.103,219.843 c 0,0 5.73,7.31 13.531,9.64 l -19.903,6.535 c 0,0 -1.028,-3.465 -2.494,-5.447 -1.992,-2.694 -7.11,-7.495 -7.11,-7.495 z"
   id="path48" />
							<path
   style="fill:#ffccbc"
   d="m 246.175,194.564 c 0,0 7.56,-0.115 12.017,4.897 3.283,3.691 6.452,6.457 10.608,5.447 0,0 0.61,1.782 0.122,3.219 0,0 4.786,3.541 5.593,7.257 0.498,2.291 -3.694,7.644 -14.915,11.486 -2.672,0.915 -18.314,-17.395 -17.555,-24.974 0.758,-7.578 4.13,-7.332 4.13,-7.332 z"
   id="path49" />
							<path
   style="fill:#372f66"
   d="m 262.403,205.813 c 0.581,0.511 0.81,1.201 0.512,1.54 -0.298,0.339 -1.011,0.199 -1.592,-0.312 -0.581,-0.511 -0.81,-1.201 -0.512,-1.54 0.298,-0.339 1.011,-0.199 1.592,0.312 z"
   id="path50" />
							<path
   style="fill:#eeeeee"
   d="m 306.704,254.304 c 0,0 -6.451,-3.497 -8.976,-6.857 0,0 1.001,3.393 7.87,8.613 z"
   id="path51" />
							<path
   style="fill:#372f66"
   d="m 243.356,193.136 c 3.384,1.048 11.786,8.04 10.954,19.36 -0.57,7.761 9.619,12.668 11.508,24.071 2.496,15.067 -34.146,-27.797 -34.32,-28.449 -0.174,-0.652 11.858,-14.982 11.858,-14.982 z"
   id="path52" />
							<path
   style="fill:#ce93d8"
   d="m 300.145,232.18 c 3.967,0.689 11.184,0.555 16.304,3.94 5.12,3.385 36.311,38.63 36.311,38.63 0,0 -14.316,20.483 -29.192,28.324 0,0 -14.148,-23.176 -34.797,-35.385 -20.648,-12.208 -23.04,-31.67 -23.04,-31.67 0,0 3.036,-6.48 16.651,-6.772 3.967,-0.085 12.755,2.064 17.763,2.933 z"
   id="path53" />
							<path
   style="fill:#ba68c8"
   d="m 280.1,245.483 c -2.182,4.977 4.182,17.523 27.17,23.963 l 9.179,-13.524 c 0,0 -7.485,9.266 -14.233,8.813 -3.338,-0.224 -13.497,-4.916 -16.581,-8.675 -3.534,-4.307 -5.535,-10.577 -5.535,-10.577 z"
   id="path54" />
							<path
   style="fill:#ffab91"
   d="m 270.882,231.64 c 0,0 21.383,6.399 29.264,0.54 -0.001,0 -22.007,-6.93 -29.264,-0.54 z"
   id="path55" />
						</g>
					</g>
					<g
   id="g57">
						<path
   style="fill:#ffccbc"
   d="m 307.271,269.446 c 0,0 23.227,15.937 33.666,18.869 7.487,2.103 37.643,5.545 43.647,7.312 6.655,1.958 -3.361,-3.004 1.36,-3.643 4.721,-0.639 6.825,0.161 -2.652,-3.477 -2.345,-0.9 -11.979,-5.189 -22.152,-8.35 -9.271,-2.881 -17.243,-6.957 -19.579,-8.241 -4.9,-2.693 -25.111,-15.994 -25.111,-15.994 z"
   id="path56" />
						<path
   style="fill:#ffccbc"
   d="m 384.48,288.775 c 0,0 0.472,0.967 7.17,1.023 7.533,0.063 13.883,3.792 10.132,3.759 -2.302,-0.02 -9.413,-1.557 -1.425,1.12 2.02,0.677 2.109,0.507 4.884,1.47 2.983,1.036 3.649,1.596 6.004,2.143 2.121,0.493 0.756,2.418 -6.104,3.217 -3.25,0.378 -7.221,0.446 -9.757,-0.763 -7.039,-3.356 -12.958,-5.769 -12.958,-5.769 z"
   id="path57" />
					</g>
				</g>
			</g>
			<g
   id="g65">
				<g
   id="g64">
					<g
   id="g60">
						<path
   style="fill:#ce93d8"
   d="m 252.604,423.826 c 0.434,-53.264 -16.857,-72.089 -16.633,-106.815 0.161,-24.878 17.978,-19.061 23.925,-3.283 16.192,42.963 -2.934,110.031 -2.934,110.031"
   id="path59" />
						<path
   style="fill:none;stroke:#ffffff;stroke-miterlimit:10"
   d="m 247.747,314.366 c 0,0 15.076,42.047 11.633,88.433"
   id="path60" />
					</g>
					<path
   style="fill:#e1bee7"
   d="m 253.947,422.608 c -51.166,-53.923 -78.275,-96.6 -58.519,-111.217 16.851,-12.468 39.466,24.566 47.489,44.732 11.336,28.494 15.319,66.485 15.319,66.485 z"
   id="path61" />
					<path
   style="fill:#e1bee7"
   d="m 257.941,422.608 c 0,0 -4.596,-43.717 0,-70.42 4.596,-26.703 22.359,-37.43 35.58,-33.616 15.932,4.596 3.331,50.588 -29.759,104.036 z"
   id="path62" />
					<path
   style="fill:none;stroke:#ffffff;stroke-miterlimit:10"
   d="m 204.619,324.872 c 0,0 41.078,47.183 53.322,97.736"
   id="path63" />
					<path
   style="fill:none;stroke:#ffffff;stroke-miterlimit:10"
   d="m 260.994,422.608 c 0,0 2.451,-42.894 19.915,-85.787"
   id="path64" />
				</g>
				<path
   style="fill:#7368d1"
   d="m 278.36,420.77 h -37.959 c -1.419,0 -2.508,1.259 -2.304,2.663 l 0.572,3.929 h 32.578 l -31.275,8.94 2.424,16.643 c 0.733,5.035 5.05,8.769 10.138,8.769 h 13.693 c 5.088,0 9.405,-3.734 10.138,-8.769 l 4.298,-29.512 c 0.205,-1.404 -0.884,-2.663 -2.303,-2.663 z"
   id="path65" />
			</g>
			<g
   id="g70">
				<circle
   style="fill:#c3c3ed"
   cx="542.22803"
   cy="136.16701"
   r="43.653"
   id="circle65" />
				
					<circle
   transform="matrix(0.7071,-0.7071,0.7071,0.7071,62.5299,423.2955)"
   style="fill:#ffffff"
   cx="542.22803"
   cy="136.168"
   id="ellipse65"
   r="37.450001" />
				<path
   style="fill:#f5f5ff"
   d="m 569.105,110.101 c 2.169,4.94 3.382,10.396 3.382,16.137 0,22.195 -17.993,40.188 -40.188,40.188 -5.741,0 -11.197,-1.212 -16.137,-3.382 6.742,6.54 15.931,10.573 26.066,10.573 20.683,0 37.45,-16.767 37.45,-37.45 0,-10.135 -4.033,-19.323 -10.573,-26.066 z"
   id="path66" />
				<circle
   style="fill:#c3c3ed"
   cx="542.22803"
   cy="105.587"
   r="2.1819999"
   id="circle66" />
				<circle
   style="fill:#c3c3ed"
   cx="511.647"
   cy="136.16701"
   r="2.1819999"
   id="circle67" />
				<circle
   style="fill:#c3c3ed"
   cx="542.22803"
   cy="166.748"
   r="2.1819999"
   id="circle68" />
				<circle
   style="fill:#c3c3ed"
   cx="572.80798"
   cy="136.16701"
   r="2.1819999"
   id="circle69" />
				<path
   style="fill:#c3c3ed"
   d="m 546.658,136.167 c 0,2.447 -1.984,4.431 -4.43,4.431 -2.446,0 -4.43,-1.984 -4.43,-4.431 0,-2.447 1.984,-4.43 4.43,-4.43 2.446,0 4.43,1.984 4.43,4.43 z"
   id="path69" />
				
					<line
   style="fill:none;stroke:#c3c3ed;stroke-width:4;stroke-linecap:round;stroke-miterlimit:10"
   x1="542.22803"
   y1="136.16701"
   x2="552.77399"
   y2="120.341"
   id="line69" />
				
					<line
   style="fill:none;stroke:#c3c3ed;stroke-width:2;stroke-linecap:round;stroke-miterlimit:10"
   x1="558.56702"
   y1="159.92"
   x2="542.22803"
   y2="136.16701"
   id="line70" />
			</g>
		</g>
	</g>
</g>
</svg>
