<?xml version="1.0" encoding="UTF-8" standalone="no"?>
<!-- Created with Inkscape (http://www.inkscape.org/) -->

<svg
   width="65.686821mm"
   height="53.293217mm"
   viewBox="0 0 65.686821 53.293217"
   version="1.1"
   id="svg1"
   xml:space="preserve"
   inkscape:version="1.3.2 (091e20e, 2023-11-25, custom)"
   sodipodi:docname="background.svg"
   inkscape:export-filename="background.svg"
   inkscape:export-xdpi="96"
   inkscape:export-ydpi="96"
   xmlns:inkscape="http://www.inkscape.org/namespaces/inkscape"
   xmlns:sodipodi="http://sodipodi.sourceforge.net/DTD/sodipodi-0.dtd"
   xmlns="http://www.w3.org/2000/svg"
   xmlns:svg="http://www.w3.org/2000/svg"><sodipodi:namedview
     id="namedview1"
     pagecolor="#505050"
     bordercolor="#ffffff"
     borderopacity="1"
     inkscape:showpageshadow="0"
     inkscape:pageopacity="0"
     inkscape:pagecheckerboard="1"
     inkscape:deskcolor="#505050"
     inkscape:document-units="mm"
     inkscape:zoom="2.0308884"
     inkscape:cx="51.70151"
     inkscape:cy="36.92965"
     inkscape:window-width="1920"
     inkscape:window-height="1002"
     inkscape:window-x="-8"
     inkscape:window-y="-8"
     inkscape:window-maximized="1"
     inkscape:current-layer="layer1" /><defs
     id="defs1" /><g
     inkscape:label="Camada 1"
     inkscape:groupmode="layer"
     id="layer1"
     transform="translate(-93.25542,-19.915542)"><path
       id="path174"
       style="fill:#ece2f8;fill-opacity:1;fill-rule:nonzero;stroke:none;stroke-width:0.0352778"
       d="m 119.09623,53.704113 v 0 c -0.0794,2.34915 0.33513,7.29086 1.69051,8.62542 0.22542,0.22225 0.4579,0.32385 0.7119,0.3115 0.63888,-0.0314 0.86995,-1.34338 0.95674,-1.83762 0.0275,-0.15487 0.0515,-0.39158 0.0822,-0.69109 0.16792,-1.64395 0.48084,-4.70429 2.32975,-5.47652 0.5595,-0.23354 1.26224,-0.0557 1.78964,0.45402 0.60466,0.58385 1.00189,2.05458 1.37195,5.07647 0.14323,1.16982 0.40675,2.25249 1.35749,2.25249 0.008,0 0.0155,7.1e-4 0.0233,0.002 0.13265,0.0176 0.25859,-0.0222 0.38665,-0.1217 0.38029,-0.29598 1.08797,-1.39947 1.55398,-5.46065 0.0907,-0.78952 0.0494,-1.60514 0.01,-2.3936 -0.0342,-0.6738 -0.0695,-1.37054 -0.0247,-2.05881 0.0624,-0.95885 0.3757,-1.88948 0.67874,-2.78977 0.1397,-0.41416 0.28363,-0.84243 0.39829,-1.26118 0.35242,-1.28587 0.65405,-2.66135 0.47695,-4.00508 -0.17039,-1.2947 -1.46967,-2.60633 -2.57669,-3.01908 -0.84137,-0.31326 -1.75295,0.008 -2.7178,0.34855 -0.68051,0.23989 -1.38394,0.48789 -2.07504,0.50024 -0.9211,0.0159 -1.66581,-0.28787 -2.38548,-0.58279 -0.86748,-0.3549 -1.68663,-0.69039 -2.75555,-0.4378 -1.56421,0.36971 -3.73098,2.46803 -2.88643,6.52568 0.20038,0.96273 0.50448,1.7018 0.79869,2.41653 0.44098,1.07104 0.85725,2.0828 0.8054,3.62303 z m 2.36114,9.28476 c -0.32879,0 -0.63606,-0.13829 -0.91405,-0.41205 -1.51624,-1.49295 -1.8669,-6.72641 -1.79388,-8.88435 v 0 c 0.0494,-1.46579 -0.33478,-2.39889 -0.77928,-3.47945 -0.30057,-0.72919 -0.61101,-1.48343 -0.81774,-2.47791 -0.89464,-4.29824 1.45521,-6.53415 3.14642,-6.93385 1.17687,-0.27799 2.08669,0.0942 2.96651,0.45438 0.68721,0.28116 1.3963,0.57291 2.24826,0.55704 0.63464,-0.0113 1.31127,-0.25012 1.96532,-0.48084 0.98143,-0.34608 1.99531,-0.70379 2.95487,-0.34608 1.19627,0.44627 2.60667,1.8341 2.79964,3.29848 0.18486,1.40511 -0.12488,2.82151 -0.48648,4.14231 -0.11712,0.42828 -0.26317,0.86149 -0.40428,1.28023 -0.29598,0.87913 -0.60184,1.78788 -0.66146,2.70158 -0.0434,0.66851 -0.009,1.35466 0.025,2.01824 0.0406,0.80292 0.0829,1.63336 -0.0113,2.4511 -0.36618,3.19334 -0.93345,5.10928 -1.68557,5.69489 -0.19897,0.15487 -0.4117,0.22013 -0.6343,0.19332 -1.37865,-0.009 -1.58926,-1.72967 -1.69086,-2.55764 -0.25012,-2.04328 -0.5962,-4.21957 -1.26824,-4.86903 -0.42756,-0.41311 -0.98319,-0.56339 -1.41499,-0.38312 -1.65841,0.6925 -1.96921,3.73133 -2.11843,5.19148 -0.031,0.30656 -0.0557,0.54857 -0.0854,0.71614 -0.11889,0.67486 -0.36619,2.07892 -1.28164,2.12372 -0.0198,0.001 -0.0388,0.001 -0.0582,0.001"
       inkscape:export-filename="background.svg"
       inkscape:export-xdpi="96"
       inkscape:export-ydpi="96" /><path
       id="path176"
       style="fill:#ece2f8;fill-opacity:1;fill-rule:nonzero;stroke:none;stroke-width:0.0352778"
       d="m 126.06958,43.374783 c -0.37535,0 -0.74083,-0.0427 -1.06468,-0.0808 -0.6611,-0.0776 -1.24777,-0.17145 -1.72791,-0.53375 -0.0254,-0.0194 -0.0303,-0.0554 -0.0113,-0.0811 0.0194,-0.0254 0.0557,-0.0303 0.0811,-0.0113 0.45685,0.34502 1.02729,0.43568 1.67147,0.51153 0.60184,0.0706 1.35078,0.15839 2.02141,-0.0512 0.40499,-0.127 0.77894,-0.35771 1.14053,-0.58102 0.0272,-0.0166 0.0628,-0.008 0.0797,0.0187 0.0166,0.0272 0.008,0.0628 -0.019,0.0797 -0.36759,0.22684 -0.74789,0.46179 -1.16663,0.59302 -0.32738,0.10196 -0.66993,0.13618 -1.00472,0.13618" /><path
       id="path178"
       style="fill:#ece2f8;fill-opacity:1;fill-rule:nonzero;stroke:none;stroke-width:0.0352778"
       d="m 125.46316,36.876965 c -0.003,0 -0.007,-3.53e-4 -0.01,-3.53e-4 -0.0956,-0.0053 -0.16898,-0.08714 -0.16369,-0.182739 0.0639,-1.15323 0.0593,-2.321983 -0.0138,-3.473803 -0.006,-0.0956 0.0663,-0.178153 0.16193,-0.18415 0.0967,-0.0056 0.17815,0.06668 0.18415,0.162278 0.0741,1.165225 0.0787,2.347736 0.0141,3.514725 -0.005,0.09243 -0.0815,0.164042 -0.17286,0.164042" /><path
       id="path180"
       style="fill:#ece2f8;fill-opacity:1;fill-rule:nonzero;stroke:none;stroke-width:0.0352778"
       d="m 132.44745,37.590282 c -0.0504,0 -0.10054,-0.02187 -0.13476,-0.06421 -0.0603,-0.07444 -0.049,-0.183444 0.0258,-0.243769 0.70132,-0.567973 1.35466,-1.204737 1.94098,-1.892301 0.0621,-0.07303 0.17145,-0.08184 0.24447,-0.01976 0.073,0.06209 0.0815,0.171803 0.0194,0.244475 -0.60008,0.704144 -1.26859,1.355725 -1.98685,1.937103 -0.0321,0.02611 -0.0705,0.03845 -0.10901,0.03845" /><path
       id="path182"
       style="fill:#ece2f8;fill-opacity:1;fill-rule:nonzero;stroke:none;stroke-width:0.0352778"
       d="m 136.48888,43.297523 c -0.0833,0 -0.15664,-0.06 -0.17075,-0.14464 -0.0159,-0.0945 0.0476,-0.18415 0.14217,-0.20003 l 2.39536,-0.40463 c 0.0949,-0.0162 0.18415,0.0476 0.20003,0.14217 0.0159,0.0945 -0.0476,0.18415 -0.14217,0.20002 l -2.39536,0.40464 c -0.01,10e-4 -0.0198,0.002 -0.0293,0.002" /><path
       id="path184"
       style="fill:#ece2f8;fill-opacity:1;fill-rule:nonzero;stroke:none;stroke-width:0.0352778"
       d="m 137.57931,50.534053 c -0.0254,0 -0.0512,-0.006 -0.0758,-0.0176 l -1.59668,-0.77611 c -0.0861,-0.042 -0.12206,-0.1457 -0.0801,-0.23178 0.0416,-0.0864 0.14535,-0.12206 0.23178,-0.0804 l 1.59667,0.77646 c 0.0861,0.0416 0.12206,0.1457 0.0801,0.23178 -0.0296,0.0617 -0.0917,0.0977 -0.15593,0.0977" /><path
       id="path186"
       style="fill:#ece2f8;fill-opacity:1;fill-rule:nonzero;stroke:none;stroke-width:0.0352778"
       d="m 118.179,37.554298 c -0.0384,0 -0.0769,-0.01235 -0.10901,-0.03845 -0.7179,-0.581025 -1.38641,-1.232958 -1.98684,-1.937102 -0.0621,-0.07303 -0.0536,-0.182387 0.0194,-0.244475 0.0734,-0.06209 0.18239,-0.05327 0.24448,0.0194 0.58667,0.687917 1.23966,1.324681 1.94098,1.892653 0.0748,0.05997 0.0861,0.169334 0.0258,0.24377 -0.0342,0.04233 -0.0843,0.06421 -0.13476,0.06421" /><path
       id="path188"
       style="fill:#ece2f8;fill-opacity:1;fill-rule:nonzero;stroke:none;stroke-width:0.0352778"
       d="m 114.13758,43.261533 c -0.01,0 -0.0194,-10e-4 -0.0289,-0.002 l -2.39571,-0.40499 c -0.0942,-0.0159 -0.15805,-0.10513 -0.14217,-0.19968 0.0162,-0.0945 0.10477,-0.15839 0.20002,-0.14217 l 2.39537,0.40464 c 0.0945,0.0162 0.15839,0.10548 0.14216,0.20003 -0.0141,0.0847 -0.0875,0.14463 -0.17074,0.14463" /><path
       id="path190"
       style="fill:#ece2f8;fill-opacity:1;fill-rule:nonzero;stroke:none;stroke-width:0.0352778"
       d="m 112.93002,50.534053 c -0.0642,0 -0.12594,-0.036 -0.15593,-0.0977 -0.042,-0.0861 -0.006,-0.19015 0.0801,-0.23178 l 1.59703,-0.77646 c 0.0864,-0.0416 0.18979,-0.006 0.23178,0.0804 0.042,0.0861 0.006,0.1898 -0.0801,0.23178 l -1.59702,0.77611 c -0.0243,0.012 -0.0504,0.0176 -0.0759,0.0176" /><path
       id="path290"
       style="fill:#ece2f8;fill-opacity:1;fill-rule:nonzero;stroke:none;stroke-width:0.0352778"
       d="m 149.29824,49.610123 c -0.42757,0 -0.77576,0.3482 -0.77576,0.77576 0,0.42757 0.34819,0.77541 0.77576,0.77541 0.42756,0 0.7754,-0.34784 0.7754,-0.77541 0,-0.42756 -0.34784,-0.77576 -0.7754,-0.77576 z m 0,1.8983 c -0.61913,0 -1.12254,-0.50377 -1.12254,-1.12254 0,-0.61912 0.50341,-1.12254 1.12254,-1.12254 0.61877,0 1.12218,0.50342 1.12218,1.12254 0,0.61877 -0.50341,1.12254 -1.12218,1.12254" /><path
       id="path302"
       style="fill:#ece2f8;fill-opacity:1;fill-rule:nonzero;stroke:none;stroke-width:0.0352778"
       d="m 107.44362,60.958633 c -0.42792,0 -0.77576,0.34784 -0.77576,0.77541 0,0.42757 0.34784,0.77576 0.77576,0.77576 0.42757,0 0.77541,-0.34819 0.77541,-0.77576 0,-0.42757 -0.34784,-0.77541 -0.77541,-0.77541 z m 0,1.89795 c -0.61912,0 -1.12254,-0.50342 -1.12254,-1.12254 0,-0.61877 0.50342,-1.12254 1.12254,-1.12254 0.61877,0 1.12219,0.50377 1.12219,1.12254 0,0.61912 -0.50342,1.12254 -1.12219,1.12254" /><path
       id="path330"
       style="fill:#ece2f8;fill-opacity:1;fill-rule:nonzero;stroke:none;stroke-width:0.0352778"
       d="m 127.9757,20.262262 c -0.42757,0 -0.77576,0.34822 -0.77576,0.77568 0,0.4276 0.34819,0.77541 0.77576,0.77541 0.42756,0 0.7754,-0.34781 0.7754,-0.77541 0,-0.42746 -0.34784,-0.77568 -0.7754,-0.77568 z m 0,1.89794 c -0.61913,0 -1.12254,-0.50338 -1.12254,-1.12226 0,-0.61902 0.50341,-1.1224 1.12254,-1.1224 0.61877,0 1.12254,0.50338 1.12254,1.1224 0,0.61888 -0.50377,1.12226 -1.12254,1.12226" /><path
       id="path350"
       style="fill:#ece2f8;fill-opacity:1;fill-rule:nonzero;stroke:none;stroke-width:0.0352778"
       d="m 102.27003,20.492797 c -0.42761,0 -0.77555,0.34784 -0.77555,0.77541 0,0.42792 0.34794,0.77576 0.77555,0.77576 0.42763,0 0.77558,-0.34784 0.77558,-0.77576 0,-0.42757 -0.34795,-0.77541 -0.77558,-0.77541 z m 0,1.89795 c -0.61885,0 -1.1224,-0.50342 -1.1224,-1.12254 0,-0.61877 0.50355,-1.12219 1.1224,-1.12219 0.61901,0 1.12257,0.50342 1.12257,1.12219 0,0.61912 -0.50356,1.12254 -1.12257,1.12254" /><path
       id="path772"
       style="fill:#ece2f8;fill-opacity:1;fill-rule:nonzero;stroke:none;stroke-width:0.0352778"
       d="m 147.31034,29.497206 c 0.83467,0.625828 1.46367,1.576211 1.76177,2.626431 0.0921,-0.461081 0.2353,-0.916517 0.48542,-1.321859 0.33761,-0.5461 0.86642,-0.979664 1.61078,-1.317272 -0.58596,-0.275872 -1.11724,-0.775406 -1.49966,-1.421342 -0.25682,-0.433916 -0.45331,-0.928864 -0.59407,-1.497894 -0.0695,0.326672 -0.15099,0.650522 -0.24342,0.96908 -0.25012,0.862542 -0.61489,1.534231 -1.52082,1.962856 z m 1.77588,3.969103 c -0.002,0 -0.004,0 -0.006,0 -0.0907,-0.0028 -0.16404,-0.07549 -0.16757,-0.166511 -0.0593,-1.489075 -0.86571,-2.938992 -2.05458,-3.693584 -0.0557,-0.03528 -0.0864,-0.09913 -0.0794,-0.164394 0.007,-0.06597 0.0505,-0.121708 0.11218,-0.144639 1.00013,-0.369358 1.34656,-0.961672 1.60726,-1.859492 0.17709,-0.610658 0.31221,-1.240719 0.40181,-1.87325 0.012,-0.08572 0.0854,-0.149225 0.1718,-0.149225 3.6e-4,0 7.1e-4,0 0.001,0 0.0868,3.53e-4 0.15981,0.06526 0.1711,0.151342 0.1203,0.941917 0.35666,1.700742 0.7232,2.319867 0.42897,0.724605 1.05692,1.243189 1.72296,1.4224 0.073,0.01976 0.12489,0.08431 0.12841,0.159455 0.003,0.07549 -0.0423,0.144639 -0.11324,0.170745 -0.89147,0.3302 -1.49754,0.770466 -1.85243,1.345141 -0.41981,0.679451 -0.51259,1.554692 -0.59444,2.326923 -0.009,0.08855 -0.084,0.155222 -0.17215,0.155222" /><path
       id="path776"
       style="fill:#ece2f8;fill-opacity:1;fill-rule:nonzero;stroke:none;stroke-width:0.0352778"
       d="m 155.08415,37.468926 c 0.67451,0.466725 1.18745,1.149347 1.44886,1.904647 0.0815,-0.33055 0.20531,-0.65617 0.41133,-0.94932 0.28152,-0.400408 0.71367,-0.721788 1.31304,-0.975083 -0.47448,-0.218722 -0.90276,-0.585963 -1.21743,-1.053041 -0.21202,-0.315031 -0.37748,-0.671689 -0.49918,-1.078089 -0.0561,0.223308 -0.12065,0.444853 -0.19262,0.663222 -0.21414,0.6477 -0.52176,1.156053 -1.264,1.487664 z m 1.46508,3.058227 c -0.002,0 -0.005,0 -0.007,0 -0.0903,-0.003 -0.16263,-0.0751 -0.16686,-0.16545 -0.0508,-1.11866 -0.74295,-2.20945 -1.76354,-2.778477 -0.0603,-0.03387 -0.0949,-0.09984 -0.0882,-0.168628 0.007,-0.06844 0.0533,-0.126647 0.11888,-0.148166 0.8576,-0.278342 1.15359,-0.721784 1.37584,-1.394178 0.15275,-0.462492 0.26952,-0.940153 0.34678,-1.419578 0.0134,-0.08431 0.0857,-0.14605 0.17109,-0.14605 3.6e-4,0 7.1e-4,0 0.001,0 0.0854,7.05e-4 0.15805,0.06385 0.1704,0.148519 0.10301,0.710142 0.30585,1.281642 0.61947,1.747309 0.36795,0.5461 0.90805,0.93733 1.48167,1.072797 0.0755,0.01799 0.13018,0.08396 0.13335,0.161925 0.003,0.07761 -0.0459,0.147814 -0.11959,0.172156 -0.75883,0.246591 -1.2954,0.588081 -1.59526,1.014591 -0.35701,0.50835 -0.43674,1.1684 -0.50694,1.75083 -0.0102,0.0875 -0.0847,0.1524 -0.17181,0.1524" /><path
       id="path786"
       style="fill:#ece2f8;fill-opacity:1;fill-rule:nonzero;stroke:none;stroke-width:0.0352778"
       d="m 102.43458,32.262924 c -0.0917,0 -0.16827,-0.072 -0.17311,-0.16475 -0.005,-0.0956 0.0685,-0.17709 0.16429,-0.18203 0.41173,-0.0212 0.76782,-0.0494 1.1122,-0.0765 0.35141,-0.0279 0.71466,-0.0565 1.1424,-0.0787 0.0934,-0.006 0.17706,0.0684 0.18218,0.16404 0.005,0.0956 -0.0686,0.17745 -0.16425,0.18239 -0.42309,0.0219 -0.78398,0.0504 -1.13306,0.078 -0.34657,0.0275 -0.70513,0.0557 -1.12158,0.0773 -0.003,3.5e-4 -0.006,3.5e-4 -0.009,3.5e-4" /><path
       id="path788"
       style="fill:#ece2f8;fill-opacity:1;fill-rule:nonzero;stroke:none;stroke-width:0.0352778"
       d="m 105.97365,30.992224 c -0.0911,0 -0.16743,-0.0713 -0.17293,-0.16334 l -0.14581,-2.43805 c -0.006,-0.0956 0.0672,-0.1778 0.16288,-0.18344 0.0938,-0.006 0.17777,0.067 0.18355,0.16298 l 0.14566,2.43805 c 0.006,0.0952 -0.0671,0.17745 -0.16273,0.18344 -0.004,0 -0.007,3.6e-4 -0.0106,3.6e-4" /><path
       id="path790"
       style="fill:#ece2f8;fill-opacity:1;fill-rule:nonzero;stroke:none;stroke-width:0.0352778"
       d="m 108.75149,32.107354 c -5.6e-4,0 -9.5e-4,0 -0.001,0 l -1.75009,-0.0148 c -0.0958,-7.1e-4 -0.17283,-0.079 -0.17198,-0.17498 8.1e-4,-0.0952 0.0783,-0.1718 0.17349,-0.1718 3.9e-4,0 9.5e-4,0 0.002,0 l 1.74996,0.0148 c 0.0959,7e-4 0.17282,0.079 0.17198,0.17497 -6.7e-4,0.0953 -0.0783,0.17181 -0.17336,0.17181" /><path
       id="path792"
       style="fill:#ece2f8;fill-opacity:1;fill-rule:nonzero;stroke:none;stroke-width:0.0352778"
       d="m 105.97407,35.867964 c -0.005,0 -0.009,0 -0.0136,-3.6e-4 -0.0955,-0.007 -0.1669,-0.091 -0.1596,-0.18661 0.0591,-0.76236 0.0611,-1.53529 0.005,-2.29765 -0.007,-0.0956 0.0649,-0.17886 0.16041,-0.18556 0.096,-0.006 0.17872,0.0649 0.18574,0.16016 0.0569,0.77964 0.0551,1.57022 -0.005,2.34986 -0.007,0.091 -0.0831,0.16016 -0.17279,0.16016" /><path
       id="path810"
       style="fill:#ece2f8;fill-opacity:1;fill-rule:nonzero;stroke:none;stroke-width:0.0352778"
       d="m 93.428796,46.102153 c -0.09246,0 -0.169227,-0.073 -0.173214,-0.16616 -0.0041,-0.0956 0.07027,-0.17674 0.165912,-0.18062 0.349179,-0.0148 0.651122,-0.0342 0.943116,-0.0533 0.297815,-0.0191 0.60579,-0.0392 0.968234,-0.0543 0.09521,-0.004 0.176635,0.0699 0.180657,0.1658 0.0041,0.0956 -0.07031,0.17675 -0.165947,0.18063 -0.358669,0.0152 -0.664598,0.0349 -0.960613,0.0543 -0.293794,0.0187 -0.597782,0.0385 -0.950701,0.0536 -0.0025,0 -0.005,0 -0.0074,0" /><path
       id="path812"
       style="fill:#ece2f8;fill-opacity:1;fill-rule:nonzero;stroke:none;stroke-width:0.0352778"
       d="m 96.429063,45.220203 c -0.0901,0 -0.16619,-0.0695 -0.17282,-0.16086 l -0.12362,-1.69193 c -0.007,-0.0952 0.0648,-0.1785 0.16041,-0.18556 0.0963,-0.006 0.17875,0.0649 0.18563,0.16052 l 0.12362,1.69192 c 0.007,0.0956 -0.0649,0.1785 -0.16041,0.18556 -0.004,3.5e-4 -0.008,3.5e-4 -0.0128,3.5e-4" /><path
       id="path814"
       style="fill:#ece2f8;fill-opacity:1;fill-rule:nonzero;stroke:none;stroke-width:0.0352778"
       d="m 98.783994,45.994203 c -4.2e-4,0 -8.4e-4,0 -0.001,0 l -1.483571,-0.0102 c -0.0958,-7.1e-4 -0.17296,-0.079 -0.17226,-0.17463 7.1e-4,-0.096 0.0787,-0.17427 0.17459,-0.17215 l 1.483751,0.0102 c 0.0958,7e-4 0.17293,0.079 0.17226,0.17462 -7e-4,0.0956 -0.0783,0.17216 -0.1735,0.17216" /><path
       id="path816"
       style="fill:#ece2f8;fill-opacity:1;fill-rule:nonzero;stroke:none;stroke-width:0.0352778"
       d="m 96.429453,48.604053 c -0.005,0 -0.011,-3.6e-4 -0.0166,-10e-4 -0.0954,-0.009 -0.16538,-0.0935 -0.15628,-0.18874 0.0497,-0.52458 0.0513,-1.05657 0.004,-1.58115 -0.008,-0.0952 0.062,-0.17956 0.15737,-0.18803 0.0947,-0.008 0.17971,0.0617 0.18825,0.15734 0.0486,0.54575 0.0471,1.0989 -0.005,1.64465 -0.008,0.0896 -0.0841,0.15699 -0.17241,0.15699" /><path
       id="path810-6"
       style="fill:#ece2f8;fill-opacity:1;fill-rule:nonzero;stroke:none;stroke-width:0.0352778"
       d="m 139.43223,70.706799 c -0.0925,0 -0.16923,-0.073 -0.17321,-0.16616 -0.004,-0.0956 0.0703,-0.17674 0.16591,-0.18062 0.34918,-0.0148 0.65112,-0.0342 0.94312,-0.0533 0.29781,-0.0191 0.60579,-0.0392 0.96823,-0.0543 0.0952,-0.004 0.17663,0.0699 0.18066,0.1658 0.004,0.0956 -0.0703,0.17675 -0.16595,0.18063 -0.35867,0.0152 -0.6646,0.0349 -0.96061,0.0543 -0.2938,0.0187 -0.59779,0.0385 -0.9507,0.0536 -0.002,0 -0.005,0 -0.007,0" /><path
       id="path812-7"
       style="fill:#ece2f8;fill-opacity:1;fill-rule:nonzero;stroke:none;stroke-width:0.0352778"
       d="m 142.4325,69.824849 c -0.0901,0 -0.16619,-0.0695 -0.17282,-0.16086 l -0.12362,-1.69193 c -0.007,-0.0952 0.0648,-0.1785 0.16041,-0.18556 0.0963,-0.006 0.17875,0.0649 0.18563,0.16052 l 0.12362,1.69192 c 0.007,0.0956 -0.0649,0.1785 -0.16041,0.18556 -0.004,3.5e-4 -0.008,3.5e-4 -0.0128,3.5e-4" /><path
       id="path814-7"
       style="fill:#ece2f8;fill-opacity:1;fill-rule:nonzero;stroke:none;stroke-width:0.0352778"
       d="m 144.78743,70.598849 c -4.2e-4,0 -8.4e-4,0 -0.001,0 l -1.48357,-0.0102 c -0.0958,-7.1e-4 -0.17296,-0.079 -0.17226,-0.17463 7.1e-4,-0.096 0.0787,-0.17427 0.17459,-0.17215 l 1.48375,0.0102 c 0.0958,7e-4 0.17293,0.079 0.17226,0.17462 -7e-4,0.0956 -0.0783,0.17216 -0.1735,0.17216" /><path
       id="path816-0"
       style="fill:#ece2f8;fill-opacity:1;fill-rule:nonzero;stroke:none;stroke-width:0.0352778"
       d="m 142.43289,73.208699 c -0.005,0 -0.011,-3.6e-4 -0.0166,-10e-4 -0.0954,-0.009 -0.16538,-0.0935 -0.15628,-0.18874 0.0497,-0.52458 0.0513,-1.05657 0.004,-1.58115 -0.008,-0.0952 0.062,-0.17956 0.15737,-0.18803 0.0947,-0.008 0.17971,0.0617 0.18825,0.15734 0.0486,0.54575 0.0471,1.0989 -0.005,1.64465 -0.008,0.0896 -0.0841,0.15699 -0.17241,0.15699" /></g></svg>
