<?xml version="1.0" encoding="UTF-8" standalone="no"?>
<!-- Created with Inkscape (http://www.inkscape.org/) -->

<svg
   width="160.06511mm"
   height="180.41684mm"
   viewBox="0 0 160.06511 180.41684"
   version="1.1"
   id="svg1"
   xml:space="preserve"
   xmlns:inkscape="http://www.inkscape.org/namespaces/inkscape"
   xmlns:sodipodi="http://sodipodi.sourceforge.net/DTD/sodipodi-0.dtd"
   xmlns="http://www.w3.org/2000/svg"
   xmlns:svg="http://www.w3.org/2000/svg"><sodipodi:namedview
     id="namedview1"
     pagecolor="#505050"
     bordercolor="#ffffff"
     borderopacity="1"
     inkscape:showpageshadow="0"
     inkscape:pageopacity="0"
     inkscape:pagecheckerboard="1"
     inkscape:deskcolor="#505050"
     inkscape:document-units="mm" /><defs
     id="defs1" /><g
     inkscape:label="Camada 1"
     inkscape:groupmode="layer"
     id="layer1"
     transform="translate(-248.08555,4.5303063)"><path
       style="fill:#ffffff"
       d="m 293.38212,175.40661 c -1.65541,-0.74086 -6.62488,-4.61543 -9.91908,-7.73367 -11.75654,-11.12854 -20.09358,-27.12426 -22.83976,-43.82114 -0.96528,-5.86889 -1.04698,-7.36415 -1.09874,-20.10833 -0.0415,-10.211512 -0.17294,-13.460382 -0.67094,-16.580562 -1.35688,-8.50139 -2.85613,-13.923243 -6.29168,-22.753043 -2.40585,-6.18333 -3.5585,-10.37601 -4.12221,-14.99418 -1.7971,-14.722883 3.31259,-29.679443 13.79117,-40.3680519 6.22601,-6.35081 13.04085,-10.3117 21.72476,-12.626794 3.00942,-0.8023 4.1419,-0.9166 9.2501,-0.93361 4.88867,-0.0163 6.32928,0.10697 8.99583,0.7696 4.47788,1.11276 7.47279,2.291824 12.39111,4.878254 5.37896,2.82866 8.43738,3.6542 13.53806,3.6542 5.0354,0 8.20652,-0.83907 13.19483,-3.49131 5.01931,-2.66873 7.51939,-3.670534 12.15564,-4.870864 3.35609,-0.8689 4.35157,-0.97019 9.39814,-0.95627 6.19406,0.0171 8.8264,0.48465 14.69334,2.60987 13.418,4.860484 25.1321,18.2749829 29.01195,33.2232729 2.77717,10.69987 1.86767,21.395073 -2.78516,32.751983 -2.13243,5.20494 -3.86133,10.583863 -4.9221,15.313523 -1.85377,8.26532 -2.05048,10.48145 -2.13229,24.021202 -0.044,7.28617 -0.25972,14.20384 -0.50599,16.22778 -2.54576,20.92167 -12.62401,39.69479 -27.86478,51.90476 -5.49859,4.40513 -5.37316,4.36329 -13.07969,4.36329 -5.82203,0 -6.63246,-0.0738 -7.98131,-0.72676 -1.08998,-0.52765 -1.70039,-1.13806 -2.22804,-2.22805 -0.71031,-1.46728 -0.72677,-2.00568 -0.72677,-23.77393 0,-15.02159 -0.12801,-22.88126 -0.3932,-24.14209 -1.1376,-5.40864 -5.02085,-9.87597 -10.36652,-11.92574 -3.99922,-1.53349 -9.79467,-1.03929 -13.58194,1.15818 -2.95258,1.71315 -5.89271,5.26004 -7.18064,8.66251 -0.73956,1.95378 -0.7609,2.54126 -0.93325,25.69831 -0.17302,23.24522 -0.19031,23.71746 -0.90374,24.67265 -1.7591,2.35519 -2.00852,2.42038 -9.61614,2.51359 -5.20206,0.0637 -7.20795,-0.0337 -8.00096,-0.38858 z"
       id="path1" /></g></svg>
