<?xml version="1.0" encoding="UTF-8" standalone="no"?>
<!-- Generator: Adobe Illustrator 27.5.0, SVG Export Plug-In . SVG Version: 6.00 Build 0)  -->

<svg
   version="1.1"
   id="Layer_1"
   x="0px"
   y="0px"
   viewBox="0 0 112.52522 69.190453"
   xml:space="preserve"
   sodipodi:docname="26764315_2002.i402.001.P.m004.c25.Dental health flat icons.svg"
   inkscape:export-filename="g161.svg"
   inkscape:export-xdpi="450.24857"
   inkscape:export-ydpi="450.24857"
   width="112.52522"
   height="69.190453"
   xmlns:inkscape="http://www.inkscape.org/namespaces/inkscape"
   xmlns:sodipodi="http://sodipodi.sourceforge.net/DTD/sodipodi-0.dtd"
   xmlns="http://www.w3.org/2000/svg"
   xmlns:svg="http://www.w3.org/2000/svg"><defs
   id="defs1251" /><sodipodi:namedview
   id="namedview1251"
   pagecolor="#505050"
   bordercolor="#ffffff"
   borderopacity="1"
   inkscape:showpageshadow="0"
   inkscape:pageopacity="0"
   inkscape:pagecheckerboard="1"
   inkscape:deskcolor="#505050" />
<g
   id="g264"
   transform="translate(-365.44542,-31.506545)">
			<path
   style="fill:#c9d6f2"
   d="m 432.633,97.43 -56.497,0.299 c -5.802,-21.771 8.441,-24.447 5.618,-38.951 -6.811,-35.011 46.279,-33.016 56.703,-12.464 7.956,15.684 17.461,7.965 31.103,17.431 14.476,10.044 7.331,28.327 0.314,34.102 z"
   id="path162" />
			<g
   id="g164">
				<path
   style="fill:#b5c2e6"
   d="m 391.79,95.301 c 0,0 -28.381,-6.349 -26.228,-31.261 10e-4,0 25.672,1.385 26.228,31.261 z"
   id="path163" />
				<path
   style="fill:#a1b3db"
   d="m 365.563,64.04 c 0,0 21.825,20.687 26.228,31.261 -10e-4,0 1.741,-29.891 -26.228,-31.261 z"
   id="path164" />
			</g>
			<g
   id="g187">
				<g
   id="g165">
					<path
   style="fill:#b5c2e6"
   d="m 451.668,84.586 c 12.359,-21.111 7.846,-39.805 7.796,-39.994 l -0.799,0.204 c 0.046,0.185 4.471,18.565 -7.711,39.374 z"
   id="path165" />
				</g>
				<g
   id="g166">
					
						<rect
   x="458.08499"
   y="49.956001"
   transform="matrix(0.8763,-0.4818,0.4818,0.8763,31.272,227.4389)"
   style="fill:#b5c2e6"
   width="0.82499999"
   height="5.744"
   id="rect165" />
				</g>
				<g
   id="g167">
					
						<rect
   x="457.17899"
   y="55.841"
   transform="matrix(0.7586,-0.6515,0.6515,0.7586,72.2049,312.3154)"
   style="fill:#b5c2e6"
   width="0.829"
   height="5.7420001"
   id="rect166" />
				</g>
				<g
   id="g168">
					
						<rect
   x="456.086"
   y="62.146999"
   transform="matrix(0.7614,-0.6483,0.6483,0.7614,66.7649,311.446)"
   style="fill:#b5c2e6"
   width="0.82599998"
   height="5.744"
   id="rect167" />
				</g>
				<g
   id="g169">
					<polygon
   style="fill:#b5c2e6"
   points="453.19,68.233 452.563,68.775 456.313,73.126 456.935,72.591 "
   id="polygon168" />
				</g>
				<g
   id="g170">
					<polygon
   style="fill:#b5c2e6"
   points="451.148,73.952 450.524,74.491 454.269,78.842 454.893,78.302 "
   id="polygon169" />
				</g>
				<g
   id="g171">
					<polygon
   style="fill:#b5c2e6"
   points="461.995,48.561 459.528,53.745 460.273,54.103 462.741,48.911 "
   id="polygon170" />
				</g>
				<g
   id="g172">
					<polygon
   style="fill:#b5c2e6"
   points="462.736,54.97 459.324,59.598 459.992,60.087 463.4,55.462 "
   id="polygon171" />
				</g>
				<g
   id="g173">
					<polygon
   style="fill:#b5c2e6"
   points="462.635,62.802 458.152,66.392 458.67,67.04 463.154,63.442 "
   id="polygon172" />
				</g>
				<g
   id="g174">
					<polygon
   style="fill:#b5c2e6"
   points="460.806,70.09 456.146,73.447 456.625,74.118 461.291,70.755 "
   id="polygon173" />
				</g>
				<g
   id="g175">
					
						<rect
   x="452.707"
   y="78.984001"
   transform="matrix(0.8611,-0.5084,0.5084,0.8611,22.9062,242.6463)"
   style="fill:#b5c2e6"
   width="5.7459998"
   height="0.82499999"
   id="rect174" />
				</g>
				<g
   id="g176">
					<path
   style="fill:#b5c2e6"
   d="m 457.275,43.493 c -0.232,1.084 0.461,2.149 1.541,2.376 1.077,0.233 2.146,-0.46 2.372,-1.54 0.23,-1.081 -0.465,-2.144 -1.54,-2.377 -1.081,-0.227 -2.143,0.463 -2.373,1.541 z"
   id="path175" />
				</g>
				<g
   id="g177">
					<path
   style="fill:#b5c2e6"
   d="m 454.241,49.222 c -0.154,1.093 0.605,2.109 1.697,2.264 1.095,0.162 2.107,-0.6 2.262,-1.691 0.157,-1.094 -0.601,-2.11 -1.69,-2.271 -1.095,-0.155 -2.111,0.602 -2.269,1.698 z"
   id="path176" />
				</g>
				<g
   id="g178">
					<path
   style="fill:#b5c2e6"
   d="m 453.124,54.9 c -0.512,0.981 -0.122,2.19 0.866,2.693 0.982,0.506 2.186,0.118 2.693,-0.866 0.5,-0.986 0.113,-2.188 -0.869,-2.693 -0.982,-0.509 -2.188,-0.115 -2.69,0.866 z"
   id="path177" />
				</g>
				<g
   id="g179">
					<path
   style="fill:#b5c2e6"
   d="m 452.026,61.206 c -0.503,0.986 -0.114,2.192 0.866,2.696 0.985,0.506 2.192,0.114 2.696,-0.865 0.507,-0.982 0.118,-2.191 -0.866,-2.695 -0.984,-0.503 -2.195,-0.115 -2.696,0.864 z"
   id="path178" />
				</g>
				<g
   id="g180">
					<path
   style="fill:#b5c2e6"
   d="m 450.279,66.867 c -0.501,0.989 -0.12,2.193 0.864,2.695 0.981,0.506 2.191,0.119 2.697,-0.861 0.502,-0.986 0.122,-2.189 -0.865,-2.698 -0.988,-0.504 -2.191,-0.113 -2.696,0.864 z"
   id="path179" />
				</g>
				<g
   id="g181">
					<path
   style="fill:#b5c2e6"
   d="m 448.233,72.588 c -0.504,0.983 -0.117,2.188 0.866,2.693 0.987,0.504 2.19,0.115 2.691,-0.87 0.506,-0.983 0.123,-2.185 -0.86,-2.692 -0.984,-0.505 -2.19,-0.117 -2.697,0.869 z"
   id="path180" />
				</g>
				<g
   id="g182">
					<path
   style="fill:#b5c2e6"
   d="m 465.176,47.487 c 0.221,1.076 -0.482,2.135 -1.56,2.356 -1.083,0.221 -2.143,-0.479 -2.361,-1.563 -0.221,-1.08 0.479,-2.139 1.561,-2.359 1.08,-0.216 2.133,0.481 2.36,1.566 z"
   id="path181" />
				</g>
				<g
   id="g183">
					<path
   style="fill:#b5c2e6"
   d="m 466.063,54.52 c 0.009,1.105 -0.879,2.007 -1.982,2.02 -1.103,0.013 -2.009,-0.878 -2.021,-1.98 -0.009,-1.104 0.872,-2.009 1.98,-2.019 1.107,-0.014 2.009,0.873 2.023,1.979 z"
   id="path182" />
				</g>
				<g
   id="g184">
					<path
   style="fill:#b5c2e6"
   d="m 465.965,63.22 c -0.273,1.072 -1.362,1.716 -2.431,1.443 -1.07,-0.276 -1.715,-1.362 -1.442,-2.432 0.271,-1.072 1.361,-1.72 2.435,-1.444 1.071,0.271 1.713,1.361 1.438,2.433 z"
   id="path183" />
				</g>
				<g
   id="g185">
					<path
   style="fill:#b5c2e6"
   d="m 464.107,70.674 c -0.327,1.056 -1.445,1.649 -2.503,1.318 -1.055,-0.325 -1.649,-1.447 -1.317,-2.503 0.323,-1.056 1.447,-1.645 2.508,-1.317 1.054,0.327 1.641,1.447 1.312,2.502 z"
   id="path184" />
				</g>
				<g
   id="g186">
					<path
   style="fill:#b5c2e6"
   d="m 461.08,78.467 c -0.424,1.021 -1.592,1.504 -2.618,1.086 -1.02,-0.424 -1.506,-1.599 -1.08,-2.616 0.422,-1.021 1.59,-1.504 2.611,-1.082 1.021,0.422 1.509,1.591 1.087,2.612 z"
   id="path185" />
				</g>
			</g>
			<g
   id="g198">
				<g
   id="g188">
					<path
   style="fill:#7585f8"
   d="m 393.761,83.901 -0.819,0.835 c -0.176,-0.183 -4.393,-4.52 -7.646,-11.297 -4.329,-9.022 -4.787,-18.023 -1.311,-26.041 l 1.027,0.411 c -8.072,18.622 8.583,35.919 8.749,36.092 z"
   id="path187" />
				</g>
				<g
   id="g189">
					<path
   style="fill:#7585f8"
   d="m 384.052,48.795 c 0,0 -3.502,-5.974 2.58,-11.002 0,0 2.302,6.602 -2.58,11.002 z"
   id="path188" />
				</g>
				<g
   id="g190">
					<path
   style="fill:#7585f8"
   d="m 382.512,55.025 c 0,0 -8.56,-2.009 -6.503,-11.8 0,10e-4 4.641,0.945 6.503,11.8 z"
   id="path189" />
				</g>
				<g
   id="g191">
					<path
   style="fill:#7585f8"
   d="m 382.251,54.906 c 0,0 8.851,0.391 10.4,-9.467 0,0 -4.746,-0.353 -10.4,9.467 z"
   id="path190" />
				</g>
				<g
   id="g192">
					<path
   style="fill:#7585f8"
   d="m 382.526,63.263 c 0,0 -8.772,-1.091 -7.704,-10.989 0,-10e-4 4.735,0.444 7.704,10.989 z"
   id="path191" />
				</g>
				<g
   id="g193">
					<path
   style="fill:#7585f8"
   d="m 382.25,63.169 c 0,0 8.895,-0.54 9.445,-10.459 0,0 -4.786,0.152 -9.445,10.459 z"
   id="path192" />
				</g>
				<g
   id="g194">
					<path
   style="fill:#7585f8"
   d="m 385.219,72.076 c 0,0 -8.902,0.464 -9.508,-9.384 0,0 4.786,-0.397 9.508,9.384 z"
   id="path193" />
				</g>
				<g
   id="g195">
					<path
   style="fill:#7585f8"
   d="m 384.928,72.031 c 0,0 8.754,-2.085 7.638,-11.858 -10e-4,10e-4 -4.738,0.982 -7.638,11.858 z"
   id="path194" />
				</g>
				<g
   id="g196">
					<path
   style="fill:#7585f8"
   d="m 389.27,79.063 c 0,0 -8.594,2.811 -11.713,-6.405 10e-4,0 4.586,-1.645 11.713,6.405 z"
   id="path195" />
				</g>
				<g
   id="g197">
					<path
   style="fill:#7585f8"
   d="m 388.977,79.102 c 0,0 8.04,-4.308 4.439,-13.311 0,0 -4.385,2.19 -4.439,13.311 z"
   id="path196" />
				</g>
			</g>
			<g
   id="g213">
				<g
   id="g199">
					<path
   style="fill:#b5c2e6"
   d="m 393.64,68.262 1.185,-0.087 C 393.44,49.35 405.748,38.108 405.874,37.992 l -0.795,-0.886 c -0.125,0.118 -12.868,11.728 -11.439,31.156 z"
   id="path198" />
				</g>
				<g
   id="g200">
					<path
   style="fill:#b5c2e6"
   d="m 404.923,38.303 c 0,0 5.547,-3.834 2.854,-6.45 -1.143,-1.113 -3.938,0.306 -2.854,6.45 z"
   id="path199" />
				</g>
				<g
   id="g201">
					<path
   style="fill:#b5c2e6"
   d="m 403.25,40.156 c 0,0 2.037,-6.868 -1.636,-6.652 -1.566,0.097 -2.899,3.21 1.636,6.652 z"
   id="path200" />
				</g>
				<g
   id="g202">
					<path
   style="fill:#b5c2e6"
   d="m 402.597,40.299 c 0,0 4.745,-5.045 6.201,-1.372 0.622,1.562 -1.344,4.254 -6.201,1.372 z"
   id="path201" />
				</g>
				<g
   id="g203">
					<path
   style="fill:#b5c2e6"
   d="m 399.481,45.293 c 0,0 4.537,-5.29 6.156,-1.706 0.689,1.523 -1.163,4.307 -6.156,1.706 z"
   id="path202" />
				</g>
				<g
   id="g204">
					<path
   style="fill:#b5c2e6"
   d="m 397.214,49.563 c 0,0 4.552,-5.268 6.16,-1.682 0.69,1.529 -1.172,4.307 -6.16,1.682 z"
   id="path203" />
				</g>
				<g
   id="g205">
					<path
   style="fill:#b5c2e6"
   d="m 395.333,55.218 c 0,0 3.689,-6.037 5.857,-2.871 0.928,1.348 -0.482,4.42 -5.857,2.871 z"
   id="path204" />
				</g>
				<g
   id="g206">
					<path
   style="fill:#b5c2e6"
   d="m 394.413,59.945 c 0,0 3.84,-5.929 5.924,-2.681 0.884,1.378 -0.6,4.41 -5.924,2.681 z"
   id="path205" />
				</g>
				<g
   id="g207">
					<path
   style="fill:#b5c2e6"
   d="m 394.14,66.18 c 0,0 2.3,-6.785 5.137,-4.377 1.206,1.028 0.503,4.351 -5.137,4.377 z"
   id="path206" />
				</g>
				<g
   id="g208">
					<path
   style="fill:#b5c2e6"
   d="m 400.273,43.987 c 0,0 2.036,-6.876 -1.641,-6.655 -1.561,0.096 -2.893,3.204 1.641,6.655 z"
   id="path207" />
				</g>
				<g
   id="g209">
					<path
   style="fill:#b5c2e6"
   d="m 397.886,48.372 c 0,0 2.032,-6.877 -1.641,-6.657 -1.564,0.096 -2.895,3.208 1.641,6.657 z"
   id="path208" />
				</g>
				<g
   id="g210">
					<path
   style="fill:#b5c2e6"
   d="m 396.19,52.962 c 0,0 0.615,-7.113 -2.969,-5.96 -1.527,0.488 -2.212,3.818 2.969,5.96 z"
   id="path209" />
				</g>
				<g
   id="g211">
					<path
   style="fill:#b5c2e6"
   d="m 394.836,58.232 c 0,0 -0.048,-7.101 -3.53,-5.538 -1.479,0.669 -1.858,4.034 3.53,5.538 z"
   id="path210" />
				</g>
				<g
   id="g212">
					<path
   style="fill:#b5c2e6"
   d="m 394.287,63.609 c 0,0 -0.958,-6.948 -4.24,-4.852 -1.394,0.899 -1.335,4.258 4.24,4.852 z"
   id="path211" />
				</g>
			</g>
			<g
   id="g228">
				<g
   id="g214">
					<path
   style="fill:#7585f8"
   d="m 454.298,93.444 -0.739,-0.931 c 14.789,-11.732 14.723,-28.401 14.724,-28.571 l 1.189,-0.016 c -0.002,0.172 0.086,17.411 -15.174,29.518 z"
   id="path213" />
				</g>
				<g
   id="g215">
					<path
   style="fill:#7585f8"
   d="m 468.696,64.852 c 0,0 -0.936,-6.678 2.811,-6.469 1.595,0.087 2.444,3.105 -2.811,6.469 z"
   id="path214" />
				</g>
				<g
   id="g216">
					<path
   style="fill:#7585f8"
   d="m 468.466,67.337 c 0,0 3.674,-6.149 6.002,-3.302 0.99,1.218 -0.398,4.308 -6.002,3.302 z"
   id="path215" />
				</g>
				<g
   id="g217">
					<path
   style="fill:#7585f8"
   d="m 468.803,67.915 c 0,0 0.498,-6.908 -3.188,-5.491 -1.573,0.6 -2.221,3.869 3.188,5.491 z"
   id="path216" />
				</g>
				<g
   id="g218">
					<path
   style="fill:#7585f8"
   d="m 467.239,73.59 c 0,0 0.818,-6.922 -2.914,-5.685 -1.588,0.525 -2.382,3.774 2.914,5.685 z"
   id="path217" />
				</g>
				<g
   id="g219">
					<path
   style="fill:#7585f8"
   d="m 465.632,78.149 c 0,0 0.794,-6.916 -2.934,-5.671 -1.591,0.529 -2.375,3.779 2.934,5.671 z"
   id="path218" />
				</g>
				<g
   id="g220">
					<path
   style="fill:#7585f8"
   d="m 462.748,83.363 c 0,0 1.941,-6.803 -1.855,-6.253 -1.622,0.23 -2.926,3.348 1.855,6.253 z"
   id="path219" />
				</g>
				<g
   id="g221">
					<path
   style="fill:#7585f8"
   d="m 459.893,87.242 c 0,0 1.761,-6.841 -2.039,-6.173 -1.613,0.282 -2.839,3.426 2.039,6.173 z"
   id="path220" />
				</g>
				<g
   id="g222">
					<path
   style="fill:#7585f8"
   d="m 455.489,91.667 c 0,0 3.436,-6.289 -0.256,-6.744 -1.576,-0.192 -3.545,2.576 0.256,6.744 z"
   id="path221" />
				</g>
				<g
   id="g223">
					<path
   style="fill:#7585f8"
   d="m 467.664,72.122 c 0,0 3.679,-6.155 6.007,-3.3 0.987,1.214 -0.398,4.298 -6.007,3.3 z"
   id="path222" />
				</g>
				<g
   id="g224">
					<path
   style="fill:#7585f8"
   d="m 466.055,76.849 c 0,0 3.682,-6.153 6.009,-3.301 0.988,1.215 -0.4,4.302 -6.009,3.301 z"
   id="path223" />
				</g>
				<g
   id="g225">
					<path
   style="fill:#7585f8"
   d="m 463.827,81.204 c 0,0 4.815,-5.27 6.394,-1.852 0.675,1.455 -1.309,4.214 -6.394,1.852 z"
   id="path224" />
				</g>
				<g
   id="g226">
					<path
   style="fill:#7585f8"
   d="m 460.866,85.771 c 0,0 5.258,-4.775 6.465,-1.154 0.511,1.541 -1.71,4.098 -6.465,1.154 z"
   id="path225" />
				</g>
				<g
   id="g227">
					<path
   style="fill:#7585f8"
   d="m 457.282,89.816 c 0,0 5.761,-4.001 6.441,-0.165 0.285,1.633 -2.226,3.865 -6.441,0.165 z"
   id="path226" />
				</g>
			</g>
			<path
   style="fill:#acbfe2"
   d="m 471.588,97.323 c 0,1.615 -11.924,3.374 -46.594,3.374 -34.67,0 -48.858,-1.267 -48.858,-2.881 0,-1.616 14.189,-2.966 48.858,-2.966 34.67,0.001 46.594,0.857 46.594,2.473 z"
   id="path228" />
			<g
   id="g241">
				<path
   style="fill:#f5a4b7"
   d="m 381.483,80.76 c 0,0 -3.322,17.684 11.75,16.667 15.076,-1.016 58.537,3.669 63.325,-2.821 4.789,-6.491 2.315,-20.522 1.762,-21.758 -1.142,-2.549 -2.651,-9.312 -24.334,-5.065 -21.684,4.248 -40.448,3.966 -48.132,5.455 -5.063,0.982 -4.371,7.522 -4.371,7.522 z"
   id="path229" />
				<path
   style="fill:#f5a4b7"
   d="m 381.398,79.085 c 0,0 -0.451,15.955 12.04,15.1 15.073,-1.032 58.07,1.822 62.906,-3.755 4.834,-5.577 2.468,-17.552 1.924,-18.604 -1.122,-2.171 -2.581,-7.94 -24.29,-4.17 -21.707,3.771 -40.462,3.65 -48.155,4.974 -5.068,0.871 -4.425,6.455 -4.425,6.455 z"
   id="path230" />
				<path
   style="fill:#e887a0"
   d="m 386.657,72.499 c 0,0 3.654,0.8 3.668,2.066 0.048,4.62 0.996,15.284 8.764,14.533 0,0 4.106,-0.285 3.595,-5.971 -0.513,-5.686 1.629,-10.133 2.614,-7.791 0.987,2.342 -0.553,14.631 7.431,13.6 5.64,-0.727 4.842,-6.704 4.334,-9.837 -0.584,-3.603 0.986,-7.839 3.286,-9.484 z"
   id="path231" />
				<g
   id="g235">
					<path
   style="fill:#ffffff"
   d="m 390.079,51.152 c 0,0 3.427,-3.707 10.243,-1.054 6.806,2.648 6.642,-0.227 10.531,-0.995 3.888,-0.769 12.912,2.425 8.334,15.05 -3.975,10.96 -4.172,13.221 -3.625,17.102 0.773,5.524 -2.756,8.37 -5.982,5.422 -3.228,-2.95 -0.503,-13.66 -4.053,-14.133 -3.552,-0.47 -4.507,4.169 -4.372,11.256 0.1,5.619 -4.565,4.468 -6.026,2.061 -1.878,-3.099 -2.525,-13.158 -3.433,-15.92 -0.982,-2.977 -6.176,-14.689 -1.617,-18.789 z"
   id="path232" />
					<path
   style="fill:#ffffff"
   d="m 390.079,51.152 c 0,0 3.427,-3.707 10.243,-1.054 6.806,2.648 6.642,-0.227 10.531,-0.995 3.888,-0.769 12.912,2.425 8.334,15.05 -3.975,10.96 -4.172,13.221 -3.625,17.102 0.773,5.524 -2.756,8.37 -5.982,5.422 -3.228,-2.95 -0.503,-13.66 -4.053,-14.133 -3.552,-0.47 -4.507,4.169 -4.372,11.256 0.1,5.619 -4.565,4.468 -6.026,2.061 -1.878,-3.099 -2.525,-13.158 -3.433,-15.92 -0.982,-2.977 -6.176,-14.689 -1.617,-18.789 z"
   id="path233" />
					<path
   style="fill:#ebeff7"
   d="m 401.155,83.8 c -0.135,-7.087 0.82,-11.726 4.372,-11.256 3.55,0.473 0.825,11.183 4.053,14.133 3.227,2.948 6.756,0.102 5.982,-5.422 -0.547,-3.881 -0.35,-6.142 3.625,-17.102 2.754,-7.596 0.582,-11.774 -2.429,-13.733 2.77,2.842 4.591,8.125 0.479,13.191 -6.371,7.853 -1.649,12.546 -3.54,21.178 -0.479,2.205 -4.113,1.563 -3.419,-5.609 0.6,-6.215 -0.203,-8.576 -4.796,-8.693 -5.867,-0.148 -5.532,11.816 -6.16,15.034 -0.405,2.09 -2.666,1.209 -4.196,0.336 0,0.001 0.002,0.002 0.002,0.004 1.463,2.407 6.127,3.558 6.027,-2.061 z"
   id="path234" />
					<path
   style="fill:#ebeff7"
   d="m 414.994,52.191 c 1.748,1.347 3.576,3.77 0.478,7.986 -3.825,5.203 -2.448,8.559 -3.737,9 -1.284,0.441 -4.729,-4.689 -8.322,-2.953 -3.594,1.735 -5.714,6.581 -5.781,10.435 -0.067,3.854 -0.765,5.389 -2.591,3.768 -1.824,-1.621 0.127,-12.266 -2.255,-15.612 -2.381,-3.346 -4.659,-11.346 0.175,-13.242 3.959,-1.556 7.357,3.967 13.343,1.367 4.365,-1.895 6.882,-2.142 8.69,-0.749 z"
   id="path235" />
				</g>
				<path
   style="fill:#e887a0"
   d="m 422.346,69.376 c 0,0 2.081,1.034 2.095,2.302 0.047,4.62 0.994,15.284 8.763,14.534 0,0 4.108,-0.286 3.595,-5.973 -0.513,-5.685 1.629,-10.131 2.616,-7.79 0.986,2.342 -0.555,14.63 7.429,13.6 5.641,-0.728 4.841,-6.703 4.334,-9.837 -0.582,-3.603 -0.38,-7.313 1.919,-8.957 0,0 -4.261,-1.221 -5.216,-1.372 -6.827,-1.082 -25.535,3.493 -25.535,3.493 z"
   id="path236" />
				<g
   id="g240">
					<path
   style="fill:#ffffff"
   d="m 424.194,48.264 c 0,0 3.426,-3.706 10.243,-1.054 6.806,2.649 6.643,-0.228 10.531,-0.995 3.888,-0.768 12.911,2.427 8.333,15.051 -3.975,10.96 -4.172,13.221 -3.625,17.103 0.774,5.523 -2.756,8.37 -5.983,5.42 -3.225,-2.949 -0.501,-13.66 -4.052,-14.132 -3.552,-0.47 -4.506,4.169 -4.373,11.256 0.103,5.618 -4.563,4.467 -6.025,2.06 -1.88,-3.098 -2.525,-13.157 -3.433,-15.919 -0.981,-2.978 -6.175,-14.691 -1.616,-18.79 z"
   id="path237" />
					<path
   style="fill:#ffffff"
   d="m 424.194,48.264 c 0,0 3.426,-3.706 10.243,-1.054 6.806,2.649 6.643,-0.228 10.531,-0.995 3.888,-0.768 12.911,2.427 8.333,15.051 -3.975,10.96 -4.172,13.221 -3.625,17.103 0.774,5.523 -2.756,8.37 -5.983,5.42 -3.225,-2.949 -0.501,-13.66 -4.052,-14.132 -3.552,-0.47 -4.506,4.169 -4.373,11.256 0.103,5.618 -4.563,4.467 -6.025,2.06 -1.88,-3.098 -2.525,-13.157 -3.433,-15.919 -0.981,-2.978 -6.175,-14.691 -1.616,-18.79 z"
   id="path238" />
					<path
   style="fill:#ebeff7"
   d="m 435.269,80.912 c -0.133,-7.087 0.821,-11.726 4.373,-11.256 3.551,0.472 0.827,11.183 4.052,14.132 3.228,2.95 6.758,0.104 5.983,-5.42 -0.547,-3.882 -0.35,-6.143 3.625,-17.103 2.754,-7.597 0.582,-11.774 -2.428,-13.734 2.769,2.843 4.589,8.125 0.479,13.191 -6.371,7.854 -1.65,12.548 -3.539,21.179 -0.481,2.204 -4.113,1.563 -3.421,-5.61 0.6,-6.214 -0.202,-8.574 -4.796,-8.692 -5.867,-0.148 -5.531,11.816 -6.161,15.033 -0.405,2.092 -2.664,1.209 -4.193,0.337 0,0 0.001,0.002 0.001,0.003 1.462,2.407 6.127,3.558 6.025,-2.06 z"
   id="path239" />
					<path
   style="fill:#ebeff7"
   d="m 449.108,49.304 c 1.749,1.346 3.578,3.77 0.477,7.986 -3.824,5.202 -2.448,8.559 -3.735,9 -1.286,0.44 -4.732,-4.688 -8.323,-2.953 -3.594,1.734 -5.715,6.58 -5.782,10.435 -0.066,3.853 -0.764,5.388 -2.589,3.768 -1.825,-1.621 0.126,-12.265 -2.257,-15.611 -2.381,-3.346 -4.658,-11.345 0.176,-13.243 3.96,-1.555 7.355,3.968 13.342,1.367 4.367,-1.896 6.884,-2.142 8.691,-0.749 z"
   id="path240" />
				</g>
			</g>
			<g
   id="g263">
				<path
   style="fill:#f27851"
   d="m 443.58,63.501 c -0.432,-0.2 -1.858,-0.312 -2.603,0.813 -1.005,1.507 -1.35,5.18 -3.589,6.286 -2.247,1.104 -3.646,0.161 -4.664,-0.352 -1.018,-0.508 -1.186,-1.192 -1.818,-1.422 -0.621,-0.229 -0.866,0.526 0.571,1.737 0.693,0.577 3.746,3.845 6.662,3.029 3.82,-1.077 8.01,-8.919 5.441,-10.091 z"
   id="path241" />
				<g
   id="g248">
					<g
   id="g247">
						<g
   id="g245">
							<g
   id="g243">
								<g
   id="g242">
									<path
   style="fill:#f27851"
   d="m 437.013,89.153 c 0.56,2.789 2.04,6.435 2.116,8.351 0.011,0.304 -0.025,0.415 -1.018,0.654 -0.99,0.235 -0.088,0.854 1.596,0.92 1.684,0.065 1.176,-8.055 0.551,-11.884 -0.555,-3.346 -3.894,-1.276 -3.245,1.959 z"
   id="path242" />
								</g>
							</g>
							<g
   id="g244">
								<path
   style="fill:#6e86cc"
   d="m 440.473,98.309 c 0,0 -1.507,0.547 -2.361,-0.15 0,0 -1.666,0.139 -0.656,0.646 1.006,0.508 2.982,1.003 3.017,-0.496 z"
   id="path243" />
							</g>
						</g>
						<g
   id="g246">
							<path
   style="fill:#d12250"
   d="m 446.423,71.457 c 0,0 -8.664,6.083 -9.915,9.194 -1.118,2.799 1.479,14.072 1.479,14.072 0,0 1.826,0.726 3.506,-0.301 l -0.221,-8.767 7.314,-6.689 v 0 z"
   id="path245" />
						</g>
					</g>
				</g>
				<g
   id="g249">
					<path
   style="fill:#f27851"
   d="m 450.784,91.53 c 2.412,1.853 6.165,3.75 7.576,5.237 0.225,0.233 0.271,0.354 -0.358,1.245 -0.632,0.882 0.531,0.747 1.933,-0.384 1.402,-1.131 -4.72,-7.315 -7.921,-9.957 -2.798,-2.308 -4.033,1.713 -1.23,3.859 z"
   id="path248" />
					<path
   style="fill:#6e86cc"
   d="m 460.014,96.472 c 0,0 -0.831,1.498 -2.012,1.541 0,0 -1.242,1.281 -0.072,0.981 1.166,-0.301 3.104,-1.293 2.084,-2.522 z"
   id="path249" />
				</g>
				<path
   style="fill:#e62552"
   d="m 447.705,71.414 c 0,0 -4.495,10.242 -3.313,13.624 1.067,3.043 11.093,10.295 11.093,10.295 0,0 1.984,-0.7 2.61,-2.709 l -6.346,-6.907 c 0,0 2.538,-7.984 1.291,-10.944 -0.044,-0.101 0.175,0.704 0.175,0.704 z"
   id="path250" />
				<path
   style="fill:#fcdcda"
   d="m 452.905,74.616 c 0.005,-0.002 0.006,-0.005 0.009,-0.01 0,0 -0.004,0.008 -0.009,0.01 -0.046,-0.068 -0.085,-0.127 -0.131,-0.198 v 0 c -1.615,-2.687 -2.766,-4.348 -2.674,-7.527 0.136,-4.557 -3.223,-4.16 -5.273,-3.964 -2.053,0.195 -5.283,1.14 -5.192,4.797 0.063,2.636 1.004,6.031 2.664,8.223 1.885,2.484 12.88,1.46 10.606,-1.331 z"
   id="path251" />
				<path
   style="fill:#efbebd"
   d="m 452.774,74.418 c 0.046,0.071 0.085,0.13 0.131,0.198 0.005,-0.002 0.009,-0.01 0.009,-0.01 -0.003,0.005 -0.004,0.008 -0.009,0.01 1.758,2.159 -4.416,3.256 -8.179,2.498 -0.583,-0.872 2.241,-1.104 3.288,-1.952 2.412,-1.956 -6.186,-2.123 -4.706,-2.842 1.598,-0.768 3.979,-0.463 2.934,-2.806 -1.047,-2.345 -0.146,-5.146 0.845,-6.096 1.035,-0.993 2.765,0.171 2.953,2.329 0.048,0.343 0.075,0.717 0.061,1.143 -0.092,3.18 1.058,4.841 2.673,7.528 z"
   id="path252" />
				<g
   id="g256">
					<path
   style="fill:#e0623f"
   d="m 444.534,60.249 c 0,0 -0.454,1.732 0.826,2.372 1.313,0.654 -2.712,3.858 -2.775,2.908 -0.082,-1.227 0.4,-2.053 -0.446,-3.323 z"
   id="path253" />
					<path
   style="fill:#f27851"
   d="m 441.436,57.703 c -0.843,1.153 -1.152,5.591 0.092,6.325 0.545,0.316 2.383,-0.499 3.255,-2.588 0.36,-0.854 0.711,-2.402 -0.332,-3.699 -0.469,-0.589 -2.032,-1.381 -3.015,-0.038 z"
   id="path254" />
					<path
   style="fill:#062440"
   d="m 440.489,58.406 c -0.125,0.574 -0.038,0.684 1.606,0.627 1.641,-0.054 1.897,-0.21 1.807,0.203 -0.27,1.208 0.826,0.775 0.495,2.219 -0.334,1.444 0.852,0.386 1.238,-0.817 0.076,-0.245 0.546,-1.44 -0.538,-2.957 -1.268,-1.771 -4.133,-1.378 -4.608,0.725 z"
   id="path255" />
					<path
   style="fill:#062440"
   d="m 445.098,57.681 c 1.1,1.379 0.614,2.712 0.538,2.957 -0.286,0.894 -1.013,1.728 -1.232,1.471 -0.264,-0.31 0.734,-0.635 0.275,-1.519 -0.462,-0.886 0.126,-1.202 -0.177,-1.992 -0.299,-0.791 -0.882,-0.521 -2.735,-0.463 -0.756,0.024 -0.945,-0.232 -0.918,-0.547 0.933,-1.348 3.094,-1.359 4.249,0.093 z"
   id="path256" />
				</g>
				<g
   id="g262">
					<path
   style="fill:#494c7f"
   d="m 421.803,46.465 c 0,0 1.799,11.888 3.699,15.197 4.454,7.765 13.155,12.986 27.042,23.461 0.488,0.368 1.952,-0.876 1.942,-1.488 -0.14,-8.914 -21.823,-16.244 -27.228,-23.032 -1.763,-2.215 -2.528,-8.229 -3.24,-10.45 -1.291,-4.034 -2.215,-3.688 -2.215,-3.688 z"
   id="path257" />
					<path
   style="fill:#3f4470"
   d="m 452.544,85.123 c 0.161,0.12 0.428,0.059 0.71,-0.088 -0.053,-3.814 -7.651,-8.187 -10.262,-10.303 -3.482,-2.823 -12.263,-9.562 -15.197,-11.851 -2.935,-2.289 -3.824,-9.362 -3.824,-9.362 l -1.162,-1.354 c 0.699,3.537 1.682,7.734 2.693,9.497 4.454,7.765 13.155,12.986 27.042,23.461 z"
   id="path258" />
					<g
   id="g261">
						<path
   style="fill:#3f4470"
   d="m 424.98,49.517 c 0.688,2.08 0.569,3.99 -0.268,4.267 -0.836,0.276 -2.072,-1.185 -2.76,-3.265 -0.689,-2.08 -0.567,-3.99 0.269,-4.267 0.838,-0.276 2.072,1.185 2.759,3.265 z"
   id="path259" />
						
							<rect
   x="414.978"
   y="47.418999"
   transform="matrix(0.9494,-0.314,0.314,0.9494,5.0777,134.2899)"
   style="fill:#3f4470"
   width="8.71"
   height="7.9320002"
   id="rect259" />
						<path
   style="fill:#494c7f"
   d="m 416.712,52.252 c 0.689,2.08 0.567,3.99 -0.268,4.267 -0.836,0.276 -2.071,-1.185 -2.759,-3.265 -0.689,-2.08 -0.568,-3.99 0.268,-4.267 0.835,-0.277 2.07,1.185 2.759,3.265 z"
   id="path260" />
						<path
   style="fill:#3f4470"
   d="m 415.254,52.5 c 0.233,0.706 0.192,1.354 -0.092,1.447 -0.283,0.095 -0.703,-0.401 -0.935,-1.107 -0.233,-0.706 -0.192,-1.354 0.091,-1.448 0.284,-0.094 0.702,0.402 0.936,1.108 z"
   id="path261" />
						<polygon
   style="fill:#3f4470"
   points="414.352,51.499 410.086,54.209 415.127,53.841 "
   id="polygon261" />
					</g>
				</g>
				<path
   style="fill:#f27851"
   d="m 447.839,63.139 c -0.483,0.039 -1.333,0.773 -1.441,2.138 -0.153,1.825 0.881,5.108 -0.562,7.184 -1.446,2.081 -3.148,1.932 -4.298,1.98 -1.157,0.048 -1.639,-0.475 -2.305,-0.372 -0.668,0.102 -0.511,0.894 1.355,1.26 0.895,0.172 5.203,1.567 7.382,-0.589 2.855,-2.823 2.714,-11.827 -0.131,-11.601 z"
   id="path262" />
			</g>
		</g>
</svg>
