<?xml version="1.0" encoding="UTF-8" standalone="no"?>
<!-- Generator: Adobe Illustrator 27.5.0, SVG Export Plug-In . SVG Version: 6.00 Build 0)  -->

<svg
   version="1.1"
   id="Layer_1"
   x="0px"
   y="0px"
   viewBox="0 0 106.60778 75.152992"
   xml:space="preserve"
   sodipodi:docname="26764315_2002.i402.001.P.m004.c25.Dental health flat icons.svg"
   width="106.60778"
   height="75.152992"
   xmlns:inkscape="http://www.inkscape.org/namespaces/inkscape"
   xmlns:sodipodi="http://sodipodi.sourceforge.net/DTD/sodipodi-0.dtd"
   xmlns="http://www.w3.org/2000/svg"
   xmlns:svg="http://www.w3.org/2000/svg"><defs
   id="defs1251" /><sodipodi:namedview
   id="namedview1251"
   pagecolor="#505050"
   bordercolor="#ffffff"
   borderopacity="1"
   inkscape:showpageshadow="0"
   inkscape:pageopacity="0"
   inkscape:pagecheckerboard="1"
   inkscape:deskcolor="#505050" />
<g
   id="g88"
   inkscape:export-filename="g88.svg"
   inkscape:export-xdpi="450.24857"
   inkscape:export-ydpi="450.24857"
   transform="translate(-23.978859,-27.675011)">
			<path
   style="fill:#c9d6f2"
   d="M 85.176,99.114 32.017,99.412 C 26.558,77.641 42.845,70.883 41.776,56.15 39.229,21.082 93.665,21.082 103.474,41.633 c 7.485,15.684 3.525,14.464 16.45,23.795 17.85,12.89 6.897,28.326 0.295,34.102 z"
   id="path1" />
			<path
   style="fill:#acbfe2"
   d="m 122.124,98.381 c 0,1.944 -3.694,4.447 -39.554,4.447 -35.86,0 -50.533,-1.525 -50.533,-3.47 0,-1.946 14.674,-3.572 50.533,-3.572 35.859,0 39.554,0.648 39.554,2.595 z"
   id="path2" />
			<g
   id="g17">
				<g
   id="g3">
					<path
   style="fill:#7585f8"
   d="M 47.483,99.277 48.26,98.229 C 31.602,85.895 31.062,67.598 31.057,67.411 l -1.306,0.026 c 0.008,0.187 0.541,19.111 17.732,31.84 z"
   id="path3" />
				</g>
				<g
   id="g4">
					<path
   style="fill:#7585f8"
   d="m 30.634,68.424 c 0,0 0.783,-7.363 -3.321,-6.998 -1.748,0.155 -2.568,3.499 3.321,6.998 z"
   id="path4" />
				</g>
				<g
   id="g5">
					<path
   style="fill:#7585f8"
   d="m 30.979,71.144 c 0,0 -4.257,-6.616 -6.708,-3.404 -1.042,1.371 0.592,4.712 6.708,3.404 z"
   id="path5" />
				</g>
				<g
   id="g6">
					<path
   style="fill:#7585f8"
   d="m 30.63,71.789 c 0,0 -0.8,-7.562 3.3,-6.143 1.746,0.602 2.577,4.166 -3.3,6.143 z"
   id="path6" />
				</g>
				<g
   id="g7">
					<path
   style="fill:#7585f8"
   d="m 32.554,77.961 c 0,0 -1.152,-7.566 2.991,-6.347 1.761,0.519 2.75,4.055 -2.991,6.347 z"
   id="path7" />
				</g>
				<g
   id="g8">
					<path
   style="fill:#7585f8"
   d="m 34.483,82.905 c 0,0 -1.123,-7.561 3.014,-6.33 1.766,0.521 2.743,4.061 -3.014,6.33 z"
   id="path8" />
				</g>
				<g
   id="g9">
					<path
   style="fill:#7585f8"
   d="m 37.841,88.522 c 0,0 -2.382,-7.396 1.808,-6.932 1.786,0.196 3.332,3.569 -1.808,6.932 z"
   id="path9" />
				</g>
				<g
   id="g10">
					<path
   style="fill:#7585f8"
   d="m 41.117,92.675 c 0,0 -2.184,-7.442 2.013,-6.85 1.779,0.25 3.239,3.657 -2.013,6.85 z"
   id="path10" />
				</g>
				<g
   id="g11">
					<path
   style="fill:#7585f8"
   d="m 46.109,97.369 c 0,0 -4,-6.774 0.037,-7.41 1.721,-0.269 3.982,2.697 -0.037,7.41 z"
   id="path11" />
				</g>
				<g
   id="g12">
					<path
   style="fill:#7585f8"
   d="m 32.034,76.365 c 0,0 -4.264,-6.62 -6.714,-3.402 -1.039,1.369 0.593,4.703 6.714,3.402 z"
   id="path12" />
				</g>
				<g
   id="g13">
					<path
   style="fill:#7585f8"
   d="m 33.973,81.493 c 0,0 -4.269,-6.617 -6.716,-3.402 -1.041,1.369 0.596,4.707 6.716,3.402 z"
   id="path13" />
				</g>
				<g
   id="g14">
					<path
   style="fill:#7585f8"
   d="m 36.578,86.193 c 0,0 -5.478,-5.609 -7.087,-1.8 -0.687,1.622 1.593,4.578 7.087,1.8 z"
   id="path14" />
				</g>
				<g
   id="g15">
					<path
   style="fill:#7585f8"
   d="m 39.994,91.097 c 0,0 -5.944,-5.049 -7.138,-1.03 -0.503,1.71 2.026,4.435 7.138,1.03 z"
   id="path15" />
				</g>
				<g
   id="g16">
					<path
   style="fill:#7585f8"
   d="m 44.076,95.405 c 0,0 -6.47,-4.181 -7.075,0.054 -0.251,1.803 2.586,4.16 7.075,-0.054 z"
   id="path16" />
				</g>
			</g>
			<g
   id="g29">
				<g
   id="g28">
					<g
   id="g18">
						<path
   style="fill:#b5c2e6"
   d="m 56.36,83.611 -0.673,0.876 C 55.5,84.337 51.053,80.757 47.228,74.781 42.138,66.824 40.677,58.442 43.015,50.533 l 1.01,0.269 c -5.426,18.37 12.159,32.666 12.335,32.809 z"
   id="path17" />
					</g>
					<g
   id="g19">
						<path
   style="fill:#b5c2e6"
   d="m 43.239,51.834 c 0,0 -3.966,-5.194 1.155,-10.604 0.001,0 2.915,5.922 -1.155,10.604 z"
   id="path18" />
					</g>
					<g
   id="g20">
						<path
   style="fill:#b5c2e6"
   d="m 42.511,57.848 c 0,0 -8.25,-0.901 -7.445,-10.311 -0.001,0 4.457,0.354 7.445,10.311 z"
   id="path19" />
					</g>
					<g
   id="g21">
						<path
   style="fill:#b5c2e6"
   d="m 42.252,57.767 c 0,0 8.338,-0.649 8.66,-10.062 0,0 -4.488,0.213 -8.66,10.062 z"
   id="path20" />
					</g>
					<g
   id="g22">
						<path
   style="fill:#b5c2e6"
   d="m 43.468,65.563 c 0,0 -8.341,-0.015 -8.478,-9.412 0,-0.001 4.489,-0.128 8.478,9.412 z"
   id="path21" />
					</g>
					<g
   id="g23">
						<path
   style="fill:#b5c2e6"
   d="m 43.199,65.508 c 0,0 8.272,-1.525 7.649,-10.882 10e-4,0 -4.466,0.69 -7.649,10.882 z"
   id="path22" />
					</g>
					<g
   id="g24">
						<path
   style="fill:#b5c2e6"
   d="m 47.001,73.512 c 0,0 -8.287,1.454 -9.983,-7.701 0,0 4.438,-0.922 9.983,7.701 z"
   id="path23" />
					</g>
					<g
   id="g25">
						<path
   style="fill:#b5c2e6"
   d="m 46.723,73.503 c 0,0 7.963,-2.956 5.796,-11.984 0,0 -4.326,1.463 -5.796,11.984 z"
   id="path24" />
					</g>
					<g
   id="g26">
						<path
   style="fill:#b5c2e6"
   d="m 51.597,79.594 c 0,0 -7.729,3.617 -11.707,-4.659 0,0 4.107,-2.068 11.707,4.659 z"
   id="path25" />
					</g>
					<g
   id="g27">
						<path
   style="fill:#b5c2e6"
   d="m 51.328,79.663 c 0,0 7.038,-4.957 2.633,-12.979 0,0.001 -3.857,2.554 -2.633,12.979 z"
   id="path26" />
					</g>
				</g>
			</g>
			<g
   id="g30">
				<path
   style="fill:#b5c2e6"
   d="m 107.278,97.478 c 0,0 -2.19,-28.999 22.269,-34.194 0,-10e-4 6.151,24.962 -22.269,34.194 z"
   id="path29" />
				<path
   style="fill:#a1b3db"
   d="m 129.547,63.283 c 0,0 -13.434,26.904 -22.269,34.194 0,10e-4 29.104,-7.037 22.269,-34.194 z"
   id="path30" />
			</g>
			<g
   id="g53">
				<g
   id="g31">
					<path
   style="fill:#7585f8"
   d="M 110.417,74.884 C 110.37,52.192 97.972,39.37 97.843,39.242 L 97.3,39.781 c 0.123,0.125 12.305,12.739 12.351,35.104 z"
   id="path31" />
				</g>
				<g
   id="g32">
					
						<rect
   x="100.56"
   y="43.617001"
   transform="matrix(0.5122,-0.8589,0.8589,0.5122,9.493,109.2752)"
   style="fill:#7585f8"
   width="0.76599997"
   height="5.3280001"
   id="rect31" />
				</g>
				<g
   id="g33">
					<polygon
   style="fill:#7585f8"
   points="100.594,50.188 100.34,50.913 105.383,52.634 105.634,51.904 "
   id="polygon32" />
				</g>
				<g
   id="g34">
					<polygon
   style="fill:#7585f8"
   points="102.679,55.748 102.432,56.47 107.475,58.19 107.726,57.464 "
   id="polygon33" />
				</g>
				<g
   id="g35">
					
						<rect
   x="105.96"
   y="59.652"
   transform="matrix(0.3224,-0.9466,0.9466,0.3224,13.0696,142.8913)"
   style="fill:#7585f8"
   width="0.76599997"
   height="5.329"
   id="rect34" />
				</g>
				<g
   id="g36">
					
						<rect
   x="107.015"
   y="65.184998"
   transform="matrix(0.32,-0.9474,0.9474,0.32,8.7489,147.8833)"
   style="fill:#7585f8"
   width="0.76499999"
   height="5.3239999"
   id="rect35" />
				</g>
				<g
   id="g37">
					<polygon
   style="fill:#7585f8"
   points="101.733,41.224 102.198,46.529 102.963,46.465 102.493,41.154 "
   id="polygon36" />
				</g>
				<g
   id="g38">
					<polygon
   style="fill:#7585f8"
   points="105.339,46 104.786,51.305 105.552,51.383 106.102,46.081 "
   id="polygon37" />
				</g>
				<g
   id="g39">
					
						<rect
   x="105.688"
   y="54.549999"
   transform="matrix(0.355,-0.9349,0.9349,0.355,18.535,136.7314)"
   style="fill:#7585f8"
   width="5.3280001"
   height="0.76700002"
   id="rect38" />
				</g>
				<g
   id="g40">
					<polygon
   style="fill:#7585f8"
   points="110.906,58.995 108.759,63.873 109.458,64.184 111.605,59.301 "
   id="polygon39" />
				</g>
				<g
   id="g41">
					
						<rect
   x="108.44"
   y="68.513"
   transform="matrix(0.4846,-0.8747,0.8747,0.4846,-3.0041,132.6913)"
   style="fill:#7585f8"
   width="5.329"
   height="0.76499999"
   id="rect40" />
				</g>
				<g
   id="g42">
					<path
   style="fill:#7585f8"
   d="m 95.576,39.395 c 0.324,0.974 1.379,1.498 2.349,1.173 0.972,-0.321 1.499,-1.377 1.173,-2.347 -0.325,-0.972 -1.378,-1.496 -2.349,-1.175 -0.972,0.324 -1.496,1.376 -1.173,2.349 z"
   id="path41" />
				</g>
				<g
   id="g43">
					<path
   style="fill:#7585f8"
   d="m 95.844,45.399 c 0.39,0.946 1.475,1.401 2.421,1.013 0.952,-0.387 1.404,-1.472 1.015,-2.417 -0.389,-0.949 -1.472,-1.405 -2.419,-1.018 -0.95,0.39 -1.405,1.473 -1.017,2.422 z"
   id="path42" />
				</g>
				<g
   id="g44">
					<path
   style="fill:#7585f8"
   d="m 97.622,50.463 c 0.054,1.027 0.932,1.811 1.959,1.748 1.021,-0.057 1.802,-0.933 1.744,-1.959 -0.063,-1.023 -0.937,-1.803 -1.961,-1.743 -1.024,0.054 -1.802,0.934 -1.742,1.954 z"
   id="path43" />
				</g>
				<g
   id="g45">
					<path
   style="fill:#7585f8"
   d="m 99.71,56.021 c 0.061,1.025 0.938,1.808 1.96,1.749 1.025,-0.06 1.806,-0.939 1.747,-1.959 -0.057,-1.024 -0.935,-1.809 -1.958,-1.748 -1.023,0.061 -1.811,0.94 -1.749,1.958 z"
   id="path44" />
				</g>
				<g
   id="g46">
					<path
   style="fill:#7585f8"
   d="m 100.974,61.37 c 0.066,1.026 0.937,1.81 1.96,1.748 1.022,-0.057 1.808,-0.934 1.75,-1.956 -0.063,-1.026 -0.933,-1.808 -1.96,-1.752 -1.029,0.063 -1.806,0.941 -1.75,1.96 z"
   id="path45" />
				</g>
				<g
   id="g47">
					<path
   style="fill:#7585f8"
   d="m 102.029,66.905 c 0.059,1.024 0.935,1.804 1.959,1.746 1.025,-0.06 1.806,-0.938 1.743,-1.961 -0.059,-1.024 -0.931,-1.804 -1.954,-1.748 -1.025,0.06 -1.806,0.938 -1.748,1.963 z"
   id="path46" />
				</g>
				<g
   id="g48">
					<path
   style="fill:#7585f8"
   d="m 103.771,38.869 c 0.682,0.759 0.618,1.935 -0.139,2.618 -0.764,0.687 -1.94,0.626 -2.623,-0.138 -0.685,-0.76 -0.623,-1.937 0.139,-2.62 0.762,-0.683 1.931,-0.619 2.623,0.14 z"
   id="path47" />
				</g>
				<g
   id="g49">
					<path
   style="fill:#7585f8"
   d="m 107.786,44.076 c 0.527,0.879 0.242,2.018 -0.635,2.546 -0.876,0.53 -2.018,0.243 -2.547,-0.633 -0.525,-0.88 -0.245,-2.018 0.637,-2.546 0.877,-0.529 2.016,-0.245 2.545,0.633 z"
   id="path48" />
				</g>
				<g
   id="g50">
					<path
   style="fill:#7585f8"
   d="m 111.8,51.078 c 0.287,0.984 -0.281,2.012 -1.265,2.296 -0.986,0.283 -2.011,-0.283 -2.298,-1.265 -0.286,-0.984 0.281,-2.017 1.269,-2.301 0.983,-0.287 2.01,0.283 2.294,1.27 z"
   id="path49" />
				</g>
				<g
   id="g51">
					<path
   style="fill:#7585f8"
   d="m 113.821,57.909 c 0.233,0.999 -0.381,2 -1.382,2.233 -0.996,0.234 -1.999,-0.384 -2.231,-1.383 -0.237,-0.995 0.384,-1.995 1.386,-2.231 0.996,-0.234 1.994,0.384 2.227,1.381 z"
   id="path50" />
				</g>
				<g
   id="g52">
					<path
   style="fill:#7585f8"
   d="m 115.063,65.564 c 0.143,1.017 -0.564,1.952 -1.582,2.1 -1.014,0.142 -1.955,-0.57 -2.094,-1.583 -0.144,-1.017 0.564,-1.951 1.581,-2.095 1.014,-0.14 1.953,0.566 2.095,1.578 z"
   id="path51" />
				</g>
			</g>
			<g
   id="g63">
				<path
   style="fill:#f5a4b7"
   d="m 37.132,81.987 c 0,0 -3.264,18.653 11.537,17.581 14.804,-1.071 57.478,3.869 62.179,-2.977 4.702,-6.846 2.273,-21.646 1.731,-22.949 -1.121,-2.688 -2.604,-9.821 -23.894,-5.342 -21.292,4.479 -39.718,4.182 -47.262,5.753 -4.972,1.037 -4.291,7.934 -4.291,7.934 z"
   id="path53" />
				<path
   style="fill:#f5a4b7"
   d="m 37.132,81.987 c 0,0 -0.307,19.69 11.957,18.734 14.797,-1.153 57.058,2.716 61.759,-4.13 4.702,-6.846 2.273,-21.646 1.731,-22.949 -1.121,-2.688 -2.604,-9.821 -23.894,-5.342 -21.292,4.479 -39.718,4.182 -47.262,5.753 -4.972,1.037 -4.291,7.934 -4.291,7.934 z"
   id="path54" />
				<path
   style="fill:#e887a0"
   d="m 48.424,73.172 c 0,0 3.637,0.946 3.655,2.888 0.068,7.088 1.422,23.446 12.515,22.296 0,0 5.865,-0.439 5.133,-9.16 -0.733,-8.722 2.326,-15.543 3.734,-11.95 1.409,3.592 -0.789,22.44 10.609,20.86 8.055,-1.116 6.913,-10.283 6.19,-15.09 -0.832,-5.526 0.383,-13.124 3.669,-15.647 z"
   id="path55" />
				<g
   id="g62">
					<path
   style="fill:#ffffff"
   d="m 51.727,40.146 c 0,0 4.893,-5.686 14.627,-1.617 9.72,4.064 9.486,-0.348 15.039,-1.525 5.554,-1.179 18.438,3.722 11.9,23.086 -5.675,16.811 -5.957,20.279 -5.178,26.233 1.108,8.473 -3.934,12.839 -8.543,8.315 -4.606,-4.523 -0.714,-20.953 -5.784,-21.677 -5.073,-0.722 -6.435,6.395 -6.246,17.265 0.146,8.619 -6.516,6.854 -8.604,3.159 C 56.255,88.634 55.333,73.202 54.035,68.967 52.634,64.401 45.218,46.435 51.727,40.146 Z"
   id="path56" />
					<path
   style="fill:#ffffff"
   d="m 51.727,40.146 c 0,0 4.893,-5.686 14.627,-1.617 9.72,4.064 9.486,-0.348 15.039,-1.525 5.554,-1.179 18.438,3.722 11.9,23.086 -5.675,16.811 -5.957,20.279 -5.178,26.233 1.108,8.473 -3.934,12.839 -8.543,8.315 -4.606,-4.523 -0.714,-20.953 -5.784,-21.677 -5.073,-0.722 -6.435,6.395 -6.246,17.265 0.146,8.619 -6.516,6.854 -8.604,3.159 C 56.255,88.634 55.333,73.202 54.035,68.967 52.634,64.401 45.218,46.435 51.727,40.146 Z"
   id="path57" />
					<path
   style="fill:#ebeff7"
   d="m 67.542,90.226 c -0.188,-10.87 1.173,-17.986 6.246,-17.265 5.07,0.724 1.179,17.153 5.784,21.677 4.608,4.524 9.65,0.158 8.543,-8.315 -0.779,-5.954 -0.497,-9.423 5.178,-26.233 3.935,-11.652 0.833,-18.062 -3.469,-21.066 3.956,4.359 6.557,12.462 0.686,20.234 -9.1,12.048 -2.355,19.245 -5.054,32.486 -0.687,3.381 -5.874,2.396 -4.884,-8.606 0.858,-9.533 -0.29,-13.153 -6.848,-13.333 -8.381,-0.228 -7.9,18.125 -8.797,23.06 -0.58,3.207 -3.807,1.855 -5.992,0.515 0,0.002 0.002,0.004 0.002,0.005 2.089,3.694 8.751,5.46 8.605,-3.159 z"
   id="path58" />
					<path
   style="fill:#ebeff7"
   d="m 87.308,41.741 c 2.494,2.064 5.106,5.781 0.679,12.251 -5.461,7.979 -3.496,13.129 -5.333,13.805 -1.836,0.675 -6.756,-7.192 -11.887,-4.53 -5.131,2.662 -8.159,10.095 -8.256,16.007 -0.095,5.91 -1.093,8.265 -3.698,5.779 -2.606,-2.485 0.18,-18.813 -3.222,-23.946 -3.401,-5.133 -6.652,-17.403 0.25,-20.314 5.654,-2.386 10.506,6.086 19.053,2.098 6.235,-2.909 9.83,-3.287 12.414,-1.15 z"
   id="path59" />
					<g
   id="g61">
						<path
   style="fill:#7b8c93"
   d="m 57.687,40.194 c 0.624,-0.333 2.822,-1.255 5.5,-0.346 3.58,1.217 6.378,3.331 11.021,2.31 4.645,-1.022 6.874,-3.018 8.888,-1.934 2.018,1.085 -3.007,3.017 -5.794,4.662 -2.103,1.242 -3.043,2.34 -2.911,4.078 0.114,1.453 -0.344,2.232 6.756,5.421 1.745,0.783 -6.023,-0.637 -7.394,-1.971 -0.878,-0.855 -0.984,-3.545 -1.386,-4.702 -0.458,-1.313 -1.544,-2.581 -4.949,-2.53 -3.407,0.052 -14.698,-2.344 -9.731,-4.988 z"
   id="path60" />
						<path
   style="fill:#5c6a6d"
   d="m 72.367,47.713 c 0.401,1.157 0.508,3.847 1.386,4.702 1.37,1.334 9.139,2.754 7.394,1.971 -7.1,-3.188 -6.642,-3.968 -6.756,-5.421 -0.132,-1.738 0.809,-2.836 2.911,-4.078 1.925,-1.137 4.916,-2.41 5.919,-3.446 -0.499,-1.324 -4.465,0.669 -9.037,1.936 -5.686,1.575 -10.429,-2.206 -13.737,-2.546 -2.158,-0.223 -2.795,1.065 -2.977,1.988 2.28,1.412 7.751,2.397 9.948,2.364 3.405,-0.051 4.491,1.217 4.949,2.53 z"
   id="path61" />
					</g>
				</g>
			</g>
			<g
   id="g87">
				<path
   style="fill:#5c6a6d"
   d="m 61.066,43.143 c 0,0 -0.178,1.528 1.037,2.313 1.217,0.786 1.95,1.578 1.921,2.381 -0.028,0.805 0.218,1.282 0.218,1.282 0,0 0.742,-1.438 0.374,-2.044 -0.371,-0.605 -2.517,-2.612 -1.318,-3.052 0.828,-0.302 -2.232,-0.88 -2.232,-0.88 z"
   id="path63" />
				<path
   style="fill:#f27851"
   d="m 97.279,62.282 c -0.474,-0.219 -2.038,-0.341 -2.855,0.891 -1.101,1.653 -1.479,5.68 -3.934,6.893 -2.465,1.21 -3.997,0.176 -5.115,-0.386 -1.116,-0.558 -1.301,-1.308 -1.993,-1.559 -0.681,-0.252 -0.949,0.577 0.627,1.904 0.759,0.633 4.107,4.215 7.304,3.321 4.187,-1.181 8.784,-9.779 5.966,-11.064 z"
   id="path64" />
				<g
   id="g71">
					<g
   id="g70">
						<g
   id="g68">
							<g
   id="g66">
								<g
   id="g65">
									<path
   style="fill:#f27851"
   d="m 90.078,90.41 c 0.614,3.058 2.236,7.055 2.32,9.155 0.012,0.334 -0.029,0.455 -1.117,0.719 -1.085,0.257 -0.095,0.937 1.751,1.008 1.845,0.071 1.288,-8.831 0.603,-13.03 -0.608,-3.67 -4.268,-1.4 -3.557,2.148 z"
   id="path65" />
								</g>
							</g>
							<g
   id="g67">
								<path
   style="fill:#6e86cc"
   d="m 93.872,100.448 c 0,0 -1.652,0.6 -2.591,-0.164 0,0 -1.825,0.151 -0.719,0.708 1.105,0.557 3.272,1.1 3.31,-0.544 z"
   id="path66" />
							</g>
						</g>
						<g
   id="g69">
							<path
   style="fill:#d12250"
   d="m 100.395,71.006 c 0,0 -9.5,6.671 -10.87,10.082 -1.227,3.068 1.621,15.43 1.621,15.43 0,0 2.002,0.796 3.844,-0.329 l -0.242,-9.613 8.018,-7.334 v 0 z"
   id="path68" />
						</g>
					</g>
				</g>
				<g
   id="g72">
					<path
   style="fill:#f27851"
   d="m 105.178,93.017 c 2.645,2.03 6.761,4.111 8.308,5.742 0.246,0.256 0.298,0.389 -0.393,1.365 -0.694,0.967 0.581,0.819 2.118,-0.421 1.538,-1.24 -5.176,-8.021 -8.685,-10.917 -3.068,-2.532 -4.421,1.876 -1.348,4.231 z"
   id="path71" />
					<path
   style="fill:#6e86cc"
   d="m 115.297,98.434 c 0,0 -0.91,1.643 -2.204,1.69 0,0 -1.362,1.405 -0.081,1.076 1.28,-0.33 3.405,-1.418 2.285,-2.766 z"
   id="path72" />
				</g>
				<path
   style="fill:#e62552"
   d="m 101.801,70.959 c 0,0 -4.928,11.23 -3.631,14.938 1.17,3.336 12.162,11.288 12.162,11.288 0,0 2.177,-0.768 2.863,-2.971 l -6.958,-7.573 c 0,0 2.783,-8.755 1.415,-12 -0.049,-0.11 0.192,0.772 0.192,0.772 z"
   id="path73" />
				<path
   style="fill:#fcdcda"
   d="m 107.504,74.47 c 0.005,-0.002 0.007,-0.005 0.01,-0.011 0,0 -0.005,0.009 -0.01,0.011 -0.051,-0.075 -0.094,-0.14 -0.145,-0.218 v 0 c -1.771,-2.944 -3.031,-4.767 -2.931,-8.253 0.147,-4.996 -3.534,-4.562 -5.782,-4.346 -2.251,0.214 -5.793,1.249 -5.693,5.259 0.069,2.891 1.101,6.613 2.92,9.016 2.066,2.724 14.123,1.602 11.631,-1.458 z"
   id="path74" />
				<path
   style="fill:#efbebd"
   d="m 107.359,74.252 c 0.051,0.078 0.094,0.143 0.145,0.218 0.005,-0.002 0.01,-0.011 0.01,-0.011 -0.003,0.006 -0.005,0.009 -0.01,0.011 1.928,2.367 -4.842,3.57 -8.969,2.739 -0.639,-0.956 2.458,-1.211 3.606,-2.14 2.645,-2.146 -6.784,-2.328 -5.16,-3.116 1.752,-0.843 4.363,-0.508 3.217,-3.077 -1.149,-2.57 -0.16,-5.643 0.926,-6.684 1.135,-1.089 3.03,0.188 3.238,2.554 0.052,0.376 0.081,0.786 0.066,1.253 -0.1,3.486 1.161,5.309 2.931,8.253 z"
   id="path75" />
				<g
   id="g79">
					<path
   style="fill:#e0623f"
   d="m 98.324,58.717 c 0,0 -0.497,1.899 0.907,2.601 1.438,0.718 -2.974,4.23 -3.043,3.189 -0.09,-1.345 0.438,-2.252 -0.489,-3.644 z"
   id="path76" />
					<path
   style="fill:#f27851"
   d="m 94.928,55.925 c -0.923,1.265 -1.263,6.131 0.102,6.937 0.598,0.345 2.612,-0.548 3.568,-2.839 0.396,-0.937 0.78,-2.634 -0.363,-4.056 -0.516,-0.646 -2.229,-1.514 -3.307,-0.042 z"
   id="path77" />
					<path
   style="fill:#062440"
   d="m 93.89,56.696 c -0.137,0.629 -0.041,0.749 1.762,0.687 1.799,-0.058 2.079,-0.229 1.979,0.224 -0.294,1.324 0.906,0.851 0.543,2.433 -0.365,1.584 0.936,0.423 1.359,-0.896 0.083,-0.269 0.599,-1.579 -0.59,-3.242 -1.392,-1.943 -4.533,-1.512 -5.053,0.794 z"
   id="path78" />
					<path
   style="fill:#062440"
   d="m 98.943,55.9 c 1.205,1.512 0.673,2.974 0.59,3.242 -0.313,0.979 -1.11,1.895 -1.352,1.612 -0.289,-0.339 0.805,-0.695 0.301,-1.666 -0.505,-0.971 0.139,-1.318 -0.193,-2.185 -0.327,-0.866 -0.966,-0.571 -2.999,-0.507 -0.828,0.027 -1.036,-0.255 -1.006,-0.6 1.024,-1.475 3.393,-1.486 4.659,0.104 z"
   id="path79" />
				</g>
				<path
   style="fill:#494c7f"
   d="m 60.401,41.323 c 0,0 3.524,14.106 6.188,17.874 6.252,8.838 17.322,14.131 35.237,25.156 0.631,0.388 2.25,-1.278 2.168,-2.014 C 102.807,71.623 75.864,65.275 68.584,57.719 66.209,55.255 64.6,48.1 63.489,45.508 61.474,40.802 60.401,41.323 60.401,41.323 Z"
   id="path80" />
				<path
   style="fill:#3f4470"
   d="m 101.827,84.354 c 0.206,0.127 0.521,0.021 0.844,-0.187 C 102.173,79.58 92.525,75.185 89.141,72.935 84.626,69.934 73.286,62.825 69.492,60.403 65.696,57.982 63.817,49.569 63.817,49.569 L 62.264,48.07 c 1.245,4.18 2.908,9.121 4.326,11.128 6.252,8.837 17.322,14.13 35.237,25.156 z"
   id="path81" />
				<path
   style="fill:#494c7f"
   d="m 68.237,40.031 c 0.817,5.176 -1.136,9.785 -4.366,10.296 -3.227,0.51 -6.508,-3.272 -7.325,-8.448 -0.818,-5.175 1.134,-9.784 4.363,-10.295 3.228,-0.51 6.509,3.272 7.328,8.447 z"
   id="path82" />
				<path
   style="fill:#c4bef8"
   d="m 67.185,40.286 c 0.667,4.232 -0.928,8 -3.568,8.417 -2.64,0.417 -5.321,-2.674 -5.991,-6.906 -0.67,-4.232 0.949,-8.528 3.588,-8.944 2.639,-0.418 5.302,3.202 5.971,7.433 z"
   id="path83" />
				<path
   style="fill:#f27851"
   d="m 101.947,61.885 c -0.528,0.043 -1.46,0.849 -1.58,2.345 -0.167,2.001 0.967,5.602 -0.615,7.876 -1.586,2.282 -3.451,2.118 -4.712,2.172 -1.269,0.053 -1.797,-0.521 -2.527,-0.408 -0.732,0.111 -0.56,0.98 1.485,1.382 0.981,0.188 5.705,1.718 8.095,-0.646 3.13,-3.096 2.975,-12.968 -0.146,-12.721 z"
   id="path84" />
				<path
   style="fill:#e2e1ff"
   d="m 65.404,35.49 -4.988,12.049 c 0.322,0.292 0.657,0.534 1.001,0.724 L 65.759,36.08 c -0.113,-0.203 -0.232,-0.4 -0.355,-0.59 z"
   id="path85" />
				<path
   style="fill:#e2e1ff"
   d="M 67.162,40.164 63.628,48.7 c 2.633,-0.427 4.224,-4.188 3.557,-8.414 -0.008,-0.041 -0.018,-0.081 -0.023,-0.122 z"
   id="path86" />
				<path
   style="fill:#e2e1ff"
   d="m 61.213,32.853 c -2.639,0.416 -4.258,4.712 -3.588,8.944 0.212,1.349 0.632,2.579 1.188,3.619 l 4.339,-12.18 c -0.627,-0.341 -1.285,-0.487 -1.939,-0.383 z"
   id="path87" />
			</g>
		</g>
</svg>
