<?xml version="1.0" encoding="UTF-8" standalone="no"?>
<!-- Generator: Adobe Illustrator 27.5.0, SVG Export Plug-In . SVG Version: 6.00 Build 0)  -->

<svg
   version="1.1"
   id="Layer_1"
   x="0px"
   y="0px"
   viewBox="0 0 110.37519 64.882141"
   xml:space="preserve"
   sodipodi:docname="26764315_2002.i402.001.P.m004.c25.Dental health flat icons.svg"
   inkscape:export-filename="g161.svg"
   inkscape:export-xdpi="450.24857"
   inkscape:export-ydpi="450.24857"
   width="110.37519"
   height="64.882141"
   xmlns:inkscape="http://www.inkscape.org/namespaces/inkscape"
   xmlns:sodipodi="http://sodipodi.sourceforge.net/DTD/sodipodi-0.dtd"
   xmlns="http://www.w3.org/2000/svg"
   xmlns:svg="http://www.w3.org/2000/svg"><defs
   id="defs1251" /><sodipodi:namedview
   id="namedview1251"
   pagecolor="#505050"
   bordercolor="#ffffff"
   borderopacity="1"
   inkscape:showpageshadow="0"
   inkscape:pageopacity="0"
   inkscape:pagecheckerboard="1"
   inkscape:deskcolor="#505050" />
<g
   id="g1253"
   transform="translate(-362.742,-129.75886)"><path
     style="fill:#c9d6f2"
     d="m 420.931,191.528 -52.658,-0.397 c -5.652,-19.353 8.683,-17.615 5.979,-30.834 -6.609,-32.311 32.666,-40.981 74.683,-16.313 25.689,15.083 28.278,40.88 19.917,47.733 z"
     id="path410" /><g
     id="g412">
			<path
   style="fill:#5a70e0"
   d="m 463.297,153.886 c 0,0 -5.648,28.245 -30.366,26.676 0,-0.001 0.794,-25.454 30.366,-26.676 z"
   id="path411" />
			<path
   style="fill:#7585f8"
   d="m 432.931,180.561 c 0,0 19.992,-22.078 30.366,-26.676 0,0.001 -29.641,-1.051 -30.366,26.676 z"
   id="path412" />
		</g><path
     style="fill:#acbfe2"
     d="m 468.851,191.718 c 0,1.614 -28.492,2.923 -59.274,2.923 -30.782,0 -43.38,-1.266 -43.38,-2.881 0,-1.615 12.598,-2.966 43.38,-2.966 30.781,0 59.274,1.307 59.274,2.924 z"
     id="path413" /><g
     id="g424">
			<g
   id="g414">
				<path
   style="fill:#7585f8"
   d="m 394.631,189.61 -0.44,1.084 c -0.232,-0.102 -5.781,-2.509 -11.368,-7.539 -7.436,-6.697 -11.283,-14.848 -11.118,-23.585 l 1.106,-0.01 c -0.381,20.292 21.6,29.954 21.82,30.05 z"
   id="path414" />
			</g>
			<g
   id="g415">
				<path
   style="fill:#7585f8"
   d="m 372.298,160.836 c 0,0 -5.511,-4.192 -1.798,-11.156 0,0 4.64,5.229 1.798,11.156 z"
   id="path415" />
			</g>
			<g
   id="g416">
				<path
   style="fill:#7585f8"
   d="m 373.245,167.184 c 0,0 -8.682,1.398 -10.503,-8.439 0,-0.001 4.652,-0.893 10.503,8.439 z"
   id="path416" />
			</g>
			<g
   id="g417">
				<path
   style="fill:#7585f8"
   d="m 372.957,167.174 c 0,0 8.335,-3.006 6.019,-12.712 0,0 -4.525,1.478 -6.019,12.712 z"
   id="path417" />
			</g>
			<g
   id="g418">
				<path
   style="fill:#7585f8"
   d="m 376.39,174.797 c 0,0 -8.525,2.328 -11.304,-7.233 0,0 4.548,-1.39 11.304,7.233 z"
   id="path418" />
			</g>
			<g
   id="g419">
				<path
   style="fill:#7585f8"
   d="m 376.1,174.815 c 0,0 8.021,-3.883 4.757,-13.266 -0.001,0.001 -4.369,1.962 -4.757,13.266 z"
   id="path419" />
			</g>
			<g
   id="g420">
				<path
   style="fill:#7585f8"
   d="m 382.232,181.924 c 0,0 -8.056,3.814 -12.361,-5.061 0,-0.001 4.274,-2.19 12.361,5.061 z"
   id="path420" />
			</g>
			<g
   id="g421">
				<path
   style="fill:#7585f8"
   d="m 381.947,181.993 c 0,0 7.303,-5.258 2.553,-13.872 0,0 -4.008,2.71 -2.553,13.872 z"
   id="path421" />
			</g>
			<g
   id="g422">
				<path
   style="fill:#7585f8"
   d="m 388.638,186.845 c 0,0 -6.879,5.868 -13.269,-1.469 0,0 3.614,-3.267 13.269,1.469 z"
   id="path422" />
			</g>
			<g
   id="g423">
				<path
   style="fill:#7585f8"
   d="m 388.382,186.991 c 0,0 5.797,-7.041 -0.958,-13.998 0,0 -3.223,3.693 0.958,13.998 z"
   id="path423" />
			</g>
		</g><g
     id="g436">
			<g
   id="g435">
				<g
   id="g425">
					<path
   style="fill:#b5c2e6"
   d="m 423.77,173.456 0.539,0.966 c 0.205,-0.123 5.126,-3.018 9.78,-8.372 6.193,-7.132 8.858,-15.212 7.695,-23.377 l -1.037,0.118 c 2.697,18.965 -16.781,30.549 -16.977,30.665 z"
   id="path424" />
				</g>
				<g
   id="g426">
					<path
   style="fill:#b5c2e6"
   d="m 441.375,143.927 c 0,0 4.681,-4.562 0.4,-10.658 0,0 -3.745,5.433 -0.4,10.658 z"
   id="path425" />
				</g>
				<g
   id="g427">
					<path
   style="fill:#b5c2e6"
   d="m 441.222,149.982 c 0,0 8.292,0.309 8.866,-9.117 0,0 -4.462,-0.299 -8.866,9.117 z"
   id="path426" />
				</g>
				<g
   id="g428">
					<path
   style="fill:#b5c2e6"
   d="m 441.489,149.94 c 0,0 -8.155,-1.856 -7.104,-11.216 0,0.001 4.41,0.865 7.104,11.216 z"
   id="path427" />
				</g>
				<g
   id="g429">
					<path
   style="fill:#b5c2e6"
   d="m 439.152,157.477 c 0,0 8.254,1.198 9.756,-8.079 0,0 -4.421,-0.779 -9.756,8.079 z"
   id="path428" />
				</g>
				<g
   id="g430">
					<path
   style="fill:#b5c2e6"
   d="m 439.426,157.461 c 0,0 -7.963,-2.714 -5.984,-11.879 -0.001,0 4.318,1.333 5.984,11.879 z"
   id="path429" />
				</g>
				<g
   id="g431">
					<path
   style="fill:#b5c2e6"
   d="m 434.5,164.827 c 0,0 7.987,2.644 10.998,-6.167 0,0 -4.258,-1.558 -10.998,6.167 z"
   id="path430" />
				</g>
				<g
   id="g432">
					<path
   style="fill:#b5c2e6"
   d="m 434.776,164.858 c 0,0 -7.448,-4.083 -3.99,-12.7 0,0 4.066,2.077 3.99,12.7 z"
   id="path431" />
				</g>
				<g
   id="g433">
					<path
   style="fill:#b5c2e6"
   d="m 429.067,170.175 c 0,0 7.121,4.704 12.261,-2.905 0,0 -3.763,-2.644 -12.261,2.905 z"
   id="path432" />
				</g>
				<g
   id="g434">
					<path
   style="fill:#b5c2e6"
   d="m 429.322,170.282 c 0,0 -6.24,-5.928 -0.715,-13.223 0,0.001 3.445,3.087 0.715,13.223 z"
   id="path433" />
				</g>
			</g>
		</g><g
     id="g459">
			<g
   id="g437">
				<path
   style="fill:#7585f8"
   d="m 414.984,168.814 c 15.369,-14.322 16.261,-30.808 16.268,-30.978 l -0.707,-0.028 c -0.009,0.162 -0.897,16.37 -16.046,30.486 z"
   id="path436" />
			</g>
			<g
   id="g438">
				
					<rect
   x="428.073"
   y="141.907"
   transform="matrix(0.9779,-0.2092,0.2092,0.9779,-20.7205,92.7991)"
   style="fill:#7585f8"
   width="0.70899999"
   height="4.9320002"
   id="rect437" />
			</g>
			<g
   id="g439">
				<polygon
   style="fill:#7585f8"
   points="425.558,146.598 424.905,146.881 426.912,151.387 427.565,151.099 "
   id="polygon438" />
			</g>
			<g
   id="g440">
				
					<rect
   x="423.42599"
   y="151.44299"
   transform="matrix(0.9141,-0.4055,0.4055,0.9141,-26.0063,185.051)"
   style="fill:#7585f8"
   width="0.708"
   height="4.9330001"
   id="rect439" />
			</g>
			<g
   id="g441">
				
					<rect
   x="420.59299"
   y="155.66901"
   transform="matrix(0.9135,-0.4069,0.4069,0.9135,-27.9219,184.9735)"
   style="fill:#7585f8"
   width="0.708"
   height="4.9349999"
   id="rect440" />
			</g>
			<g
   id="g442">
				
					<rect
   x="417.504"
   y="159.869"
   transform="matrix(0.9122,-0.4098,0.4098,0.9122,-29.8256,185.501)"
   style="fill:#7585f8"
   width="0.708"
   height="4.9289999"
   id="rect441" />
			</g>
			<g
   id="g443">
				<polygon
   style="fill:#7585f8"
   points="432.356,141.726 429.05,145.382 429.574,145.86 432.884,142.197 "
   id="polygon442" />
			</g>
			<g
   id="g444">
				
					<rect
   x="427.159"
   y="148.591"
   transform="matrix(0.7995,-0.6007,0.6007,0.7995,-3.329,287.9217)"
   style="fill:#7585f8"
   width="4.9359999"
   height="0.71200001"
   id="rect443" />
			</g>
			<g
   id="g445">
				
					<rect
   x="424.754"
   y="154.496"
   transform="matrix(0.9268,-0.3756,0.3756,0.9268,-26.881,171.811)"
   style="fill:#7585f8"
   width="4.9330001"
   height="0.70899999"
   id="rect444" />
			</g>
			<g
   id="g446">
				<polygon
   style="fill:#7585f8"
   points="426.074,159.141 421.411,160.755 421.641,161.425 426.308,159.808 "
   id="polygon445" />
			</g>
			<g
   id="g447">
				
					<rect
   x="417.01401"
   y="165.155"
   transform="matrix(0.9708,-0.2398,0.2398,0.9708,-27.447,105.4016)"
   style="fill:#7585f8"
   width="4.9330001"
   height="0.708"
   id="rect446" />
			</g>
			<g
   id="g448">
				<path
   style="fill:#7585f8"
   d="m 429.722,136.395 c -0.456,0.833 -0.148,1.88 0.683,2.333 0.831,0.457 1.878,0.149 2.331,-0.683 0.455,-0.832 0.147,-1.877 -0.681,-2.334 -0.832,-0.453 -1.876,-0.147 -2.333,0.684 z"
   id="path447" />
			</g>
			<g
   id="g449">
				<path
   style="fill:#7585f8"
   d="m 425.814,140.358 c -0.396,0.86 -0.022,1.883 0.839,2.28 0.861,0.403 1.882,0.027 2.279,-0.833 0.398,-0.861 0.025,-1.884 -0.833,-2.283 -0.862,-0.398 -1.884,-0.024 -2.285,0.836 z"
   id="path448" />
			</g>
			<g
   id="g450">
				<path
   style="fill:#7585f8"
   d="m 423.499,144.753 c -0.663,0.685 -0.642,1.773 0.048,2.431 0.682,0.658 1.768,0.635 2.428,-0.05 0.654,-0.687 0.633,-1.771 -0.052,-2.428 -0.682,-0.661 -1.771,-0.636 -2.424,0.047 z"
   id="path449" />
			</g>
			<g
   id="g451">
				<path
   style="fill:#7585f8"
   d="m 421.042,149.671 c -0.658,0.687 -0.634,1.775 0.048,2.432 0.686,0.658 1.773,0.634 2.429,-0.049 0.658,-0.684 0.639,-1.772 -0.047,-2.429 -0.686,-0.657 -1.778,-0.638 -2.43,0.046 z"
   id="path450" />
			</g>
			<g
   id="g452">
				<path
   style="fill:#7585f8"
   d="m 418.207,153.896 c -0.653,0.69 -0.636,1.774 0.049,2.431 0.684,0.657 1.772,0.638 2.43,-0.044 0.658,-0.688 0.639,-1.771 -0.046,-2.434 -0.691,-0.658 -1.776,-0.632 -2.433,0.047 z"
   id="path451" />
			</g>
			<g
   id="g453">
				<path
   style="fill:#7585f8"
   d="m 415.116,158.098 c -0.657,0.686 -0.636,1.77 0.049,2.429 0.687,0.659 1.773,0.634 2.428,-0.052 0.659,-0.684 0.639,-1.767 -0.043,-2.427 -0.687,-0.657 -1.776,-0.636 -2.434,0.05 z"
   id="path452" />
			</g>
			<g
   id="g454">
				<path
   style="fill:#7585f8"
   d="m 435.238,141.628 c -0.086,0.939 -0.924,1.636 -1.863,1.552 -0.946,-0.085 -1.647,-0.922 -1.559,-1.865 0.084,-0.944 0.923,-1.643 1.864,-1.557 0.945,0.088 1.638,0.92 1.558,1.87 z"
   id="path453" />
			</g>
			<g
   id="g455">
				<path
   style="fill:#7585f8"
   d="m 434.234,147.63 c -0.266,0.911 -1.218,1.435 -2.129,1.172 -0.91,-0.261 -1.435,-1.216 -1.174,-2.127 0.266,-0.911 1.214,-1.437 2.129,-1.17 0.911,0.261 1.436,1.213 1.174,2.125 z"
   id="path454" />
			</g>
			<g
   id="g456">
				<path
   style="fill:#7585f8"
   d="m 432.009,154.762 c -0.486,0.815 -1.543,1.076 -2.353,0.589 -0.814,-0.492 -1.074,-1.544 -0.589,-2.357 0.487,-0.815 1.545,-1.079 2.359,-0.589 0.814,0.487 1.076,1.543 0.583,2.357 z"
   id="path455" />
			</g>
			<g
   id="g457">
				<path
   style="fill:#7585f8"
   d="m 428.647,160.436 c -0.531,0.787 -1.599,1.001 -2.386,0.469 -0.787,-0.529 -1,-1.6 -0.468,-2.386 0.526,-0.788 1.596,-0.995 2.389,-0.465 0.786,0.529 0.994,1.594 0.465,2.382 z"
   id="path456" />
			</g>
			<g
   id="g458">
				<path
   style="fill:#7585f8"
   d="m 424.233,166.098 c -0.6,0.736 -1.681,0.847 -2.421,0.249 -0.734,-0.599 -0.844,-1.686 -0.244,-2.417 0.6,-0.737 1.679,-0.846 2.418,-0.246 0.733,0.598 0.845,1.68 0.247,2.414 z"
   id="path457" />
			</g>
		</g><g
     id="g482">
			<g
   id="g460">
				<path
   style="fill:#7585f8"
   d="m 393.761,173.244 c -5.741,-20.208 2.026,-34.776 2.108,-34.925 l 0.619,0.341 c -0.076,0.143 -7.702,14.474 -2.043,34.392 z"
   id="path459" />
			</g>
			<g
   id="g461">
				
					<rect
   x="392.43701"
   y="145.019"
   transform="matrix(0.6848,-0.7287,0.7287,0.6848,18.5344,333.599)"
   style="fill:#7585f8"
   width="4.9330001"
   height="0.70999998"
   id="rect460" />
			</g>
			<g
   id="g462">
				<polygon
   style="fill:#7585f8"
   points="396.209,148.763 396.62,149.342 392.571,152.159 392.161,151.575 "
   id="polygon461" />
			</g>
			<g
   id="g463">
				
					<rect
   x="391.479"
   y="155.584"
   transform="matrix(0.8198,-0.5726,0.5726,0.8198,-18.3126,253.6793)"
   style="fill:#7585f8"
   width="4.9330001"
   height="0.70899999"
   id="rect462" />
			</g>
			<g
   id="g464">
				
					<rect
   x="391.716"
   y="160.66701"
   transform="matrix(0.8207,-0.5714,0.5714,0.8207,-21.3166,254.125)"
   style="fill:#7585f8"
   width="4.9349999"
   height="0.708"
   id="rect463" />
			</g>
			<g
   id="g465">
				
					<rect
   x="392.19101"
   y="165.85699"
   transform="matrix(0.8226,-0.5686,0.5686,0.8226,-24.499,253.8966)"
   style="fill:#7585f8"
   width="4.9289999"
   height="0.708"
   id="rect464" />
			</g>
			<g
   id="g466">
				<polygon
   style="fill:#7585f8"
   points="392.911,141.075 393.85,145.915 393.153,146.053 392.217,141.206 "
   id="polygon465" />
			</g>
			<g
   id="g467">
				
					<rect
   x="391.155"
   y="146.19901"
   transform="matrix(0.9276,-0.3735,0.3735,0.9276,-27.1937,156.9864)"
   style="fill:#7585f8"
   width="0.71200001"
   height="4.9359999"
   id="rect466" />
			</g>
			<g
   id="g468">
				
					<rect
   x="390.16"
   y="152.496"
   transform="matrix(0.801,-0.5986,0.5986,0.801,-15.066,264.5972)"
   style="fill:#7585f8"
   width="0.70899999"
   height="4.934"
   id="rect467" />
			</g>
			<g
   id="g469">
				<polygon
   style="fill:#7585f8"
   points="389.276,159.227 392.432,163.023 391.889,163.477 388.731,159.679 "
   id="polygon468" />
			</g>
			<g
   id="g470">
				<polygon
   style="fill:#7585f8"
   points="390.134,166.093 393.616,169.587 393.116,170.084 389.63,166.594 "
   id="polygon469" />
			</g>
			<g
   id="g471">
				<path
   style="fill:#7585f8"
   d="m 397.924,137.878 c -0.04,0.948 -0.845,1.685 -1.791,1.643 -0.947,-0.039 -1.685,-0.844 -1.642,-1.79 0.041,-0.948 0.845,-1.683 1.79,-1.645 0.947,0.041 1.683,0.843 1.643,1.792 z"
   id="path470" />
			</g>
			<g
   id="g472">
				<path
   style="fill:#7585f8"
   d="m 399.217,143.29 c -0.105,0.941 -0.955,1.623 -1.898,1.518 -0.945,-0.101 -1.624,-0.951 -1.519,-1.893 0.104,-0.942 0.953,-1.625 1.894,-1.522 0.945,0.104 1.625,0.954 1.523,1.897 z"
   id="path471" />
			</g>
			<g
   id="g473">
				<path
   style="fill:#7585f8"
   d="m 398.925,148.249 c 0.213,0.929 -0.368,1.849 -1.299,2.055 -0.924,0.211 -1.841,-0.371 -2.052,-1.298 -0.204,-0.927 0.375,-1.844 1.301,-2.052 0.926,-0.213 1.844,0.372 2.05,1.295 z"
   id="path472" />
			</g>
			<g
   id="g474">
				<path
   style="fill:#7585f8"
   d="m 398.482,153.729 c 0.208,0.928 -0.376,1.847 -1.299,2.057 -0.927,0.208 -1.846,-0.376 -2.054,-1.299 -0.209,-0.926 0.371,-1.848 1.297,-2.054 0.927,-0.208 1.852,0.374 2.056,1.296 z"
   id="path473" />
			</g>
			<g
   id="g475">
				<path
   style="fill:#7585f8"
   d="m 398.723,158.811 c 0.201,0.929 -0.375,1.848 -1.3,2.055 -0.926,0.209 -1.847,-0.371 -2.057,-1.295 -0.207,-0.929 0.37,-1.846 1.299,-2.059 0.931,-0.205 1.847,0.378 2.058,1.299 z"
   id="path474" />
			</g>
			<g
   id="g476">
				<path
   style="fill:#7585f8"
   d="m 399.193,164.006 c 0.208,0.927 -0.372,1.844 -1.299,2.053 -0.928,0.209 -1.846,-0.375 -2.051,-1.3 -0.21,-0.927 0.368,-1.843 1.293,-2.055 0.928,-0.208 1.849,0.374 2.057,1.302 z"
   id="path475" />
			</g>
			<g
   id="g477">
				<path
   style="fill:#7585f8"
   d="m 390.496,139.5 c -0.413,0.849 -0.056,1.878 0.791,2.293 0.855,0.416 1.887,0.063 2.3,-0.79 0.416,-0.852 0.06,-1.884 -0.79,-2.297 -0.854,-0.414 -1.878,-0.06 -2.301,0.794 z"
   id="path476" />
			</g>
			<g
   id="g478">
				<path
   style="fill:#7585f8"
   d="m 388.25,145.155 c -0.244,0.918 0.299,1.858 1.215,2.104 0.914,0.248 1.858,-0.298 2.105,-1.213 0.244,-0.917 -0.296,-1.857 -1.217,-2.103 -0.914,-0.246 -1.855,0.296 -2.103,1.212 z"
   id="path477" />
			</g>
			<g
   id="g479">
				<path
   style="fill:#7585f8"
   d="m 386.464,152.41 c -0.006,0.949 0.764,1.72 1.709,1.722 0.951,0 1.719,-0.766 1.724,-1.711 0.005,-0.95 -0.764,-1.724 -1.715,-1.726 -0.949,-0.005 -1.719,0.764 -1.718,1.715 z"
   id="path478" />
			</g>
			<g
   id="g480">
				<path
   style="fill:#7585f8"
   d="m 386.404,159.005 c 0.048,0.948 0.851,1.684 1.8,1.636 0.947,-0.046 1.683,-0.852 1.634,-1.8 -0.042,-0.947 -0.851,-1.678 -1.804,-1.634 -0.945,0.047 -1.675,0.852 -1.63,1.798 z"
   id="path479" />
			</g>
			<g
   id="g481">
				<path
   style="fill:#7585f8"
   d="m 387.252,166.134 c 0.132,0.94 1,1.594 1.942,1.466 0.938,-0.132 1.595,-1.006 1.46,-1.942 -0.132,-0.94 -0.999,-1.592 -1.941,-1.461 -0.937,0.132 -1.593,1 -1.461,1.937 z"
   id="path480" />
			</g>
		</g><g
     id="g497">
			<g
   id="g483">
				<path
   style="fill:#b5c2e6"
   d="m 393.696,172.88 0.958,-0.779 c -12.382,-15.194 -8.6,-32.085 -8.559,-32.258 l -1.204,-0.28 c -0.035,0.172 -3.971,17.635 8.805,33.317 z"
   id="path482" />
			</g>
			<g
   id="g484">
				<path
   style="fill:#b5c2e6"
   d="m 385.471,140.671 c 0,0 2.439,-6.563 -1.409,-7.186 -1.636,-0.267 -3.169,2.605 1.409,7.186 z"
   id="path483" />
			</g>
			<g
   id="g485">
				<path
   style="fill:#b5c2e6"
   d="m 385.15,143.244 c 0,0 -2.353,-7.056 -5.35,-4.686 -1.277,1.013 -0.558,4.456 5.35,4.686 z"
   id="path484" />
			</g>
			<g
   id="g486">
				<path
   style="fill:#b5c2e6"
   d="m 384.68,143.755 c 0,0 1.036,-7.116 4.461,-4.857 1.458,0.959 1.386,4.419 -4.461,4.857 z"
   id="path485" />
			</g>
			<g
   id="g487">
				<path
   style="fill:#b5c2e6"
   d="m 385,149.858 c 0,0 0.714,-7.202 4.223,-5.115 1.494,0.887 1.573,4.358 -4.223,5.115 z"
   id="path486" />
			</g>
			<g
   id="g488">
				<path
   style="fill:#b5c2e6"
   d="m 385.613,154.842 c 0,0 0.737,-7.19 4.241,-5.097 1.496,0.889 1.563,4.36 -4.241,5.097 z"
   id="path487" />
			</g>
			<g
   id="g489">
				<path
   style="fill:#b5c2e6"
   d="m 387.375,160.773 c 0,0 -0.451,-7.333 3.277,-5.929 1.591,0.595 2.219,4.049 -3.277,5.929 z"
   id="path488" />
			</g>
			<g
   id="g490">
				<path
   style="fill:#b5c2e6"
   d="m 389.406,165.342 c 0,0 -0.259,-7.328 3.445,-5.806 1.571,0.646 2.113,4.109 -3.445,5.806 z"
   id="path489" />
			</g>
			<g
   id="g491">
				<path
   style="fill:#b5c2e6"
   d="m 392.884,170.811 c 0,0 -2.081,-7.142 1.766,-6.78 1.639,0.155 3.017,3.401 -1.766,6.78 z"
   id="path490" />
			</g>
			<g
   id="g492">
				<path
   style="fill:#b5c2e6"
   d="m 384.896,148.275 c 0,0 -2.357,-7.063 -5.355,-4.687 -1.272,1.012 -0.556,4.45 5.355,4.687 z"
   id="path491" />
			</g>
			<g
   id="g493">
				<path
   style="fill:#b5c2e6"
   d="m 385.476,153.429 c 0,0 -2.364,-7.063 -5.359,-4.688 -1.274,1.01 -0.554,4.451 5.359,4.688 z"
   id="path492" />
			</g>
			<g
   id="g494">
				<path
   style="fill:#b5c2e6"
   d="m 386.763,158.343 c 0,0 -3.709,-6.42 -6.071,-3.305 -1.01,1.323 0.388,4.564 6.071,3.305 z"
   id="path493" />
			</g>
			<g
   id="g495">
				<path
   style="fill:#b5c2e6"
   d="m 388.746,163.634 c 0,0 -4.267,-6.016 -6.299,-2.612 -0.86,1.449 0.818,4.536 6.299,2.612 z"
   id="path494" />
			</g>
			<g
   id="g496">
				<path
   style="fill:#b5c2e6"
   d="m 391.478,168.535 c 0,0 -4.948,-5.343 -6.494,-1.605 -0.651,1.593 1.397,4.417 6.494,1.605 z"
   id="path495" />
			</g>
		</g><path
     style="fill:#f5a4b7"
     d="m 378.147,175.646 c 0,0 -3.195,15.876 10.007,15.104 13.201,-0.771 51.142,3.855 55.436,-1.938 4.295,-5.793 2.9,-18.834 1.896,-19.554 -1.001,-0.719 -2.303,-7.072 -21.338,-3.46 -19.037,3.616 -35.513,1.093 -42.057,3.123 -6.54,2.033 -3.944,6.725 -3.944,6.725 z"
     id="path497" /><path
     style="fill:#f27851"
     d="m 455.983,155.089 c -0.449,-0.208 -1.947,-0.025 -2.738,1.145 -1.066,1.559 -1.429,4.69 -3.784,5.818 -2.361,1.126 -3.813,0.126 -4.871,-0.422 -1.061,-0.543 -1.228,-1.257 -1.881,-1.505 -0.65,-0.248 -0.915,0.537 0.575,1.819 0.715,0.611 3.872,4.065 6.927,3.24 4.005,-1.079 8.445,-8.838 5.772,-10.095 z"
     id="path498" /><path
     style="fill:#efbebd"
     d="m 456.446,155.012 c 0,0 -1.728,-1.183 -3.565,1.335 -1.833,2.517 -2.283,3.867 -2.283,3.867 0,0 1.223,1.634 4.315,2.431 10e-4,0 4.198,-6.314 1.533,-7.633 z"
     id="path499" /><g
     id="g503">
			<path
   style="fill:#ee9d7f"
   d="m 452.939,173.076 c 0.471,5.27 2.453,13.441 2.817,17.879 0.025,0.308 0.066,0.363 -0.955,0.649 -1.181,0.33 -0.25,0.927 1.609,0.864 1.742,-0.059 2.319,-8.393 2.381,-12.798 0.021,-1.241 -0.508,-4.969 10e-4,-8.512 0.103,1.317 0.244,2.815 0.434,4.458 0.563,4.805 5.956,10.99 6.449,15.028 0.036,0.313 0.003,0.432 -0.908,0.769 -0.91,0.335 -0.006,0.895 1.588,0.813 1.594,-0.084 0.414,-8.445 -0.51,-12.352 -0.807,-3.414 -13.45,-12.88 -12.906,-6.798 z"
   id="path500" />
			<path
   style="fill:#e62552"
   d="m 454.381,163.251 c 3.24,2.483 7.308,1.59 9.024,1.143 0.579,4.554 3.732,21.598 4.107,23.941 -1.381,0.593 -1.842,0.723 -2.245,0.733 -6.993,-10.335 -6.328,-14.855 -6.434,-16.173 -0.216,1.527 0.8,8.977 -0.477,16.34 -0.48,0.393 -1.946,0.922 -3.023,0.075 -0.066,-0.47 -3.061,-11.568 -2.761,-16.225 0.293,-4.474 1.123,-8.118 1.809,-9.834 z"
   id="path501" />
			<path
   style="fill:#7585f8"
   d="m 457.365,191.444 c 0,0 -1.37,0.699 -2.247,0.056 0,0 -1.554,0.292 -0.561,0.729 0.997,0.436 2.902,0.77 2.808,-0.785 z"
   id="path502" />
			<path
   style="fill:#7585f8"
   d="m 467.011,191.36 c 0,0 -1.37,0.697 -2.243,0.054 0,0 -1.558,0.296 -0.561,0.731 0.995,0.433 2.901,0.771 2.804,-0.785 z"
   id="path503" />
		</g><path
     style="fill:#fcdcda"
     d="m 463.618,167.008 c 2.582,-2.134 -1.982,-4.402 -1.114,-7.286 1.254,-4.139 -1.918,-4.608 -3.842,-4.936 -1.925,-0.324 -6.986,0.099 -6.869,3.054 0.097,2.498 0.277,4.684 1.606,9.33 1.394,4.888 10.225,-0.165 10.219,-0.162 z"
     id="path504" /><path
     style="fill:#e67052"
     d="m 457.677,152.363 c 0,0 -0.722,1.536 0.36,2.353 1.112,0.839 -3.193,3.126 -3.089,2.23 0.138,-1.157 0.726,-1.842 0.161,-3.176 z"
     id="path505" /><path
     style="fill:#f27851"
     d="m 455.235,149.453 c -0.984,0.93 -2.046,5.01 -1.007,5.911 0.451,0.391 2.309,-0.052 3.477,-1.844 0.484,-0.739 1.083,-2.119 0.331,-3.509 -0.334,-0.629 -1.655,-1.639 -2.801,-0.558 z"
     id="path506" /><path
     style="fill:#062440"
     d="m 454.231,149.947 c -0.219,0.513 -0.15,0.629 1.388,0.864 1.539,0.232 1.805,0.135 1.648,0.5 -0.458,1.079 0.64,0.865 0.08,2.153 -0.567,1.288 0.724,0.502 1.294,-0.546 0.115,-0.216 0.761,-1.25 0.01,-2.852 -0.874,-1.867 -3.613,-1.996 -4.42,-0.119 z"
     id="path507" /><path
     style="fill:#062440"
     d="m 458.651,150.066 c 0.779,1.476 0.105,2.637 -0.01,2.852 -0.421,0.782 -1.248,1.433 -1.405,1.155 -0.188,-0.335 0.798,-0.462 0.517,-1.369 -0.272,-0.905 0.328,-1.098 0.184,-1.889 -0.143,-0.79 -0.732,-0.637 -2.471,-0.904 -0.702,-0.107 -0.84,-0.38 -0.756,-0.666 1.101,-1.095 3.116,-0.73 3.941,0.821 z"
     id="path508" /><path
     style="fill:#e887a0"
     d="m 386.007,168.25 c 0,0 2.184,3.556 2.104,6.556 -0.08,3 -0.957,16.333 6.855,15.333 0,0 3,-0.666 2.178,-5.583 -0.822,-4.917 1.554,-8.916 2.479,-8.5 0.925,0.417 1.736,3 1.051,6.083 -0.685,3.084 0.57,9.356 4.926,8.054 4.355,-1.303 4.511,-5.288 3.797,-8.47 -0.714,-3.182 2.167,-13.964 3.121,-14.355 0.317,-0.131 -26.511,0.882 -26.511,0.882 z"
     id="path509" /><g
     id="g511">
			<path
   style="fill:#ffffff"
   d="m 387.631,154.54 c 0,0 2.932,-3.454 8.623,-0.86 5.687,2.591 5.589,-0.126 8.868,-0.801 3.279,-0.674 10.82,2.461 6.8,14.314 -3.488,10.292 -3.685,12.423 -3.277,16.094 0.577,5.223 -2.43,7.862 -5.104,5.036 -2.67,-2.826 -0.235,-12.898 -3.213,-13.39 -2.98,-0.492 -3.844,3.876 -3.829,10.564 0.01,5.306 -3.896,4.159 -5.092,1.865 -1.537,-2.947 -1.943,-12.451 -2.672,-15.068 -0.784,-2.822 -4.99,-13.945 -1.104,-17.754 z"
   id="path510" />
			<path
   style="fill:#ebeff7"
   d="m 396.499,185.497 c -0.015,-6.688 0.849,-11.056 3.829,-10.564 2.978,0.491 0.543,10.564 3.213,13.39 2.674,2.826 5.681,0.187 5.104,-5.036 -0.407,-3.671 -0.211,-5.802 3.277,-16.094 2.42,-7.132 0.65,-11.105 -1.855,-12.993 2.293,2.719 3.75,7.728 0.226,12.457 -5.461,7.328 -1.558,11.818 -3.26,19.942 -0.436,2.072 -3.479,1.418 -2.8,-5.342 0.589,-5.859 -0.054,-8.097 -3.914,-8.267 -4.931,-0.218 -4.81,11.078 -5.38,14.107 -0.371,1.969 -2.257,1.107 -3.533,0.263 0,10e-4 0.002,10e-4 0.002,0.002 1.195,2.294 5.101,3.441 5.091,-1.865 z"
   id="path511" />
		</g><path
     style="fill:#e887a0"
     d="m 413.386,167.291 c 0,0 0.865,2.287 1.591,5.432 1.675,7.25 -0.797,18.508 6.816,17.645 1.525,-0.173 2.643,-0.509 2.418,-5.895 -0.227,-5.387 2.126,-9.25 2.963,-8 0.838,1.25 1.436,4.125 1.077,6.25 -0.359,2.125 0.932,7.911 5.381,7.25 3.349,-0.498 3.056,-7.494 2.87,-9.5 -0.363,-3.918 2.804,-14.117 4.357,-14.85 0,0 -1.052,-1.078 -8.193,-0.891 -7.142,0.189 -19.28,2.559 -19.28,2.559 z"
     id="path512" /><g
     id="g514">
			<path
   style="fill:#ffffff"
   d="m 414.698,154.54 c 0,0 2.932,-3.454 8.625,-0.86 5.684,2.591 5.587,-0.126 8.866,-0.801 3.279,-0.674 10.82,2.461 6.8,14.314 -3.489,10.292 -3.686,12.423 -3.277,16.094 0.575,5.223 -2.43,7.862 -5.103,5.036 -2.67,-2.826 -0.235,-12.898 -3.214,-13.39 -2.98,-0.492 -3.843,3.876 -3.83,10.564 0.011,5.306 -3.895,4.159 -5.09,1.865 -1.54,-2.947 -1.943,-12.451 -2.672,-15.068 -0.785,-2.822 -4.992,-13.945 -1.105,-17.754 z"
   id="path513" />
			<path
   style="fill:#ebeff7"
   d="m 423.564,185.497 c -0.013,-6.688 0.85,-11.056 3.83,-10.564 2.978,0.491 0.544,10.564 3.214,13.39 2.674,2.826 5.679,0.187 5.103,-5.036 -0.408,-3.671 -0.212,-5.802 3.277,-16.094 2.419,-7.132 0.649,-11.105 -1.855,-12.993 2.29,2.719 3.748,7.728 0.226,12.457 -5.464,7.328 -1.557,11.818 -3.261,19.942 -0.436,2.072 -3.479,1.418 -2.799,-5.342 0.589,-5.859 -0.054,-8.097 -3.914,-8.267 -4.932,-0.218 -4.809,11.078 -5.382,14.107 -0.37,1.969 -2.255,1.107 -3.531,0.263 0,10e-4 0,10e-4 0.002,0.002 1.196,2.294 5.101,3.441 5.09,-1.865 z"
   id="path514" />
		</g><rect
     x="381.87601"
     y="163.12"
     style="fill:#e4dbd6"
     width="83.206001"
     height="0.84799999"
     id="rect514" /><path
     style="fill:#ebeff7"
     d="m 405.599,163.969 c 0,2.992 -2.32,5.418 -5.184,5.418 h -1.75 c -2.863,0 -5.184,-2.426 -5.184,-5.418 v 0 c 0,-2.993 2.32,-5.419 5.184,-5.419 h 1.75 c 2.863,0 5.184,2.426 5.184,5.419 z"
     id="path515" /><path
     style="fill:#ebeff7"
     d="m 432.666,163.969 c 0,2.992 -2.321,5.418 -5.184,5.418 h -1.751 c -2.862,0 -5.183,-2.426 -5.183,-5.418 v 0 c 0,-2.993 2.32,-5.419 5.183,-5.419 h 1.751 c 2.863,0 5.184,2.426 5.184,5.419 z"
     id="path516" /><g
     id="g520">
			<path
   style="fill:#e4dbd6"
   d="m 398.407,161.936 c 0,0.715 -0.556,1.295 -1.239,1.295 h -0.149 c -0.684,0 -1.239,-0.58 -1.239,-1.295 v 0 c 0,-0.716 0.556,-1.296 1.239,-1.296 h 0.149 c 0.684,0.001 1.239,0.581 1.239,1.296 z"
   id="path517" />
			<path
   style="fill:#e4dbd6"
   d="m 403.25,161.936 c 0,0.715 -0.555,1.295 -1.239,1.295 h -0.149 c -0.684,0 -1.238,-0.58 -1.238,-1.295 v 0 c 0,-0.716 0.555,-1.296 1.238,-1.296 h 0.149 c 0.684,0.001 1.239,0.581 1.239,1.296 z"
   id="path518" />
			<path
   style="fill:#e4dbd6"
   d="m 398.457,165.624 c 0,0.715 -0.555,1.295 -1.238,1.295 h -0.15 c -0.684,0 -1.239,-0.58 -1.239,-1.295 v 0 c 0,-0.716 0.555,-1.296 1.239,-1.296 h 0.15 c 0.683,0 1.238,0.58 1.238,1.296 z"
   id="path519" />
			<path
   style="fill:#e4dbd6"
   d="m 403.301,165.624 c 0,0.715 -0.556,1.295 -1.239,1.295 h -0.149 c -0.684,0 -1.239,-0.58 -1.239,-1.295 v 0 c 0,-0.716 0.556,-1.296 1.239,-1.296 h 0.149 c 0.683,0 1.239,0.58 1.239,1.296 z"
   id="path520" />
		</g><g
     id="g524">
			<path
   style="fill:#e4dbd6"
   d="m 425.474,162.124 c 0,0.715 -0.555,1.295 -1.24,1.295 h -0.148 c -0.686,0 -1.241,-0.58 -1.241,-1.295 v 0 c 0,-0.716 0.555,-1.296 1.241,-1.296 h 0.148 c 0.685,0 1.24,0.58 1.24,1.296 z"
   id="path521" />
			<path
   style="fill:#e4dbd6"
   d="m 430.317,162.124 c 0,0.715 -0.556,1.295 -1.241,1.295 h -0.148 c -0.685,0 -1.24,-0.58 -1.24,-1.295 v 0 c 0,-0.716 0.555,-1.296 1.24,-1.296 h 0.148 c 0.686,0 1.241,0.58 1.241,1.296 z"
   id="path522" />
			<path
   style="fill:#e4dbd6"
   d="m 425.524,165.811 c 0,0.715 -0.555,1.295 -1.239,1.295 h -0.15 c -0.684,0 -1.238,-0.58 -1.238,-1.295 v 0 c 0,-0.716 0.555,-1.296 1.238,-1.296 h 0.15 c 0.685,0.001 1.239,0.581 1.239,1.296 z"
   id="path523" />
			<path
   style="fill:#e4dbd6"
   d="m 430.367,165.811 c 0,0.715 -0.555,1.295 -1.238,1.295 h -0.149 c -0.685,0 -1.239,-0.58 -1.239,-1.295 v 0 c 0,-0.716 0.555,-1.296 1.239,-1.296 h 0.149 c 0.684,0.001 1.238,0.581 1.238,1.296 z"
   id="path524" />
		</g><g
     id="g526">
			<path
   style="fill:#f27851"
   d="m 461.017,156.513 c -0.475,-0.143 -1.93,0.259 -2.541,1.529 -0.826,1.698 -0.729,4.85 -2.897,6.31 -2.171,1.457 -3.751,0.678 -4.88,0.291 -1.128,-0.384 -1.398,-1.066 -2.079,-1.215 -0.681,-0.151 -0.827,0.663 0.837,1.715 0.792,0.503 4.422,3.458 7.322,2.196 3.804,-1.65 7.067,-9.973 4.238,-10.826 z"
   id="path525" />
			<path
   style="fill:#efbebd"
   d="m 461.462,156.368 c 0,0 -1.88,-0.919 -3.328,1.84 -1.447,2.757 -1.696,4.158 -1.696,4.158 0,0 1.447,1.439 4.626,1.776 -0.001,0.001 3.229,-6.858 0.398,-7.774 z"
   id="path526" />
		</g></g>
</svg>
