<?xml version="1.0" encoding="UTF-8" standalone="no"?>
<!-- Generator: Adobe Illustrator 27.5.0, SVG Export Plug-In . SVG Version: 6.00 Build 0)  -->

<svg
   version="1.1"
   id="Layer_1"
   x="0px"
   y="0px"
   viewBox="0 0 90.573601 67.003906"
   xml:space="preserve"
   sodipodi:docname="26764315_2002.i402.001.P.m004.c25.Dental health flat icons.svg"
   inkscape:export-filename="g161.svg"
   inkscape:export-xdpi="450.24857"
   inkscape:export-ydpi="450.24857"
   width="90.573601"
   height="67.003906"
   xmlns:inkscape="http://www.inkscape.org/namespaces/inkscape"
   xmlns:sodipodi="http://sodipodi.sourceforge.net/DTD/sodipodi-0.dtd"
   xmlns="http://www.w3.org/2000/svg"
   xmlns:svg="http://www.w3.org/2000/svg"><defs
   id="defs1251" /><sodipodi:namedview
   id="namedview1251"
   pagecolor="#505050"
   bordercolor="#ffffff"
   borderopacity="1"
   inkscape:showpageshadow="0"
   inkscape:pageopacity="0"
   inkscape:pagecheckerboard="1"
   inkscape:deskcolor="#505050" />
<g
   id="g1251"
   transform="translate(-145.11218,-128.40709)"><path
     style="fill:#c9d6f2"
     d="m 194.723,192.384 -45.686,0.24 c -4.691,-17.539 13.62,-25.132 9.631,-36.441 -8.146,-23.085 33.709,-39.724 57.4,-16.84 10.458,10.102 4.408,11.948 14.114,22.64 12.2,13.439 2.273,27.583 -11.821,31.278 z"
     id="path1077" /><g
     id="g1079">
			<path
   style="fill:#b5c2e6"
   d="m 217.486,181.967 c 0,0 -6.256,-23.425 12.987,-31.443 10e-4,-0.001 8.881,19.507 -12.987,31.443 z"
   id="path1078" />
			<path
   style="fill:#a1b3db"
   d="m 230.474,150.523 c 0,0 -6.87,24.111 -12.987,31.443 -0.001,0.001 22.764,-10.241 12.987,-31.443 z"
   id="path1079" />
		</g><g
     id="g1102">
			<g
   id="g1080">
				<path
   style="fill:#7585f8"
   d="m 219.771,172.074 c 5.808,-21.937 -2.864,-37.521 -2.956,-37.679 l -0.664,0.381 c 0.087,0.152 8.604,15.482 2.88,37.103 z"
   id="path1080" />
			</g>
			<g
   id="g1081">
				
					<rect
   x="217.61301"
   y="139.33099"
   transform="matrix(0.7166,-0.6975,0.6975,0.7166,-37.258,192.2993)"
   style="fill:#7585f8"
   width="0.76499999"
   height="5.3280001"
   id="rect1080" />
			</g>
			<g
   id="g1082">
				<polygon
   style="fill:#7585f8"
   points="216.65,145.682 216.219,146.315 220.646,149.278 221.077,148.639 "
   id="polygon1081" />
			</g>
			<g
   id="g1083">
				
					<rect
   x="218.851"
   y="150.72301"
   transform="matrix(0.5588,-0.8293,0.8293,0.5588,-30.4791,249.4843)"
   style="fill:#7585f8"
   width="0.76499999"
   height="5.329"
   id="rect1082" />
			</g>
			<g
   id="g1084">
				
					<rect
   x="218.69501"
   y="156.218"
   transform="matrix(0.5552,-0.8317,0.8317,0.5552,-34.7044,252.8679)"
   style="fill:#7585f8"
   width="0.76499999"
   height="5.3299999"
   id="rect1083" />
			</g>
			<g
   id="g1085">
				<polygon
   style="fill:#7585f8"
   points="216.668,162.699 216.245,163.335 220.672,166.295 221.095,165.656 "
   id="polygon1084" />
			</g>
			<g
   id="g1086">
				<polygon
   style="fill:#7585f8"
   points="220.063,137.314 219.145,142.56 219.899,142.694 220.815,137.442 "
   id="polygon1085" />
			</g>
			<g
   id="g1087">
				
					<rect
   x="219.05701"
   y="145.10201"
   transform="matrix(0.3561,-0.9344,0.9344,0.3561,6.8142,300.8618)"
   style="fill:#7585f8"
   width="5.3319998"
   height="0.76800001"
   id="rect1086" />
			</g>
			<g
   id="g1088">
				<polygon
   style="fill:#7585f8"
   points="224.169,149.883 221.052,154.203 221.676,154.654 224.789,150.327 "
   id="polygon1087" />
			</g>
			<g
   id="g1089">
				<polygon
   style="fill:#7585f8"
   points="224.342,156.849 221.009,161.008 221.605,161.488 224.939,157.325 "
   id="polygon1088" />
			</g>
			<g
   id="g1090">
				
					<rect
   x="219.31599"
   y="166.08299"
   transform="matrix(0.6937,-0.7203,0.7203,0.6937,-51.9063,210.8734)"
   style="fill:#7585f8"
   width="5.329"
   height="0.76599997"
   id="rect1089" />
			</g>
			<g
   id="g1091">
				<path
   style="fill:#7585f8"
   d="m 214.586,133.958 c 0.063,1.024 0.945,1.804 1.967,1.739 1.023,-0.061 1.804,-0.943 1.738,-1.966 -0.064,-1.022 -0.945,-1.8 -1.965,-1.74 -1.023,0.062 -1.802,0.944 -1.74,1.967 z"
   id="path1090" />
			</g>
			<g
   id="g1092">
				<path
   style="fill:#7585f8"
   d="m 213.296,139.829 c 0.133,1.015 1.063,1.734 2.078,1.602 1.02,-0.127 1.736,-1.059 1.604,-2.074 -0.131,-1.017 -1.059,-1.737 -2.074,-1.607 -1.018,0.133 -1.738,1.061 -1.608,2.079 z"
   id="path1091" />
			</g>
			<g
   id="g1093">
				<path
   style="fill:#7585f8"
   d="m 213.708,145.18 c -0.213,1.006 0.433,1.989 1.442,2.194 1.002,0.208 1.981,-0.436 2.189,-1.442 0.205,-1.006 -0.44,-1.983 -1.443,-2.191 -1.004,-0.212 -1.984,0.438 -2.188,1.439 z"
   id="path1092" />
			</g>
			<g
   id="g1094">
				<path
   style="fill:#7585f8"
   d="m 214.291,151.089 c -0.205,1.007 0.441,1.988 1.444,2.195 1.005,0.207 1.986,-0.442 2.192,-1.442 0.209,-1.004 -0.436,-1.988 -1.441,-2.193 -1.005,-0.207 -1.991,0.44 -2.195,1.44 z"
   id="path1093" />
			</g>
			<g
   id="g1095">
				<path
   style="fill:#7585f8"
   d="m 214.134,156.582 c -0.201,1.009 0.439,1.99 1.442,2.194 1.001,0.209 1.987,-0.436 2.195,-1.438 0.204,-1.007 -0.435,-1.987 -1.441,-2.197 -1.01,-0.205 -1.986,0.441 -2.196,1.441 z"
   id="path1094" />
			</g>
			<g
   id="g1096">
				<path
   style="fill:#7585f8"
   d="m 213.726,162.202 c -0.207,1.005 0.438,1.984 1.442,2.192 1.007,0.207 1.987,-0.441 2.189,-1.445 0.208,-1.004 -0.434,-1.983 -1.438,-2.192 -1.004,-0.206 -1.985,0.439 -2.193,1.445 z"
   id="path1095" />
			</g>
			<g
   id="g1097">
				<path
   style="fill:#7585f8"
   d="m 222.64,135.564 c 0.463,0.909 0.099,2.028 -0.809,2.493 -0.915,0.467 -2.035,0.104 -2.498,-0.81 -0.466,-0.91 -0.103,-2.031 0.81,-2.495 0.91,-0.463 2.024,-0.099 2.497,0.812 z"
   id="path1096" />
			</g>
			<g
   id="g1098">
				<path
   style="fill:#7585f8"
   d="m 225.176,141.631 c 0.283,0.985 -0.286,2.012 -1.271,2.295 -0.982,0.287 -2.012,-0.284 -2.298,-1.268 -0.28,-0.985 0.284,-2.012 1.273,-2.296 0.984,-0.285 2.011,0.283 2.296,1.269 z"
   id="path1097" />
			</g>
			<g
   id="g1099">
				<path
   style="fill:#7585f8"
   d="m 227.248,149.431 c 0.022,1.024 -0.791,1.871 -1.814,1.893 -1.025,0.02 -1.87,-0.792 -1.894,-1.815 -0.023,-1.024 0.792,-1.875 1.818,-1.895 1.025,-0.025 1.869,0.789 1.89,1.817 z"
   id="path1098" />
			</g>
			<g
   id="g1100">
				<path
   style="fill:#7585f8"
   d="m 227.439,156.553 c -0.032,1.024 -0.885,1.834 -1.911,1.801 -1.023,-0.03 -1.833,-0.887 -1.8,-1.911 0.027,-1.023 0.886,-1.829 1.915,-1.8 1.023,0.031 1.828,0.885 1.796,1.91 z"
   id="path1099" />
			</g>
			<g
   id="g1101">
				<path
   style="fill:#7585f8"
   d="m 226.665,164.269 c -0.125,1.018 -1.05,1.741 -2.07,1.621 -1.017,-0.125 -1.742,-1.056 -1.615,-2.069 0.124,-1.02 1.049,-1.74 2.068,-1.616 1.015,0.124 1.741,1.048 1.617,2.064 z"
   id="path1100" />
			</g>
		</g><g
     id="g1114">
			<g
   id="g1113">
				<g
   id="g1103">
					<path
   style="fill:#b5c2e6"
   d="m 175.404,178.241 -0.86,0.693 c -0.146,-0.189 -3.628,-4.714 -5.943,-11.42 -3.08,-8.93 -2.532,-17.42 1.597,-24.56 l 0.918,0.498 c -9.588,16.584 4.15,34.608 4.288,34.789 z"
   id="path1102" />
				</g>
				<g
   id="g1104">
					<path
   style="fill:#b5c2e6"
   d="m 170.109,144.273 c 0,0 -2.636,-5.98 3.611,-10.036 0.001,-0.001 1.444,6.439 -3.611,10.036 z"
   id="path1103" />
				</g>
				<g
   id="g1105">
					<path
   style="fill:#b5c2e6"
   d="m 167.989,149.946 c 0,0 -7.808,-2.813 -4.816,-11.771 0,10e-4 4.25,1.391 4.816,11.771 z"
   id="path1104" />
				</g>
				<g
   id="g1106">
					<path
   style="fill:#b5c2e6"
   d="m 167.757,149.807 c 0,0 8.258,1.326 10.78,-7.747 0,0 -4.413,-0.847 -10.78,7.747 z"
   id="path1105" />
				</g>
				<g
   id="g1107">
					<path
   style="fill:#b5c2e6"
   d="m 167.108,157.671 c 0,0 -8.105,-1.973 -6.03,-11.14 0,0 4.392,0.931 6.03,11.14 z"
   id="path1106" />
				</g>
				<g
   id="g1108">
					<path
   style="fill:#b5c2e6"
   d="m 166.86,157.554 c 0,0 8.399,0.459 9.99,-8.781 0.001,0 -4.503,-0.378 -9.99,8.781 z"
   id="path1107" />
				</g>
				<g
   id="g1109">
					<path
   style="fill:#b5c2e6"
   d="m 168.677,166.227 c 0,0 -8.396,-0.533 -7.896,-9.83 -0.001,0.001 4.53,0.146 7.896,9.83 z"
   id="path1108" />
				</g>
				<g
   id="g1110">
					<path
   style="fill:#b5c2e6"
   d="m 168.409,166.153 c 0,0 8.434,-1.004 8.447,-10.289 0,0 -4.548,0.407 -8.447,10.289 z"
   id="path1109" />
				</g>
				<g
   id="g1111">
					<path
   style="fill:#b5c2e6"
   d="m 171.717,173.218 c 0,0 -8.362,1.702 -10.286,-7.276 0,-0.001 4.477,-1.047 10.286,7.276 z"
   id="path1110" />
				</g>
				<g
   id="g1112">
					<path
   style="fill:#b5c2e6"
   d="m 171.439,173.222 c 0,0 8.005,-3.166 5.605,-11.997 10e-4,0 -4.348,1.576 -5.605,11.997 z"
   id="path1111" />
				</g>
			</g>
		</g><g
     id="g1129">
			<g
   id="g1115">
				<path
   style="fill:#7585f8"
   d="m 167.729,188.258 0.807,-1.025 c -16.298,-12.808 -16.312,-31.112 -16.312,-31.301 l -1.307,-0.01 c 0.003,0.186 -0.008,19.118 16.812,32.336 z"
   id="path1114" />
			</g>
			<g
   id="g1116">
				<path
   style="fill:#7585f8"
   d="m 151.772,156.933 c 0,0 0.994,-7.337 -3.12,-7.09 -1.75,0.104 -2.667,3.423 3.12,7.09 z"
   id="path1115" />
			</g>
			<g
   id="g1117">
				<path
   style="fill:#7585f8"
   d="m 152.038,159.662 c 0,0 -4.065,-6.736 -6.607,-3.597 -1.081,1.343 0.458,4.729 6.607,3.597 z"
   id="path1116" />
			</g>
			<g
   id="g1118">
				<path
   style="fill:#7585f8"
   d="m 151.671,160.297 c 0,0 -0.582,-7.582 3.476,-6.046 1.727,0.651 2.455,4.237 -3.476,6.046 z"
   id="path1117" />
			</g>
			<g
   id="g1119">
				<path
   style="fill:#7585f8"
   d="m 153.417,166.52 c 0,0 -0.935,-7.596 3.172,-6.257 1.746,0.569 2.633,4.132 -3.172,6.257 z"
   id="path1118" />
			</g>
			<g
   id="g1120">
				<path
   style="fill:#7585f8"
   d="m 155.204,171.52 c 0,0 -0.906,-7.591 3.193,-6.242 1.751,0.571 2.625,4.137 -3.193,6.242 z"
   id="path1119" />
			</g>
			<g
   id="g1121">
				<path
   style="fill:#7585f8"
   d="m 158.398,177.23 c 0,0 -2.169,-7.461 2.006,-6.877 1.78,0.247 3.23,3.664 -2.006,6.877 z"
   id="path1120" />
			</g>
			<g
   id="g1122">
				<path
   style="fill:#7585f8"
   d="m 161.554,181.476 c 0,0 -1.968,-7.502 2.209,-6.79 1.771,0.301 3.132,3.749 -2.209,6.79 z"
   id="path1121" />
			</g>
			<g
   id="g1123">
				<path
   style="fill:#7585f8"
   d="m 166.409,186.311 c 0,0 -3.804,-6.888 0.251,-7.406 1.728,-0.219 3.903,2.811 -0.251,7.406 z"
   id="path1122" />
			</g>
			<g
   id="g1124">
				<path
   style="fill:#7585f8"
   d="m 152.944,164.911 c 0,0 -4.073,-6.74 -6.613,-3.594 -1.079,1.339 0.457,4.719 6.613,3.594 z"
   id="path1123" />
			</g>
			<g
   id="g1125">
				<path
   style="fill:#7585f8"
   d="m 154.734,170.093 c 0,0 -4.077,-6.737 -6.616,-3.594 -1.08,1.339 0.46,4.723 6.616,3.594 z"
   id="path1124" />
			</g>
			<g
   id="g1126">
				<path
   style="fill:#7585f8"
   d="m 157.203,174.866 c 0,0 -5.315,-5.765 -7.032,-2.003 -0.733,1.6 1.46,4.621 7.032,2.003 z"
   id="path1125" />
			</g>
			<g
   id="g1127">
				<path
   style="fill:#7585f8"
   d="m 160.477,179.865 c 0,0 -5.798,-5.218 -7.105,-1.234 -0.553,1.695 1.897,4.491 7.105,1.234 z"
   id="path1126" />
			</g>
			<g
   id="g1128">
				<path
   style="fill:#7585f8"
   d="m 164.434,184.29 c 0,0 -6.347,-4.365 -7.074,-0.15 -0.302,1.795 2.464,4.233 7.074,0.15 z"
   id="path1127" />
			</g>
		</g><path
     style="fill:#acbfe2"
     d="m 235.14,192.038 c 0,1.614 -10.683,3.373 -41.754,3.373 -31.068,0 -43.783,-1.266 -43.783,-2.88 0,-1.617 12.715,-2.967 43.783,-2.967 31.07,0 41.754,0.857 41.754,2.474 z"
     id="path1129" /><path
     style="fill:#f5a4b7"
     d="m 160.683,175.648 c 0,0 -3.227,16.942 10.268,16.168 13.492,-0.774 52.287,4.308 56.662,-1.862 4.377,-6.17 2.916,-20.103 1.891,-20.875 -1.025,-0.773 -2.371,-7.563 -21.822,-3.774 -19.449,3.789 -36.299,1.032 -42.982,3.178 -6.685,2.145 -4.017,7.165 -4.017,7.165 z"
     id="path1130" /><path
     style="fill:#e887a0"
     d="m 173.869,167.556 c 0,0 5.417,1.178 5.834,3.928 0.416,2.75 0.987,19.295 14,19.416 10.458,0.098 10.257,-12.352 9.916,-17.333 -0.156,-2.296 0.373,-7.189 4.062,-8.262 z"
     id="path1131" /><path
     style="fill:#494c7f"
     d="m 183.688,161.543 c 0,0 -2.047,26.167 8.477,27.551 0,0 11.459,1.761 8.967,-27.551 z"
     id="path1132" /><path
     style="fill:#2d3354"
     d="m 202.892,177.662 c -0.269,0.402 -0.791,0.525 -1.166,0.274 l -14.577,-9.725 c -0.376,-0.25 -0.463,-0.779 -0.194,-1.182 v 0 c 0.268,-0.402 0.789,-0.524 1.166,-0.273 l 14.576,9.724 c 0.375,0.251 0.462,0.78 0.195,1.182 z"
     id="path1133" /><path
     style="fill:#2d3354"
     d="m 201.304,183.588 c -0.268,0.401 -0.905,0.447 -1.424,0.102 l -16.877,-11.259 c -0.518,-0.347 -0.721,-0.952 -0.452,-1.354 v 0 c 0.268,-0.401 0.905,-0.447 1.423,-0.102 l 16.878,11.259 c 0.518,0.346 0.719,0.952 0.452,1.354 z"
     id="path1134" /><path
     style="fill:#2d3354"
     d="m 198.266,187.413 c -0.229,0.345 -0.745,0.405 -1.15,0.135 l -13.143,-8.768 c -0.404,-0.271 -0.547,-0.77 -0.317,-1.114 v 0 c 0.229,-0.344 0.745,-0.404 1.149,-0.134 l 13.145,8.769 c 0.402,0.269 0.545,0.767 0.316,1.112 z"
     id="path1135" /><path
     style="fill:#2d3354"
     d="m 194.011,189.163 c -0.23,0.345 -0.607,0.497 -0.843,0.34 l -7.63,-5.089 c -0.234,-0.157 -0.238,-0.563 -0.009,-0.908 v 0 c 0.229,-0.345 0.606,-0.497 0.842,-0.34 l 7.63,5.09 c 0.234,0.156 0.238,0.562 0.01,0.907 z"
     id="path1136" /><path
     style="fill:#ffffff"
     d="m 175.638,138.4 c 0,0 4.199,-4.733 12.354,-1.179 8.145,3.55 8.005,-0.173 12.703,-1.097 4.697,-0.924 13.488,2.793 9.744,19.619 -1.209,5.434 -2.469,7.733 -5.234,10.042 -8.906,7.434 -24.234,4.101 -27.9,-1.284 -2.718,-3.992 -7.236,-20.881 -1.667,-26.101 z"
     id="path1137" /><path
     style="fill:#ebeff7"
     d="m 205.204,165.786 c 2.766,-2.309 4.025,-4.608 5.234,-10.042 2.31,-10.378 -0.15,-15.765 -3.477,-18.155 1.209,5.618 3.622,19.65 -1.943,21.569 -6.982,2.408 -3.607,7.612 -18.795,5.135 -5.709,-0.931 -8.453,-1.312 -9.883,-1.588 0.332,0.734 0.659,1.35 0.963,1.797 3.667,5.385 18.995,8.718 27.901,1.284 z"
     id="path1138" /><g
     id="g1152">
			<path
   style="fill:#e28c71"
   d="m 215.749,149.823 c 0.396,-0.206 1.726,-0.379 2.48,0.641 1.009,1.37 1.505,4.8 3.658,5.733 2.161,0.931 3.428,-0.02 4.361,-0.543 0.934,-0.528 1.056,-1.178 1.635,-1.42 0.575,-0.247 0.839,0.451 -0.452,1.654 -0.622,0.575 -3.339,3.783 -6.11,3.149 -3.635,-0.831 -7.927,-7.995 -5.572,-9.214 z"
   id="path1139" />
			<g
   id="g1141">
				<path
   style="fill:#f27851"
   d="m 223.358,164.645 c -1.421,3.296 -3.671,10.448 -2.092,10.715 1.584,0.268 2.56,-0.11 1.689,-0.516 -0.867,-0.403 -0.885,-0.512 -0.806,-0.779 0.494,-1.694 2.664,-4.662 3.796,-7.044 1.315,-2.761 -1.343,-5.258 -2.587,-2.376 z"
   id="path1140" />
				<path
   style="fill:#7585f8"
   d="m 220.723,174.526 c 0,0 1.281,0.776 2.233,0.318 0,0 1.517,0.447 0.469,0.706 -1.05,0.261 -2.998,0.321 -2.702,-1.024 z"
   id="path1141" />
			</g>
			<path
   style="fill:#d12250"
   d="m 221.021,159.413 c 0,0 6.625,-2.375 7.477,0.561 0.766,2.643 -4.399,11.776 -4.399,11.776 0,0 -1.813,0.504 -3.294,-0.574 l 1.619,-7.027 -8.585,0.75 3.621,-4.13 z"
   id="path1142" />
			<g
   id="g1144">
				<path
   style="fill:#f27851"
   d="m 216.512,169.931 c -1.42,3.296 -3.67,10.448 -2.091,10.714 1.578,0.266 2.561,-0.112 1.688,-0.515 -0.868,-0.405 -0.884,-0.512 -0.804,-0.78 0.49,-1.695 2.663,-4.661 3.794,-7.044 1.316,-2.763 -1.344,-5.258 -2.587,-2.375 z"
   id="path1143" />
				<path
   style="fill:#7585f8"
   d="m 213.876,179.809 c 0,0 1.281,0.779 2.232,0.321 0,0 1.52,0.448 0.47,0.705 -1.048,0.259 -2.994,0.318 -2.702,-1.026 z"
   id="path1144" />
			</g>
			<path
   style="fill:#e62552"
   d="m 214.91,161.601 c 0,0 5.889,0.724 6.741,3.659 0.768,2.641 -4.398,11.775 -4.398,11.775 0,0 -1.813,0.503 -3.295,-0.575 l 1.531,-7.726 c 0,0 -3.814,-0.964 -4.731,-2.802 -2.181,-4.368 1.182,-4.301 1.182,-4.301 z"
   id="path1145" />
			<path
   style="fill:#fcdcda"
   d="m 219.367,160.27 c 0.614,-2.506 0.158,-5.785 -0.77,-8.083 -1.287,-3.188 -4.424,-2.797 -6.265,-2.2 -1.842,0.597 -4.887,1.505 -3.07,5.387 1.267,2.709 0.896,4.567 0.503,7.487 v 0 c -0.013,0.075 -0.023,0.145 -0.038,0.219 -0.006,-0.001 -0.011,-0.003 -0.011,-0.003 0.003,0.003 0.005,0.003 0.011,0.003 -0.919,3.256 8.941,0.037 9.64,-2.81 z"
   id="path1146" />
			<path
   style="fill:#e67052"
   d="m 212.95,147.47 c 0,0 0.926,1.404 -0.019,2.36 -0.969,0.979 3.58,2.612 3.35,1.747 -0.298,-1.115 -0.977,-1.704 -0.613,-3.091 z"
   id="path1147" />
			<path
   style="fill:#f27851"
   d="m 214.936,144.269 c 1.099,0.768 2.715,4.625 1.829,5.657 -0.388,0.444 -2.273,0.275 -3.676,-1.319 -0.579,-0.65 -1.36,-1.921 -0.823,-3.39 0.241,-0.669 1.392,-1.845 2.67,-0.948 z"
   id="path1148" />
			<path
   style="fill:#062440"
   d="m 215.988,144.609 c 0.287,0.472 0.244,0.598 -1.238,1.045 -1.475,0.449 -1.751,0.387 -1.544,0.725 0.602,0.994 -0.501,0.94 0.229,2.125 0.733,1.186 -0.641,0.6 -1.35,-0.355 -0.141,-0.192 -0.92,-1.115 -0.411,-2.793 0.592,-1.958 3.259,-2.474 4.314,-0.747 z"
   id="path1149" />
			<path
   style="fill:#062440"
   d="m 211.674,145.356 c -0.561,1.56 0.27,2.601 0.411,2.793 0.527,0.709 1.429,1.23 1.545,0.937 0.138,-0.356 -0.85,-0.342 -0.705,-1.268 0.143,-0.928 -0.473,-1.032 -0.447,-1.826 0.03,-0.796 0.628,-0.732 2.295,-1.239 0.678,-0.205 0.771,-0.495 0.649,-0.762 -1.237,-0.917 -3.16,-0.274 -3.748,1.365 z"
   id="path1150" />
			<path
   style="fill:#efbebd"
   d="m 209.765,162.861 c -0.013,0.075 -0.023,0.145 -0.038,0.219 -0.006,-0.001 -0.011,-0.003 -0.011,-0.003 0.003,0.003 0.005,0.003 0.011,0.003 -0.711,2.52 5.022,1.163 7.982,-0.896 0.177,-0.969 -2.347,-0.117 -3.561,-0.454 -2.813,-0.786 4.538,-4.139 2.996,-4.204 -1.664,-0.072 -3.604,1.082 -3.576,-1.33 0.028,-2.409 -0.109,-3.354 -1.402,-4.382 -2.639,-2.103 -3.838,0.917 -3.28,2.551 0.091,0.314 0.207,0.645 0.376,1.01 1.266,2.708 0.896,4.566 0.503,7.486 z"
   id="path1151" />
			<path
   style="fill:#f27851"
   d="m 210.537,151.418 c 0.541,-0.004 2.001,0.427 2.098,1.635 0.134,1.623 -1.599,4.793 -0.023,6.537 1.579,1.743 3.485,1.482 4.773,1.434 1.29,-0.049 1.84,-0.551 2.586,-0.511 0.742,0.039 0.555,0.755 -1.538,1.229 -1.004,0.225 -5.851,1.803 -8.247,0.05 -3.141,-2.304 -2.829,-10.351 0.351,-10.374 z"
   id="path1152" />
		</g></g>
</svg>
