<?xml version="1.0" encoding="UTF-8" standalone="no"?>
<!-- Generator: Adobe Illustrator 27.5.0, SVG Export Plug-In . SVG Version: 6.00 Build 0)  -->

<svg
   version="1.1"
   id="Layer_1"
   x="0px"
   y="0px"
   viewBox="0 0 96.257874 64.593094"
   xml:space="preserve"
   sodipodi:docname="26764315_2002.i402.001.P.m004.c25.Dental health flat icons.svg"
   inkscape:export-filename="g161.svg"
   inkscape:export-xdpi="450.24857"
   inkscape:export-ydpi="450.24857"
   width="96.257874"
   height="64.593094"
   xmlns:inkscape="http://www.inkscape.org/namespaces/inkscape"
   xmlns:sodipodi="http://sodipodi.sourceforge.net/DTD/sodipodi-0.dtd"
   xmlns="http://www.w3.org/2000/svg"
   xmlns:svg="http://www.w3.org/2000/svg"><defs
   id="defs1251" /><sodipodi:namedview
   id="namedview1251"
   pagecolor="#505050"
   bordercolor="#ffffff"
   borderopacity="1"
   inkscape:showpageshadow="0"
   inkscape:pageopacity="0"
   inkscape:pagecheckerboard="1"
   inkscape:deskcolor="#505050" />
<g
   id="g161"
   inkscape:export-filename="g161.svg"
   inkscape:export-xdpi="450.24857"
   inkscape:export-ydpi="450.24857"
   transform="translate(-145.99667,-37.337903)">
			<path
   style="fill:#c9d6f2"
   d="m 204.688,98.785 -43.795,0.211 C 140.19,86.644 145.868,62.568 149.829,56.431 c 12.601,-19.53 35.668,-6.36 54.609,-16.896 14.654,-8.15 34.647,7.552 25.463,27.704 -7.771,17.056 24.6,28.306 7.071,32.5 z"
   id="path88" />
			<g
   id="g90">
				<path
   style="fill:#5a70e0"
   d="m 194.74,42.74 c 0,0 6.141,22.257 -12.12,30.045 0,0 -8.609,-18.508 12.12,-30.045 z"
   id="path89" />
				<path
   style="fill:#7585f8"
   d="m 182.62,72.785 c 0,0 6.352,-23.014 12.12,-30.045 0,0 -21.597,9.934 -12.12,30.045 z"
   id="path90" />
			</g>
			<g
   id="g113">
				<g
   id="g91">
					<path
   style="fill:#b5c2e6"
   d="m 180.849,96.264 c 27.908,-1.5 42.893,-17.563 43.042,-17.731 L 223.194,77.9 c -0.146,0.159 -14.889,15.945 -42.396,17.422 z"
   id="path91" />
				</g>
				<g
   id="g92">
					
						<rect
   x="212.14799"
   y="82.320999"
   transform="matrix(0.4673,-0.8841,0.8841,0.4673,41.5546,234.5561)"
   style="fill:#b5c2e6"
   width="6.5619998"
   height="0.94400001"
   id="rect91" />
				</g>
				<g
   id="g93">
					<polygon
   style="fill:#b5c2e6"
   points="210.6,82.612 209.693,82.346 207.897,88.658 208.81,88.92 "
   id="polygon92" />
				</g>
				<g
   id="g94">
					<polygon
   style="fill:#b5c2e6"
   points="203.895,85.53 202.991,85.272 201.194,91.583 202.105,91.846 "
   id="polygon93" />
				</g>
				<g
   id="g95">
					
						<rect
   x="192.76601"
   y="89.984001"
   transform="matrix(0.2735,-0.9619,0.9619,0.2735,55.4303,254.2947)"
   style="fill:#b5c2e6"
   width="6.5640001"
   height="0.94199997"
   id="rect94" />
				</g>
				<g
   id="g96">
					<polygon
   style="fill:#b5c2e6"
   points="190.661,89.076 189.755,88.82 187.963,95.129 188.871,95.384 "
   id="polygon95" />
				</g>
				<g
   id="g97">
					<polygon
   style="fill:#b5c2e6"
   points="221.699,83.444 215.203,84.354 215.331,85.289 221.834,84.374 "
   id="polygon96" />
				</g>
				<g
   id="g98">
					<polygon
   style="fill:#b5c2e6"
   points="216.054,88.183 209.494,87.841 209.447,88.786 216.003,89.126 "
   id="polygon97" />
				</g>
				<g
   id="g99">
					<polygon
   style="fill:#b5c2e6"
   points="208.522,93.015 202.279,90.998 201.986,91.901 208.236,93.911 "
   id="polygon98" />
				</g>
				<g
   id="g100">
					<polygon
   style="fill:#b5c2e6"
   points="200.423,95.855 194.287,93.524 193.949,94.405 200.092,96.736 "
   id="polygon99" />
				</g>
				<g
   id="g101">
					<polygon
   style="fill:#b5c2e6"
   points="191.416,97.741 185.515,94.868 185.102,95.711 191.001,98.592 "
   id="polygon100" />
				</g>
				<g
   id="g102">
					<path
   style="fill:#b5c2e6"
   d="m 223.561,75.755 c -1.179,0.461 -1.758,1.791 -1.295,2.964 0.456,1.174 1.788,1.756 2.962,1.293 1.175,-0.461 1.751,-1.791 1.296,-2.963 -0.463,-1.175 -1.789,-1.754 -2.963,-1.294 z"
   id="path101" />
				</g>
				<g
   id="g103">
					<path
   style="fill:#b5c2e6"
   d="m 216.189,76.466 c -1.14,0.539 -1.631,1.903 -1.092,3.042 0.536,1.146 1.9,1.634 3.038,1.095 1.143,-0.539 1.635,-1.901 1.1,-3.041 -0.54,-1.142 -1.902,-1.635 -3.046,-1.096 z"
   id="path102" />
				</g>
				<g
   id="g104">
					<path
   style="fill:#b5c2e6"
   d="m 210.073,78.974 c -1.259,0.131 -2.167,1.262 -2.024,2.521 0.135,1.254 1.263,2.158 2.52,2.021 1.256,-0.142 2.159,-1.267 2.021,-2.522 -0.133,-1.258 -1.266,-2.159 -2.517,-2.02 z"
   id="path103" />
				</g>
				<g
   id="g105">
					<path
   style="fill:#b5c2e6"
   d="m 203.369,81.895 c -1.257,0.141 -2.163,1.27 -2.026,2.522 0.139,1.258 1.271,2.162 2.521,2.025 1.257,-0.135 2.165,-1.265 2.025,-2.521 -0.138,-1.254 -1.271,-2.166 -2.52,-2.026 z"
   id="path104" />
				</g>
				<g
   id="g106">
					<path
   style="fill:#b5c2e6"
   d="m 196.871,83.789 c -1.258,0.146 -2.167,1.268 -2.026,2.522 0.136,1.254 1.265,2.164 2.519,2.028 1.257,-0.142 2.164,-1.262 2.029,-2.521 -0.142,-1.26 -1.272,-2.162 -2.522,-2.029 z"
   id="path105" />
				</g>
				<g
   id="g107">
					<path
   style="fill:#b5c2e6"
   d="m 190.13,85.439 c -1.257,0.138 -2.161,1.265 -2.023,2.521 0.139,1.258 1.269,2.162 2.522,2.021 1.256,-0.138 2.16,-1.26 2.025,-2.516 -0.137,-1.257 -1.267,-2.163 -2.524,-2.026 z"
   id="path106" />
				</g>
				<g
   id="g108">
					<path
   style="fill:#b5c2e6"
   d="m 224.725,85.802 c -0.889,0.887 -2.339,0.884 -3.227,-0.005 -0.893,-0.895 -0.893,-2.346 0.003,-3.234 0.891,-0.891 2.343,-0.89 3.231,0.004 0.888,0.893 0.884,2.335 -0.007,3.235 z"
   id="path107" />
				</g>
				<g
   id="g109">
					<path
   style="fill:#b5c2e6"
   d="m 218.576,91.071 c -1.047,0.705 -2.467,0.425 -3.173,-0.62 -0.706,-1.043 -0.427,-2.467 0.618,-3.172 1.048,-0.703 2.466,-0.431 3.171,0.62 0.708,1.047 0.43,2.464 -0.616,3.172 z"
   id="path108" />
				</g>
				<g
   id="g110">
					<path
   style="fill:#b5c2e6"
   d="m 210.219,96.453 c -1.193,0.415 -2.493,-0.22 -2.905,-1.41 -0.41,-1.195 0.221,-2.492 1.41,-2.906 1.193,-0.416 2.498,0.218 2.909,1.413 0.416,1.192 -0.218,2.491 -1.414,2.903 z"
   id="path109" />
				</g>
				<g
   id="g111">
					<path
   style="fill:#b5c2e6"
   d="m 201.943,99.373 c -1.213,0.352 -2.483,-0.342 -2.833,-1.558 -0.354,-1.211 0.343,-2.484 1.558,-2.832 1.209,-0.356 2.479,0.345 2.833,1.563 0.351,1.21 -0.346,2.476 -1.558,2.827 z"
   id="path110" />
				</g>
				<g
   id="g112">
					<path
   style="fill:#b5c2e6"
   d="m 192.606,101.388 c -1.241,0.239 -2.437,-0.571 -2.684,-1.813 -0.237,-1.237 0.578,-2.441 1.814,-2.676 1.242,-0.24 2.436,0.57 2.677,1.811 0.238,1.237 -0.569,2.438 -1.807,2.678 z"
   id="path111" />
				</g>
			</g>
			<path
   style="fill:#acbfe2"
   d="m 242.036,98.592 c 0,1.614 -2.371,3.339 -39.458,3.339 -37.086,0 -43.431,-1.31 -43.431,-2.924 0,-1.617 6.345,-2.924 43.431,-2.924 37.087,0 39.458,0.893 39.458,2.509 z"
   id="path113" />
			<g
   id="g128">
				<g
   id="g114">
					<path
   style="fill:#b5c2e6"
   d="m 175.258,78.317 1.186,-0.087 c -1.385,-18.825 10.922,-30.067 11.049,-30.183 l -0.795,-0.886 c -0.125,0.118 -12.868,11.729 -11.44,31.156 z"
   id="path114" />
				</g>
				<g
   id="g115">
					<path
   style="fill:#b5c2e6"
   d="m 186.542,48.358 c 0,0 5.547,-3.834 2.854,-6.45 -1.143,-1.112 -3.939,0.307 -2.854,6.45 z"
   id="path115" />
				</g>
				<g
   id="g116">
					<path
   style="fill:#b5c2e6"
   d="m 184.869,50.212 c 0,0 2.037,-6.868 -1.636,-6.652 -1.566,0.096 -2.899,3.21 1.636,6.652 z"
   id="path116" />
				</g>
				<g
   id="g117">
					<path
   style="fill:#b5c2e6"
   d="m 184.216,50.354 c 0,0 4.745,-5.045 6.201,-1.372 0.622,1.563 -1.344,4.254 -6.201,1.372 z"
   id="path117" />
				</g>
				<g
   id="g118">
					<path
   style="fill:#b5c2e6"
   d="m 181.1,55.349 c 0,0 4.538,-5.29 6.157,-1.706 0.688,1.523 -1.164,4.306 -6.157,1.706 z"
   id="path118" />
				</g>
				<g
   id="g119">
					<path
   style="fill:#b5c2e6"
   d="m 178.833,59.619 c 0,0 4.552,-5.267 6.16,-1.682 0.691,1.529 -1.172,4.306 -6.16,1.682 z"
   id="path119" />
				</g>
				<g
   id="g120">
					<path
   style="fill:#b5c2e6"
   d="m 176.951,65.273 c 0,0 3.69,-6.037 5.858,-2.871 0.927,1.349 -0.482,4.42 -5.858,2.871 z"
   id="path120" />
				</g>
				<g
   id="g121">
					<path
   style="fill:#b5c2e6"
   d="m 176.032,70.001 c 0,0 3.84,-5.929 5.924,-2.681 0.884,1.377 -0.601,4.409 -5.924,2.681 z"
   id="path121" />
				</g>
				<g
   id="g122">
					<path
   style="fill:#b5c2e6"
   d="m 175.758,76.235 c 0,0 2.301,-6.785 5.138,-4.377 1.206,1.029 0.502,4.352 -5.138,4.377 z"
   id="path122" />
				</g>
				<g
   id="g123">
					<path
   style="fill:#b5c2e6"
   d="m 181.893,54.043 c 0,0 2.036,-6.876 -1.641,-6.655 -1.563,0.095 -2.894,3.204 1.641,6.655 z"
   id="path123" />
				</g>
				<g
   id="g124">
					<path
   style="fill:#b5c2e6"
   d="m 179.505,58.428 c 0,0 2.032,-6.877 -1.642,-6.657 -1.563,0.095 -2.894,3.208 1.642,6.657 z"
   id="path124" />
				</g>
				<g
   id="g125">
					<path
   style="fill:#b5c2e6"
   d="m 177.81,63.018 c 0,0 0.615,-7.113 -2.969,-5.96 -1.528,0.488 -2.213,3.818 2.969,5.96 z"
   id="path125" />
				</g>
				<g
   id="g126">
					<path
   style="fill:#b5c2e6"
   d="m 176.455,68.288 c 0,0 -0.048,-7.102 -3.53,-5.538 -1.48,0.669 -1.859,4.033 3.53,5.538 z"
   id="path126" />
				</g>
				<g
   id="g127">
					<path
   style="fill:#b5c2e6"
   d="m 175.906,73.665 c 0,0 -0.958,-6.948 -4.24,-4.852 -1.394,0.899 -1.336,4.257 4.24,4.852 z"
   id="path127" />
				</g>
			</g>
			<g
   id="g139">
				<g
   id="g129">
					<path
   style="fill:#7585f8"
   d="m 171.338,92.779 -0.857,0.731 c -0.153,-0.189 -3.833,-4.707 -6.381,-11.483 -3.391,-9.021 -3.069,-17.696 0.943,-25.094 l 0.95,0.482 c -9.316,17.183 5.198,35.183 5.345,35.364 z"
   id="path128" />
				</g>
				<g
   id="g130">
					<path
   style="fill:#7585f8"
   d="m 164.989,58.279 c 0,0 -2.854,-6.026 3.404,-10.337 0.001,0 1.652,6.529 -3.404,10.337 z"
   id="path129" />
				</g>
				<g
   id="g131">
					<path
   style="fill:#7585f8"
   d="m 162.986,64.126 c 0,0 -8.043,-2.65 -5.242,-11.87 0,0 4.374,1.3 5.242,11.87 z"
   id="path130" />
				</g>
				<g
   id="g132">
					<path
   style="fill:#7585f8"
   d="m 162.745,63.99 c 0,0 8.459,1.123 10.778,-8.203 0,0 -4.524,-0.74 -10.778,8.203 z"
   id="path131" />
				</g>
				<g
   id="g133">
					<path
   style="fill:#7585f8"
   d="m 162.303,72.029 c 0,0 -8.321,-1.785 -6.462,-11.192 0,0 4.505,0.825 6.462,11.192 z"
   id="path132" />
				</g>
				<g
   id="g134">
					<path
   style="fill:#7585f8"
   d="m 162.047,71.917 c 0,0 8.579,0.234 9.944,-9.235 0,0 -4.604,-0.259 -9.944,9.235 z"
   id="path133" />
				</g>
				<g
   id="g135">
					<path
   style="fill:#7585f8"
   d="m 164.141,80.713 c 0,0 -8.579,-0.309 -8.327,-9.806 -0.001,0 4.624,0.023 8.327,9.806 z"
   id="path134" />
				</g>
				<g
   id="g136">
					<path
   style="fill:#7585f8"
   d="m 163.866,80.645 c 0,0 8.573,-1.26 8.329,-10.73 0,-0.001 -4.628,0.542 -8.329,10.73 z"
   id="path135" />
				</g>
				<g
   id="g137">
					<path
   style="fill:#7585f8"
   d="m 167.438,87.759 c 0,0 -8.482,1.969 -10.695,-7.136 -0.001,0 4.537,-1.191 10.695,7.136 z"
   id="path136" />
				</g>
				<g
   id="g138">
					<path
   style="fill:#7585f8"
   d="m 167.154,87.771 c 0,0 8.077,-3.453 5.383,-12.394 0,0 -4.392,1.729 -5.383,12.394 z"
   id="path137" />
				</g>
			</g>
			<path
   style="fill:#f27851"
   d="m 227.311,58.794 c 0,0 -0.871,-0.458 -1.777,0.797 -1.048,1.463 -0.858,5.798 -2.89,7.308 -2.029,1.507 -3.67,0.859 -4.825,0.562 -1.153,-0.3 -1.484,-0.933 -2.174,-1.034 -0.688,-0.104 -0.761,0.68 0.979,1.578 0.834,0.432 4.699,3.019 7.477,1.657 3.636,-1.786 5.418,-9.96 3.21,-10.868 z"
   id="path139" />
			<g
   id="g141">
				<g
   id="g140">
					<path
   style="fill:#062440"
   d="m 227.947,52.723 c 0,0 -0.56,-0.856 0.646,-1.024 2.774,-0.386 6.676,2.137 5.436,6.845 -1.666,6.321 0.688,4.916 2.018,5.975 4.05,3.23 -1.157,8.195 -5.507,5.035 -2.413,-1.753 0.325,-5.153 -0.291,-6.42 -0.616,-1.259 -1.863,-1.639 -2.032,-3.769 -0.169,-2.135 -0.537,-4.813 -0.735,-5.365 -0.193,-0.562 0.033,-1.123 0.465,-1.277 z"
   id="path140" />
				</g>
			</g>
			<g
   id="g144">
				<path
   style="fill:#ee9d7f"
   d="m 221.188,79.397 c 0.357,5.517 2.221,14.102 2.483,18.744 0.019,0.322 0.064,0.382 -1.01,0.655 -1.242,0.313 -0.287,0.962 1.656,0.944 1.824,-0.018 2.638,-8.709 2.813,-13.308 0.055,-1.295 -0.404,-5.202 0.219,-8.889 0.074,1.379 0.183,2.947 0.339,4.666 0.466,5.032 5.941,11.63 6.354,15.861 0.03,0.327 -0.009,0.452 -0.97,0.781 -0.961,0.324 -0.029,0.933 1.638,0.887 1.667,-0.048 0.648,-8.81 -0.218,-12.913 -0.755,-3.587 -13.717,-13.793 -13.304,-7.428 z"
   id="path141" />
				<path
   style="fill:#e62552"
   d="m 222.967,69.174 c 3.322,2.676 7.591,1.845 9.398,1.423 0.489,4.771 3.347,22.651 3.682,25.11 -1.459,0.583 -1.943,0.708 -2.365,0.708 -7.041,-10.974 -6.232,-15.676 -6.308,-17.055 -0.265,1.591 0.605,9.397 -0.915,17.055 -0.511,0.396 -2.055,0.912 -3.159,0 -0.056,-0.492 -2.902,-12.161 -2.469,-17.016 0.418,-4.668 1.375,-8.452 2.136,-10.225 z"
   id="path142" />
				<path
   style="fill:#7585f8"
   d="m 225.341,98.695 c 0,0 -1.449,0.694 -2.345,0 0,0 -1.633,0.266 -0.607,0.746 1.03,0.482 3.013,0.879 2.952,-0.746 z"
   id="path143" />
				<path
   style="fill:#7585f8"
   d="m 235.419,98.854 c 0,0 -1.45,0.692 -2.345,0 0,0 -1.635,0.268 -0.604,0.747 1.028,0.479 3.009,0.878 2.949,-0.747 z"
   id="path144" />
			</g>
			<path
   style="fill:#f27851"
   d="m 223.124,69.765 c 0,0 1.044,-0.44 0.575,-4.622 -0.223,-1.996 -0.982,-2.132 0.669,-4.313 1.709,-2.256 4.8,-3.183 5.78,-1.726 1.841,2.745 1.14,4.104 0.966,6.013 -0.104,1.107 -1.053,2.435 0.448,5.245 z"
   id="path145" />
			<path
   style="fill:#fcdcda"
   d="m 232.272,70.839 c 0,0 -5.773,1.839 -9.603,-0.937 0,0 -0.95,-6.329 1.18,-8.344 0,0 1.761,1.064 3.193,-0.956 1.153,-1.631 2.614,-1.954 2.614,-1.954 0,0 0.571,0.288 0.985,0.621 0.696,0.554 0.929,1.254 0.929,1.254 z"
   id="path146" />
			<g
   id="g147">
				<path
   style="fill:#e0623f"
   d="m 230.151,54.627 c 0,0 -1.407,2.583 -0.989,3.66 0.233,0.611 -2.788,1.814 -2.446,1.168 0.635,-1.194 0.532,-1.708 -0.075,-2.749 z"
   id="path147" />
			</g>
			<g
   id="g149">
				<g
   id="g148">
					<path
   style="fill:#f27851"
   d="m 227.719,52.734 c -0.978,0.832 -2.217,4.634 -1.3,5.532 0.398,0.394 2.188,0.708 3.368,-1.571 0.382,-0.741 1.136,-1.948 0.521,-3.296 -0.28,-0.612 -1.453,-1.629 -2.589,-0.665 z"
   id="path148" />
				</g>
			</g>
			<g
   id="g150">
				<path
   style="fill:#062440"
   d="m 227.012,52.859 c -0.123,0.515 -0.159,0.814 1.029,0.768 1.461,-0.056 1.153,0.95 0.983,1.291 -0.493,0.995 1.288,0.079 0.686,1.269 -0.605,1.189 1.096,-0.187 1.241,-0.361 0.15,-0.171 0.683,-0.943 -0.03,-2.749 -0.711,-1.806 -3.533,-1.794 -3.909,-0.218 z"
   id="path149" />
			</g>
			<path
   style="fill:#efbebd"
   d="m 232.365,70.597 c 0,0 0.191,1.633 -6.506,0.442 -1.016,-0.181 0.937,-2.002 2.154,-2.084 1.397,-0.09 0.185,-1.65 -1.441,-1.696 -1.629,-0.046 -2.35,-1.193 -0.801,-0.997 1.55,0.201 2.651,-1.214 2.241,-2.623 -0.411,-1.414 1.604,-4.042 1.604,-4.042 l 1.928,0.856 c 0.017,0.041 0.027,0.07 0.027,0.07 z"
   id="path150" />
			<g
   id="g160">
				<path
   style="fill:#494c7f"
   d="m 174.854,77.191 c 0.779,1.207 0.433,2.82 -0.776,3.602 v 0 c -1.21,0.78 -2.822,0.432 -3.602,-0.775 l -2.86,-4.429 c -0.779,-1.209 -0.433,-2.822 0.776,-3.602 v 0 c 1.209,-0.781 2.822,-0.435 3.602,0.774 z"
   id="path151" />
				<path
   style="fill:#494c7f"
   d="m 202.349,59.44 c 0.779,1.207 0.432,2.82 -0.777,3.602 v 0 c -1.207,0.779 -2.821,0.432 -3.601,-0.775 l -2.859,-4.429 c -0.78,-1.209 -0.433,-2.822 0.775,-3.602 v 0 c 1.208,-0.78 2.821,-0.434 3.602,0.775 z"
   id="path152" />
				<path
   style="fill:#f5a4b7"
   d="m 174.506,91.71 c 12.915,-9.429 46.356,-24.082 46.747,-33.023 0.232,-5.351 -2.896,-11.804 -10.352,-10.218 -5.004,1.064 -9.817,9.155 -22.739,17.499 -25.898,16.721 -27.05,13.201 -29.673,16.575 -5.097,6.556 3.1,18.598 16.017,9.167 z"
   id="path153" />
				<path
   style="fill:#e887a0"
   d="m 163.766,95.032 c 0,0 -3.809,-5.902 -0.281,-8.794 0,0 1.372,-1.271 5.135,-0.859 2.445,0.268 2.503,-1.218 2.623,-2.271 0.186,-1.616 2.032,-4.574 5.673,-3.662 2.978,0.746 2.333,-0.605 2.492,-1.61 0.357,-2.231 1.717,-5.905 5.854,-3.778 0.918,0.472 3.314,2.432 4.112,0.38 0.798,-2.052 -0.74,-6.693 4.389,-7.671 2.724,-0.52 4.539,2.668 5.712,1.996 1.556,-0.892 0.009,-7.764 3.581,-8.227 3.085,-0.399 6.022,2.873 6.513,1.71 0.49,-1.163 1.206,-7.31 4.299,-8.229 2.931,-0.87 5.37,0.863 7.387,4.254 0,0 2.498,3.801 -19.991,16.783 -22.489,12.983 -31.773,21.264 -37.498,19.978 z"
   id="path154" />
				<path
   style="fill:#ebeff7"
   d="m 163.658,88.757 c -0.303,-1.873 2.757,-3.737 7.488,-1.247 4.732,2.49 9.207,8.41 5.292,10.938 -3.913,2.526 -9.942,7.84 -12.78,-9.691 z"
   id="path155" />
				<path
   style="fill:#ffffff"
   d="m 215.561,55.701 c -1.544,-1.021 -4.429,0.949 -4.113,6.155 0.313,5.206 3.779,11.562 7.597,9.097 3.818,-2.465 10.963,-5.691 -3.484,-15.252 z"
   id="path156" />
				<path
   style="fill:#ebeff7"
   d="m 205.608,61.772 c -1.709,-1.132 -4.9,1.05 -4.554,6.812 0.347,5.761 4.182,12.793 8.407,10.065 4.225,-2.727 12.131,-6.296 -3.853,-16.877 z"
   id="path157" />
				<path
   style="fill:#ffffff"
   d="m 176.876,80.322 c -1.709,-1.131 -4.901,1.051 -4.555,6.811 0.349,5.763 4.184,12.793 8.409,10.065 4.224,-2.725 12.13,-6.296 -3.854,-16.876 z"
   id="path158" />
				<path
   style="fill:#ebeff7"
   d="m 180.246,78.146 c -0.327,-2.022 2.976,-4.033 8.083,-1.346 5.108,2.688 9.938,9.077 5.713,11.805 -4.225,2.727 -10.732,8.463 -13.796,-10.459 z"
   id="path159" />
				<path
   style="fill:#ffffff"
   d="m 195.514,68.289 c -1.708,-1.132 -4.899,1.051 -4.554,6.812 0.349,5.762 4.184,12.793 8.408,10.065 4.224,-2.728 12.13,-6.297 -3.854,-16.877 z"
   id="path160" />
			</g>
			<path
   style="fill:#f27851"
   d="m 230.765,59.349 c 0,0 -0.561,-0.679 -1.741,0.043 -1.368,0.844 -2.716,4.478 -4.909,5.019 -2.193,0.54 -3.322,-0.562 -4.169,-1.206 -0.848,-0.647 -0.899,-1.28 -1.432,-1.604 -0.532,-0.322 -0.865,0.298 0.259,1.639 0.539,0.646 2.827,4.112 5.585,3.951 3.616,-0.212 7.909,-6.33 6.407,-7.842 z"
   id="path161" />
		</g>
</svg>
