<?xml version="1.0" encoding="UTF-8" standalone="no"?>
<!-- Generator: Adobe Illustrator 27.5.0, SVG Export Plug-In . SVG Version: 6.00 Build 0)  -->

<svg
   version="1.1"
   id="Layer_1"
   x="0px"
   y="0px"
   viewBox="0 0 85.425797 66.460999"
   xml:space="preserve"
   sodipodi:docname="26764315_2002.i402.001.P.m004.c25.Dental health flat icons.svg"
   inkscape:export-filename="g161.svg"
   inkscape:export-xdpi="450.24857"
   inkscape:export-ydpi="450.24857"
   width="85.425797"
   height="66.460999"
   xmlns:inkscape="http://www.inkscape.org/namespaces/inkscape"
   xmlns:sodipodi="http://sodipodi.sourceforge.net/DTD/sodipodi-0.dtd"
   xmlns="http://www.w3.org/2000/svg"
   xmlns:svg="http://www.w3.org/2000/svg"><defs
   id="defs1251" /><sodipodi:namedview
   id="namedview1251"
   pagecolor="#505050"
   bordercolor="#ffffff"
   borderopacity="1"
   inkscape:showpageshadow="0"
   inkscape:pageopacity="0"
   inkscape:pagecheckerboard="1"
   inkscape:deskcolor="#505050" />
<g
   id="g1252"
   transform="translate(-262.283,-127.771)"><path
     style="fill:#c9d6f2"
     d="m 270.215,189.713 c 0,0 -14.092,-19.135 0,-32.898 14.092,-13.764 -0.908,-21.938 12.99,-26.893 7.354,-2.623 19.001,7.621 37.585,7.445 10.22,-0.096 31.467,1.117 24.472,34.689 -0.852,4.084 -5.646,11.121 1.963,16.758 7.607,5.637 -77.01,0.899 -77.01,0.899 z"
     id="path1153" /><g
     id="g1165">
			<g
   id="g1164">
				<g
   id="g1154">
					<path
   style="fill:#b5c2e6"
   d="m 314.806,181.589 0.539,0.966 c 0.205,-0.123 5.126,-3.018 9.78,-8.372 6.193,-7.132 8.858,-15.212 7.695,-23.377 l -1.037,0.118 c 2.696,18.965 -16.782,30.549 -16.977,30.665 z"
   id="path1154" />
				</g>
				<g
   id="g1155">
					<path
   style="fill:#b5c2e6"
   d="m 332.41,152.06 c 0,0 4.681,-4.562 0.4,-10.658 0,-10e-4 -3.745,5.433 -0.4,10.658 z"
   id="path1155" />
				</g>
				<g
   id="g1156">
					<path
   style="fill:#b5c2e6"
   d="m 332.257,158.115 c 0,0 8.292,0.309 8.866,-9.117 0,0 -4.462,-0.299 -8.866,9.117 z"
   id="path1156" />
				</g>
				<g
   id="g1157">
					<path
   style="fill:#b5c2e6"
   d="m 332.524,158.073 c 0,0 -8.155,-1.856 -7.104,-11.216 0,0 4.41,0.865 7.104,11.216 z"
   id="path1157" />
				</g>
				<g
   id="g1158">
					<path
   style="fill:#b5c2e6"
   d="m 330.188,165.609 c 0,0 8.254,1.198 9.756,-8.079 -0.001,0 -4.422,-0.778 -9.756,8.079 z"
   id="path1158" />
				</g>
				<g
   id="g1159">
					<path
   style="fill:#b5c2e6"
   d="m 330.461,165.594 c 0,0 -7.963,-2.714 -5.984,-11.879 0,0 4.318,1.333 5.984,11.879 z"
   id="path1159" />
				</g>
				<g
   id="g1160">
					<path
   style="fill:#b5c2e6"
   d="m 325.535,172.96 c 0,0 7.987,2.643 10.998,-6.167 0,0 -4.258,-1.558 -10.998,6.167 z"
   id="path1160" />
				</g>
				<g
   id="g1161">
					<path
   style="fill:#b5c2e6"
   d="m 325.811,172.991 c 0,0 -7.448,-4.083 -3.99,-12.7 0,0 4.067,2.077 3.99,12.7 z"
   id="path1161" />
				</g>
				<g
   id="g1162">
					<path
   style="fill:#b5c2e6"
   d="m 320.102,178.308 c 0,0 7.121,4.704 12.261,-2.905 0,-0.001 -3.762,-2.644 -12.261,2.905 z"
   id="path1162" />
				</g>
				<g
   id="g1163">
					<path
   style="fill:#b5c2e6"
   d="m 320.357,178.415 c 0,0 -6.24,-5.928 -0.715,-13.223 10e-4,0 3.445,3.087 0.715,13.223 z"
   id="path1163" />
				</g>
			</g>
		</g><g
     id="g1188">
			<g
   id="g1166">
				<path
   style="fill:#7585f8"
   d="m 314.991,189.999 c 18.326,-13.383 21.404,-30.95 21.433,-31.13 l -0.755,-0.122 c -0.029,0.173 -3.068,17.442 -21.132,30.634 z"
   id="path1165" />
			</g>
			<g
   id="g1167">
				
					<rect
   x="332.17099"
   y="162.85201"
   transform="matrix(0.9958,-0.0917,0.0917,0.9958,-13.772,31.1805)"
   style="fill:#7585f8"
   width="0.76599997"
   height="5.3280001"
   id="rect1166" />
			</g>
			<g
   id="g1168">
				<polygon
   style="fill:#7585f8"
   points="329.188,167.532 328.453,167.752 330.026,172.843 330.764,172.617 "
   id="polygon1167" />
			</g>
			<g
   id="g1169">
				
					<rect
   x="325.95999"
   y="172.481"
   transform="matrix(0.9563,-0.2925,0.2925,0.9563,-36.9568,103.1113)"
   style="fill:#7585f8"
   width="0.76499999"
   height="5.329"
   id="rect1168" />
			</g>
			<g
   id="g1170">
				
					<rect
   x="322.37701"
   y="176.649"
   transform="matrix(0.9556,-0.2947,0.2947,0.9556,-38.5133,103.096)"
   style="fill:#7585f8"
   width="0.76499999"
   height="5.3309999"
   id="rect1169" />
			</g>
			<g
   id="g1171">
				
					<rect
   x="318.52499"
   y="180.757"
   transform="matrix(0.9543,-0.2989,0.2989,0.9543,-40.2454,103.7094)"
   style="fill:#7585f8"
   width="0.76499999"
   height="5.323"
   id="rect1170" />
			</g>
			<g
   id="g1172">
				<polygon
   style="fill:#7585f8"
   points="337.108,163.182 333.091,166.677 333.593,167.258 337.613,163.755 "
   id="polygon1171" />
			</g>
			<g
   id="g1173">
				
					<rect
   x="330.58499"
   y="170.19099"
   transform="matrix(0.8654,-0.5012,0.5012,0.8654,-40.6147,189.9827)"
   style="fill:#7585f8"
   width="5.3319998"
   height="0.76899999"
   id="rect1172" />
			</g>
			<g
   id="g1174">
				<polygon
   style="fill:#7585f8"
   points="332.383,175.53 327.24,176.924 327.44,177.666 332.584,176.267 "
   id="polygon1173" />
			</g>
			<g
   id="g1175">
				<polygon
   style="fill:#7585f8"
   points="328.13,181.051 322.921,182.183 323.081,182.931 328.294,181.797 "
   id="polygon1174" />
			</g>
			<g
   id="g1176">
				<polygon
   style="fill:#7585f8"
   points="322.835,186.324 317.547,186.982 317.643,187.738 322.931,187.086 "
   id="polygon1175" />
			</g>
			<g
   id="g1177">
				<path
   style="fill:#7585f8"
   d="m 334.969,157.126 c -0.597,0.835 -0.402,1.996 0.432,2.589 0.832,0.598 1.995,0.403 2.588,-0.432 0.596,-0.834 0.399,-1.994 -0.431,-2.591 -0.833,-0.593 -1.993,-0.4 -2.589,0.434 z"
   id="path1176" />
			</g>
			<g
   id="g1178">
				<path
   style="fill:#7585f8"
   d="m 330.268,160.873 c -0.536,0.871 -0.266,2.017 0.605,2.554 0.873,0.543 2.016,0.271 2.553,-0.601 0.538,-0.872 0.27,-2.018 -0.6,-2.556 -0.874,-0.538 -2.017,-0.268 -2.558,0.603 z"
   id="path1177" />
			</g>
			<g
   id="g1179">
				<path
   style="fill:#7585f8"
   d="m 327.219,165.289 c -0.799,0.647 -0.916,1.818 -0.262,2.612 0.646,0.794 1.814,0.909 2.61,0.26 0.791,-0.653 0.907,-1.818 0.257,-2.611 -0.646,-0.797 -1.817,-0.909 -2.605,-0.261 z"
   id="path1178" />
			</g>
			<g
   id="g1180">
				<path
   style="fill:#7585f8"
   d="m 323.951,170.247 c -0.794,0.651 -0.909,1.822 -0.262,2.614 0.65,0.794 1.82,0.907 2.611,0.26 0.794,-0.648 0.913,-1.818 0.262,-2.61 -0.65,-0.793 -1.824,-0.912 -2.611,-0.264 z"
   id="path1179" />
			</g>
			<g
   id="g1181">
				<path
   style="fill:#7585f8"
   d="m 320.367,174.414 c -0.79,0.657 -0.911,1.822 -0.261,2.613 0.648,0.794 1.818,0.912 2.611,0.266 0.794,-0.653 0.913,-1.817 0.265,-2.616 -0.656,-0.794 -1.823,-0.907 -2.615,-0.263 z"
   id="path1180" />
			</g>
			<g
   id="g1182">
				<path
   style="fill:#7585f8"
   d="m 316.512,178.523 c -0.794,0.65 -0.91,1.817 -0.261,2.611 0.651,0.795 1.82,0.908 2.61,0.257 0.795,-0.649 0.913,-1.813 0.267,-2.608 -0.652,-0.795 -1.822,-0.911 -2.616,-0.26 z"
   id="path1181" />
			</g>
			<g
   id="g1183">
				<path
   style="fill:#7585f8"
   d="m 340.212,163.446 c -0.213,0.998 -1.201,1.636 -2.198,1.426 -1.004,-0.214 -1.648,-1.2 -1.432,-2.201 0.212,-1.002 1.201,-1.644 2.2,-1.43 1.001,0.215 1.638,1.198 1.43,2.205 z"
   id="path1182" />
			</g>
			<g
   id="g1184">
				<path
   style="fill:#7585f8"
   d="m 338.362,169.755 c -0.402,0.943 -1.49,1.383 -2.434,0.983 -0.942,-0.396 -1.382,-1.489 -0.985,-2.433 0.402,-0.942 1.487,-1.384 2.434,-0.981 0.943,0.398 1.384,1.487 0.985,2.431 z"
   id="path1183" />
			</g>
			<g
   id="g1185">
				<path
   style="fill:#7585f8"
   d="m 335.059,177.118 c -0.627,0.812 -1.793,0.955 -2.601,0.328 -0.81,-0.632 -0.953,-1.794 -0.328,-2.603 0.628,-0.812 1.796,-0.958 2.606,-0.328 0.811,0.628 0.955,1.795 0.323,2.603 z"
   id="path1184" />
			</g>
			<g
   id="g1186">
				<path
   style="fill:#7585f8"
   d="m 330.723,182.77 c -0.671,0.776 -1.843,0.868 -2.619,0.196 -0.775,-0.669 -0.866,-1.844 -0.194,-2.619 0.666,-0.777 1.84,-0.862 2.621,-0.191 0.775,0.669 0.861,1.839 0.192,2.614 z"
   id="path1185" />
			</g>
			<g
   id="g1187">
				<path
   style="fill:#7585f8"
   d="m 325.261,188.276 c -0.738,0.713 -1.911,0.691 -2.629,-0.044 -0.71,-0.737 -0.688,-1.918 0.049,-2.625 0.738,-0.713 1.91,-0.69 2.625,0.047 0.709,0.738 0.69,1.911 -0.045,2.622 z"
   id="path1186" />
			</g>
		</g><path
     style="fill:#acbfe2"
     d="m 347.225,190.859 c 0,1.613 -9.77,3.373 -38.181,3.373 -28.411,0 -40.04,-1.266 -40.04,-2.881 0,-1.615 11.629,-2.967 40.04,-2.967 28.411,0.001 38.181,0.858 38.181,2.475 z"
     id="path1188" /><g
     id="g1203">
			<g
   id="g1189">
				<path
   style="fill:#b5c2e6"
   d="m 293.185,167.48 0.825,-0.919 c -14.593,-13.085 -13.482,-30.358 -13.469,-30.535 l -1.233,-0.09 c -0.007,0.176 -1.181,18.039 13.877,31.544 z"
   id="path1189" />
			</g>
			<g
   id="g1190">
				<path
   style="fill:#b5c2e6"
   d="m 280.053,136.941 c 0,0 1.39,-6.862 -2.509,-6.88 -1.657,-0.009 -2.726,3.066 2.509,6.88 z"
   id="path1190" />
			</g>
			<g
   id="g1191">
				<path
   style="fill:#b5c2e6"
   d="m 280.137,139.532 c 0,0 -3.422,-6.604 -6.014,-3.798 -1.103,1.201 0.142,4.49 6.014,3.798 z"
   id="path1191" />
			</g>
			<g
   id="g1192">
				<path
   style="fill:#b5c2e6"
   d="m 279.751,140.11 c 0,0 -0.083,-7.19 3.651,-5.492 1.59,0.722 2.058,4.151 -3.651,5.492 z"
   id="path1192" />
			</g>
			<g
   id="g1193">
				<path
   style="fill:#b5c2e6"
   d="m 281.017,146.09 c 0,0 -0.415,-7.225 3.376,-5.71 1.613,0.644 2.231,4.06 -3.376,5.71 z"
   id="path1193" />
			</g>
			<g
   id="g1194">
				<path
   style="fill:#b5c2e6"
   d="m 282.396,150.917 c 0,0 -0.389,-7.218 3.397,-5.694 1.616,0.646 2.223,4.065 -3.397,5.694 z"
   id="path1194" />
			</g>
			<g
   id="g1195">
				<path
   style="fill:#b5c2e6"
   d="m 285.06,156.502 c 0,0 -1.586,-7.174 2.315,-6.366 1.664,0.341 2.821,3.654 -2.315,6.366 z"
   id="path1195" />
			</g>
			<g
   id="g1196">
				<path
   style="fill:#b5c2e6"
   d="m 287.776,160.7 c 0,0 -1.396,-7.199 2.501,-6.27 1.652,0.393 2.726,3.73 -2.501,6.27 z"
   id="path1196" />
			</g>
			<g
   id="g1197">
				<path
   style="fill:#b5c2e6"
   d="m 292.061,165.561 c 0,0 -3.166,-6.731 0.691,-6.973 1.644,-0.1 3.51,2.892 -0.691,6.973 z"
   id="path1197" />
			</g>
			<g
   id="g1198">
				<path
   style="fill:#b5c2e6"
   d="m 280.668,144.542 c 0,0 -3.427,-6.61 -6.019,-3.797 -1.1,1.196 0.143,4.482 6.019,3.797 z"
   id="path1198" />
			</g>
			<g
   id="g1199">
				<path
   style="fill:#b5c2e6"
   d="m 282.041,149.542 c 0,0 -3.434,-6.608 -6.022,-3.798 -1.102,1.196 0.144,4.485 6.022,3.798 z"
   id="path1199" />
			</g>
			<g
   id="g1200">
				<path
   style="fill:#b5c2e6"
   d="m 284.076,154.197 c 0,0 -4.661,-5.766 -6.511,-2.321 -0.792,1.465 1.094,4.449 6.511,2.321 z"
   id="path1200" />
			</g>
			<g
   id="g1201">
				<path
   style="fill:#b5c2e6"
   d="m 286.858,159.115 c 0,0 -5.149,-5.279 -6.628,-1.602 -0.625,1.566 1.513,4.355 6.628,1.602 z"
   id="path1201" />
			</g>
			<g
   id="g1202">
				<path
   style="fill:#b5c2e6"
   d="m 290.319,163.532 c 0,0 -5.719,-4.509 -6.664,-0.576 -0.395,1.676 2.066,4.146 6.664,0.576 z"
   id="path1202" />
			</g>
		</g><g
     id="g1214">
			<g
   id="g1204">
				<path
   style="fill:#7585f8"
   d="m 294.172,186.173 -0.441,1.084 c -0.232,-0.102 -5.781,-2.509 -11.368,-7.539 -7.436,-6.697 -11.283,-14.849 -11.118,-23.586 l 1.107,-0.01 c -0.381,20.291 21.6,29.953 21.82,30.051 z"
   id="path1203" />
			</g>
			<g
   id="g1205">
				<path
   style="fill:#7585f8"
   d="m 271.839,157.398 c 0,0 -5.511,-4.192 -1.798,-11.156 0,0 4.64,5.23 1.798,11.156 z"
   id="path1204" />
			</g>
			<g
   id="g1206">
				<path
   style="fill:#7585f8"
   d="m 272.786,163.746 c 0,0 -8.682,1.398 -10.503,-8.439 0,0 4.652,-0.893 10.503,8.439 z"
   id="path1205" />
			</g>
			<g
   id="g1207">
				<path
   style="fill:#7585f8"
   d="m 272.498,163.735 c 0,0 8.335,-3.006 6.019,-12.711 0,0 -4.525,1.479 -6.019,12.711 z"
   id="path1206" />
			</g>
			<g
   id="g1208">
				<path
   style="fill:#7585f8"
   d="m 275.931,171.358 c 0,0 -8.525,2.328 -11.304,-7.232 0,0 4.548,-1.391 11.304,7.232 z"
   id="path1207" />
			</g>
			<g
   id="g1209">
				<path
   style="fill:#7585f8"
   d="m 275.641,171.377 c 0,0 8.021,-3.883 4.757,-13.265 -0.001,0 -4.369,1.96 -4.757,13.265 z"
   id="path1208" />
			</g>
			<g
   id="g1210">
				<path
   style="fill:#7585f8"
   d="m 281.773,178.486 c 0,0 -8.056,3.814 -12.361,-5.063 0,0.001 4.274,-2.188 12.361,5.063 z"
   id="path1209" />
			</g>
			<g
   id="g1211">
				<path
   style="fill:#7585f8"
   d="m 281.488,178.555 c 0,0 7.303,-5.257 2.553,-13.872 0,0 -4.008,2.711 -2.553,13.872 z"
   id="path1210" />
			</g>
			<g
   id="g1212">
				<path
   style="fill:#7585f8"
   d="m 288.179,183.407 c 0,0 -6.879,5.868 -13.268,-1.47 -10e-4,10e-4 3.613,-3.265 13.268,1.47 z"
   id="path1211" />
			</g>
			<g
   id="g1213">
				<path
   style="fill:#7585f8"
   d="m 287.923,183.554 c 0,0 5.797,-7.042 -0.958,-13.998 0,0 -3.223,3.692 0.958,13.998 z"
   id="path1212" />
			</g>
		</g><path
     style="fill:#ebeff7"
     d="m 301.338,169.815 c 0,0 -0.834,19.427 3.834,19.5 4.666,0.072 7.031,-6 6.332,-17.667 -0.699,-11.666 -10.166,-1.833 -10.166,-1.833 z"
     id="path1214" /><path
     style="fill:#ebeff7"
     d="m 290.254,142.231 c 0,0 3.916,-4.255 8.416,-4.255 4.5,0 5.805,1.677 7.324,2.005 3.344,0.723 7.344,-2.833 12.678,0 3.264,1.733 3.332,4 3.332,4 l -20.723,8.834 z"
     id="path1215" /><path
     style="fill:#ffffff"
     d="m 287.645,142.636 c 2.133,-1.75 4.234,-3.279 11.027,-0.32 8.717,3.797 12.305,0.155 17.332,-0.834 5.027,-0.988 15.047,2.327 8.885,19.715 -5.35,15.096 0.258,17.965 -2.051,23.119 -3.154,7.037 -11.553,11.705 -10.471,5.978 2.465,-13.042 -0.689,-17.023 -5.256,-17.744 -4.568,-0.721 -8.273,5.616 -12.607,15.1 -3.232,7.077 -6.332,6.028 -8.166,2.667 -2.359,-4.325 4.115,-17.798 3,-21.64 -1.203,-4.139 -8.584,-20.383 -1.693,-26.041 z"
     id="path1216" /><path
     style="fill:#ebeff7"
     d="m 313.155,135.261 c 0,1.808 -1.465,3.273 -3.273,3.273 -1.808,0 -3.272,-1.465 -3.272,-3.273 0,-1.808 1.465,-3.272 3.272,-3.272 1.808,-0.001 3.273,1.464 3.273,3.272 z"
     id="path1217" /><path
     style="fill:#ebeff7"
     d="m 313.155,129.153 c 0,0.764 -0.619,1.382 -1.382,1.382 -0.764,0 -1.383,-0.618 -1.383,-1.382 0,-0.764 0.619,-1.382 1.383,-1.382 0.763,0 1.382,0.619 1.382,1.382 z"
     id="path1218" /><path
     style="fill:#d0daea"
     d="m 319.688,143.659 c 0,2.12 -1.719,3.839 -3.838,3.839 -2.12,0 -3.839,-1.719 -3.839,-3.839 0,-2.119 1.719,-3.838 3.839,-3.838 2.119,0 3.838,1.719 3.838,3.838 z"
     id="path1219" /><path
     style="fill:#d0daea"
     d="m 313.055,144.818 c 0,1.471 -1.193,2.664 -2.664,2.664 -1.472,0 -2.665,-1.193 -2.665,-2.664 0,-1.472 1.193,-2.664 2.665,-2.664 1.47,0 2.664,1.193 2.664,2.664 z"
     id="path1220" /><path
     style="fill:#d0daea"
     d="m 317.408,149.363 c 0,2.348 -1.905,4.252 -4.253,4.252 -2.349,0 -4.254,-1.904 -4.254,-4.252 0,-2.349 1.905,-4.253 4.254,-4.253 2.348,0 4.253,1.905 4.253,4.253 z"
     id="path1221" /><path
     style="fill:#d0daea"
     d="m 320.526,148.114 c 0,1.53 -1.241,2.771 -2.772,2.771 -1.531,0 -2.772,-1.241 -2.772,-2.771 0,-1.531 1.241,-2.771 2.772,-2.771 1.531,0 2.772,1.24 2.772,2.771 z"
     id="path1222" /><path
     style="fill:#d0daea"
     d="m 310.649,148.763 c 0,1.53 -1.241,2.771 -2.771,2.771 -1.531,0 -2.772,-1.241 -2.772,-2.771 0,-1.531 1.241,-2.771 2.772,-2.771 1.53,-10e-4 2.771,1.239 2.771,2.771 z"
     id="path1223" /><path
     style="fill:#d0daea"
     d="m 320.318,152.715 c 0,1.53 -1.241,2.771 -2.771,2.771 -1.531,0 -2.773,-1.241 -2.773,-2.771 0,-1.531 1.241,-2.771 2.773,-2.771 1.53,-10e-4 2.771,1.24 2.771,2.771 z"
     id="path1224" /><path
     style="fill:#d0daea"
     d="m 313.162,153.323 c 0,1.53 -1.241,2.771 -2.771,2.771 -1.531,0 -2.772,-1.24 -2.772,-2.771 0,-1.531 1.241,-2.772 2.772,-2.772 1.53,0 2.771,1.241 2.771,2.772 z"
     id="path1225" /><path
     style="fill:#d0daea"
     d="m 326.239,146.919 c 0,1.148 -0.931,2.078 -2.078,2.078 -1.148,0 -2.079,-0.931 -2.079,-2.078 0,-1.147 0.931,-2.078 2.079,-2.078 1.148,0 2.078,0.93 2.078,2.078 z"
     id="path1226" /><path
     style="fill:#d0daea"
     d="m 319.833,159.654 c 0,1.148 -0.931,2.078 -2.078,2.078 -1.148,0 -2.079,-0.931 -2.079,-2.078 0,-1.147 0.931,-2.078 2.079,-2.078 1.147,0 2.078,0.931 2.078,2.078 z"
     id="path1227" /><path
     style="fill:#d0daea"
     d="m 316.616,154.842 c 0,1.148 -0.931,2.078 -2.078,2.078 -1.148,0 -2.079,-0.931 -2.079,-2.078 0,-1.147 0.931,-2.078 2.079,-2.078 1.147,0 2.078,0.93 2.078,2.078 z"
     id="path1228" /><path
     style="fill:#d0daea"
     d="m 305.438,143.131 c 0,1.147 -0.931,2.077 -2.078,2.077 -1.148,0 -2.079,-0.93 -2.079,-2.077 0,-1.148 0.931,-2.078 2.079,-2.078 1.147,0 2.078,0.929 2.078,2.078 z"
     id="path1229" /><path
     style="fill:#ebeff7"
     d="m 327.089,144.771 c 0,0.922 -0.748,1.67 -1.671,1.67 -0.924,0 -1.672,-0.748 -1.672,-1.67 0,-0.924 0.748,-1.671 1.672,-1.671 0.923,0.001 1.671,0.748 1.671,1.671 z"
     id="path1230" /><path
     style="fill:#ebeff7"
     d="m 304.623,135.04 c 0,0.923 -0.748,1.671 -1.671,1.671 -0.924,0 -1.672,-0.748 -1.672,-1.671 0,-0.923 0.748,-1.671 1.672,-1.671 0.923,0 1.671,0.748 1.671,1.671 z"
     id="path1231" /><path
     style="fill:#f7f7fc"
     d="m 316.26,141.866 c 0.203,-0.244 0.504,-1.166 0.504,-1.166 0,0 0.465,0.852 0.71,1.055 0.244,0.202 1.164,0.502 1.164,0.502 0,0 -0.848,0.467 -1.052,0.71 -0.204,0.246 -0.505,1.166 -0.505,1.166 0,0 -0.465,-0.849 -0.708,-1.053 -0.245,-0.204 -1.166,-0.504 -1.166,-0.504 0,0 0.851,-0.466 1.053,-0.71 z"
     id="path1232" /><path
     style="fill:#f7f7fc"
     d="m 310.318,153.439 c 0.102,-0.122 0.252,-0.582 0.252,-0.582 0,0 0.232,0.426 0.355,0.526 0.122,0.102 0.582,0.252 0.582,0.252 0,0 -0.424,0.232 -0.525,0.355 -0.102,0.123 -0.252,0.583 -0.252,0.583 0,0 -0.232,-0.425 -0.354,-0.526 -0.122,-0.103 -0.582,-0.252 -0.582,-0.252 0,0 0.424,-0.232 0.524,-0.356 z"
     id="path1233" /><g
     id="g1249">
			<path
   style="fill:#062440"
   d="m 327.195,150.993 c 1.328,1.058 2.311,3.234 5.995,3.206 3.684,-0.032 -1.616,5.485 -5.16,5.382 -3.543,-0.102 -7.284,-0.814 -6.339,-5.864 0.742,-3.955 4.202,-3.757 5.504,-2.724 z"
   id="path1234" />
			<path
   style="fill:#062440"
   d="m 327.166,152.296 c 0,0 1.708,2.928 2.834,3.139 1.129,0.212 -7.505,3.331 -7.505,3.331 l 2.088,-5.138 z"
   id="path1235" />
			<path
   style="fill:#f27851"
   d="m 327.772,155.942 c 0.379,-0.137 1.594,-0.145 2.156,0.85 0.754,1.331 0.813,4.445 2.646,5.513 1.833,1.069 3.08,0.364 3.978,0 0.896,-0.367 1.083,-0.932 1.629,-1.087 0.545,-0.153 0.703,0.496 -0.594,1.427 -0.62,0.444 -3.424,3.007 -5.842,2.133 -3.171,-1.142 -6.227,-8.005 -3.973,-8.836 z"
   id="path1236" />
			<g
   id="g1238">
				<path
   style="fill:#e67052"
   d="m 331.775,176.784 c 0.351,-0.202 2.164,-0.659 1.796,1.073 -0.368,1.732 -4.157,5.243 -4.742,5.41 -0.583,0.166 -0.805,-0.756 -0.805,-0.756 0,0 1.645,-4.516 3.751,-5.727 z"
   id="path1237" />
				<path
   style="fill:#e67052"
   d="m 328.084,182.363 c 0,0 -0.253,0.529 -0.283,0.896 -0.03,0.448 1.99,1.375 1.785,0.752 -0.166,-0.515 -0.852,-0.831 -0.712,-0.984 0.141,-0.151 -0.79,-0.664 -0.79,-0.664 z"
   id="path1238" />
			</g>
			<g
   id="g1240">
				<path
   style="fill:#e67052"
   d="m 323.89,184.85 c 0.044,-0.369 0.772,-1.893 2.055,-0.486 1.279,1.403 1.986,6.291 1.769,6.797 -0.22,0.506 -1.16,0.037 -1.16,0.037 0,0 -2.914,-4.126 -2.664,-6.348 z"
   id="path1239" />
				<path
   style="fill:#e67052"
   d="m 326.462,191.058 c 0,0 0.302,0.522 0.605,0.785 0.372,0.321 2.434,-0.413 1.764,-0.693 -0.553,-0.23 -1.258,0.02 -1.301,-0.18 -0.045,-0.195 -1.068,0.088 -1.068,0.088 z"
   id="path1240" />
			</g>
			<path
   style="fill:#d12250"
   d="m 329.717,165.477 3.352,2.937 c 0,0 4.104,3.8 4.298,4.68 0.194,0.879 -7.043,9.976 -7.043,9.976 l -2.308,-2.14 2.447,-5.841 -3.105,-2.668 z"
   id="path1241" />
			<path
   style="fill:#e62552"
   d="m 323.684,165.675 c 0,0 -4.434,3.661 -2.918,11.113 1.48,7.289 4.809,13.302 4.809,13.302 l 2.515,-0.083 c 0,0 -1.614,-6.214 -1.503,-9.674 0.107,-3.461 3.131,-14.856 3.131,-14.856 0,0 -0.435,0.9 -6.034,0.198 z"
   id="path1242" />
			<path
   style="fill:#f27851"
   d="m 330.313,157.652 c -0.544,-2.635 -4.12,-2.232 -6.735,-1.201 -1.65,0.655 -4.324,1.816 -2.319,5.196 1.398,2.36 2.189,3.6 0.91,6.406 -0.168,0.369 0.113,-0.446 0,0 1.771,0.637 2.74,-0.247 4.773,-0.291 1.509,-0.032 2.495,-0.6 3.856,-1.011 -0.618,-1.889 -0.563,-0.014 -0.604,-0.123 -1.354,-3.412 0.578,-6.747 0.119,-8.976 z"
   id="path1243" />
			<path
   style="fill:#fcdcda"
   d="m 331.061,166.646 c -0.825,-2.195 -1.094,-2.544 -0.431,-3.869 1.479,-2.967 -2.65,-7.073 -2.65,-7.073 l -1.033,-0.038 c 2.778,2.956 2.311,4.207 1.431,4.42 -2.928,0.701 -4.91,-3.583 -4.91,-3.583 l -0.964,0.419 c 0,0 1.688,1.22 1.952,3.871 0.32,3.209 -2.142,2.938 -2.142,2.938 0.225,1.065 0.693,1.272 0.189,3.184 -0.004,0.012 -0.865,1.555 -0.865,1.555 2.79,1.043 9.465,0.03 9.423,-1.824 z"
   id="path1244" />
			<g
   id="g1245">
				<path
   style="fill:#e67052"
   d="m 324.583,153.628 c 0,0 0.456,1.711 -0.1,2.535 -0.35,0.525 2.567,1.753 2.497,1.058 -0.098,-0.898 -0.623,-1.439 -0.061,-2.461 z"
   id="path1245" />
			</g>
			<g
   id="g1247">
				<g
   id="g1246">
					<path
   style="fill:#f27851"
   d="m 326.534,151.089 c 0.768,0.764 1.522,4.054 0.674,4.751 -0.371,0.3 -1.843,-0.096 -2.741,-1.556 -0.373,-0.6 -0.815,-1.717 -0.185,-2.811 0.282,-0.494 1.363,-1.272 2.252,-0.384 z"
   id="path1246" />
				</g>
			</g>
			<g
   id="g1248">
				<path
   style="fill:#062440"
   d="m 327.136,151.664 c 0.064,0.47 0.071,0.746 -0.936,0.618 -1.236,-0.158 -1.051,0.77 -0.938,1.088 0.344,0.932 -1.099,-0.024 -0.678,1.089 0.422,1.114 -0.914,-0.246 -1.028,-0.414 -0.114,-0.168 -0.508,-0.902 0.237,-2.473 0.743,-1.574 3.142,-1.353 3.343,0.092 z"
   id="path1247" />
			</g>
			<path
   style="fill:#efbebd"
   d="m 322.314,163.73 c 0,0 1.368,0.572 3.355,-0.928 0,0 1.003,-0.581 1.003,0 0,0.584 -0.781,1.231 -1.162,1.433 -0.381,0.203 -1.286,1.796 0.788,1.681 2.075,-0.114 1.292,1.115 0.71,1.25 -0.58,0.133 -2.952,0.737 -2.191,1.118 0.759,0.382 1.113,0.835 1.161,0.546 0.019,-0.106 -1.811,0.63 -4.34,-0.36 0.001,0 2.079,-1.993 0.676,-4.74 z"
   id="path1248" />
			<path
   style="fill:#f27851"
   d="m 322.276,157.161 c 0.396,0.069 1.451,0.667 1.439,1.793 -0.02,1.506 -1.531,4.178 -0.485,5.997 1.047,1.82 2.479,1.841 3.436,1.979 0.962,0.134 1.407,-0.252 1.956,-0.111 0.548,0.14 0.357,0.771 -1.231,0.917 -0.759,0.066 -4.469,0.846 -6.12,-1.097 -2.168,-2.551 -1.359,-9.897 1.005,-9.478 z"
   id="path1249" />
		</g></g>
</svg>
