<?xml version="1.0" encoding="UTF-8" standalone="no"?>
<!-- Created with Inkscape (http://www.inkscape.org/) -->

<svg
   width="669.0462"
   height="152.67004"
   viewBox="0 0 177.01847 40.39395"
   version="1.1"
   id="svg1"
   sodipodi:docname="bg-services.svg"
   xmlns:inkscape="http://www.inkscape.org/namespaces/inkscape"
   xmlns:sodipodi="http://sodipodi.sourceforge.net/DTD/sodipodi-0.dtd"
   xmlns="http://www.w3.org/2000/svg"
   xmlns:svg="http://www.w3.org/2000/svg">
  <sodipodi:namedview
     id="namedview1"
     pagecolor="#505050"
     bordercolor="#ffffff"
     borderopacity="1"
     inkscape:showpageshadow="0"
     inkscape:pageopacity="0"
     inkscape:pagecheckerboard="1"
     inkscape:deskcolor="#505050"
     inkscape:document-units="px" />
  <defs
     id="defs1" />
  <g
     inkscape:label="Camada 1"
     inkscape:groupmode="layer"
     id="layer1"
     transform="translate(-37.167849,-177.62272)">
    <g
       id="g5"
       transform="matrix(0.06738549,0,0,0.06903678,22.375581,-2.3894321)">
      <g
         id="g4"
         transform="translate(-336.59462,525.91528)">
        <g
           transform="matrix(0.19528,0,0,-0.19528,0,2666.6742)"
           id="g182">
          <path
             id="path184"
             style="fill:#ffbd54;fill-opacity:1;fill-rule:nonzero;stroke:none"
             d="m 16288.5,1195.62 c 3.9,3.82 7.7,7.51 11.5,11.33 -2.3,-4.3 -7.6,-7.92 -11.5,-11.33" />
        </g>
        <g
           transform="matrix(0.18894933,0,0,-0.18894933,0,2666.6742)"
           id="g246">
          <path
             id="path248"
             style="fill:#fcb4b4;fill-opacity:1;fill-rule:nonzero;stroke:none"
             d="M 16300,0 H 3433.03 c 82.02,52.7121 165.07,104.225 249.04,154.611 907.89,544.415 1923.35,949.249 2991.54,1215.569 17.12,4.3 34.23,8.54 51.49,12.7 12.57,3.1 25.16,6.14 37.73,9.1 276.46,66.83 556.33,124.34 838.73,172.6 12.63,2.19 25.13,4.31 37.68,6.36 152.29,25.61 305.27,48.55 458.89,68.73 1.49,0.21 2.97,0.42 4.45,0.56 0,0 0,0.07 0.07,0.07 1173.86,154.33 2380.15,152.28 3552.85,-4.72 0.1,0 0.1,-0.08 0.1,-0.08 7.7,-0.98 15.4,-2.04 23,-3.1 218.2,-29.57 435.2,-64.57 650.5,-104.86 14.3,-2.68 28.7,-5.44 43.1,-8.19 12.8,-2.47 25.7,-4.94 38.6,-7.48 11.5,-2.19 23.1,-4.44 34.6,-6.7 v -0.07 c 237,-46.58 472.1,-99.78 704.4,-159.48 0.9,-0.21 1.8,-0.42 2.7,-0.7 337.1,-86.66 668.6,-187.08 992.8,-301.25 561.1,-197.373 1100.4,-435.814 1608.7,-715.045 h 0.1 c 51.8,-28.932 103.4,-58.074 154.5,-87.855 0.1,0.072 0.2,0 0.3,-0.141 50.2,-29.072 100.2,-58.71 149.6,-88.841 54.1,-32.744 107.8,-66.1194 161.1,-100.0627 26.9,-17.0764 53.7,-34.365 80.4,-51.7253" />
        </g>
        <g
           transform="matrix(0.18894933,0,0,-0.18894933,0,2666.6742)"
           id="g250">
          <path
             id="path252"
             style="fill:#f49f9f;fill-opacity:1;fill-rule:nonzero;stroke:none"
             d="m 13455.6,0 c -124,169.711 -172.7,457.267 -143.4,688.088 0,0.775 4.9,46.149 8.2,69.508 -3.5,-9.739 -7.2,-19.83 -11,-30.062 C 13260,591.06 13187,434.12 13085.7,300.258 c -0.2,-0.353 -0.4,-0.634 -0.7,-0.987 0,0 0,-0.072 0,-0.072 C 12973.6,152.282 12828.1,33.3065 12642.2,0 H 12425 c -10.2,1.97639 -20.6,4.23395 -31,6.77542 -170.7,41.84608 -363.2,162.44158 -464.8,293.41358 0,0 0,0 0,0.069 -271.2,358.121 -272.9,679.62 -274,1000.832 -20,-421.062 -451.9,-971.195 -881.7,-994.341 -57,2.26 -113.1,13.198 -167.6,31.542 C 10224.7,466.581 9917.39,956.52 9878.93,1367.64 9834.9,897.526 9439.73,324.956 8984.3,306.749 8552.01,329.683 8116.13,887.859 8102.16,1309.77 8099.97,1076.06 8098.13,804.098 7986.92,553.448 7912.27,385.077 7788.21,226.376 7581.66,95.3355 7519.35,61.9573 7459.65,37.2593 7402.5,20.3235 c -0.71,-0.2122 -1.34,-0.4245 -2.05,-0.634 C 7371.23,11.15 7342.73,4.58678 7314.78,0 H 7111.7 c -198.72,35.214 -355.59,173.804 -474.56,348.948 -78.82,115.869 -141.08,247.758 -187.88,376.188 -4.06,10.937 -8.12,21.803 -11.87,32.319 3.28,-23.57 6.1,-46.573 8.28,-69.154 C 6474.89,457.479 6426.37,169.851 6302.25,0 H 3433.03 c 80.7,51.3725 162.33,101.686 244.66,150.73 915.55,545.967 1931.09,952.07 2995.92,1219.45 17.12,4.3 34.23,8.54 51.49,12.7 12.57,3.18 25.16,6.28 37.81,9.31 276.7,67.32 556.6,125.26 838.87,173.95 12.56,2.19 25.12,4.3 37.68,6.42 152.35,25.83 305.41,48.97 458.89,69.3 1.41,0.21 2.89,0.42 4.3,0.56 h 0.07 c 1174.15,155.67 2378.88,153.34 3552.68,-5.65 0,0 0.1,0 0.2,-0.07 7.7,-1.05 15.5,-2.11 23.3,-3.17 217.9,-29.92 434.9,-65.2 650.2,-105.99 14.3,-2.68 28.7,-5.44 43.1,-8.19 12.8,-2.47 25.7,-4.94 38.6,-7.48 11.5,-2.25 23.1,-4.51 34.6,-6.77 236.8,-47.07 471.7,-100.63 704.3,-160.82 0.9,-0.21 1.8,-0.43 2.7,-0.71 336.7,-87.15 668.3,-187.98 993.1,-302.58 558.8,-197.023 1097.7,-434.548 1608.5,-712.365 h 0.1 c 51.8,-28.932 103.4,-58.074 154.5,-87.855 0.1,0.072 0.2,0 0.3,-0.141 50.2,-29.072 100.2,-58.71 149.6,-88.841 54.1,-32.744 107.8,-66.1194 161.1,-100.0627 26.9,-17.0764 53.7,-34.365 80.4,-51.7253 h -2844.4" />
        </g>
        <path
           id="path254"
           style="fill:#ffffff;fill-opacity:1;fill-rule:nonzero;stroke:none;stroke-width:0.133333"
           d="m 1181.8013,2351.7675 c -47.8133,-134.9733 -116.3547,-128.1866 -202.94132,-60.84 -52.32667,39.64 -98.07734,145.2534 -91.83867,231.3467 -50.55466,-138.84 -142.748,-122.1467 -281.88133,-45.36 -38.50933,25.04 -48.70799,64.2397 -47.74933,104.8663 -3.852,-50.893 -2.05466,-115.4263 49.91867,-146.1596 92.536,-48.1734 231.80399,-114.4934 279.84399,25.72 8.992,-139.2267 75.944,-236.4 188.77069,-255.9734 52.928,-8 110.8333,68.7734 105.8773,146.4" />
        <g
           transform="matrix(0.15687466,0,0,-0.15687466,0,2666.6742)"
           id="g256">
          <path
             id="path258"
             style="fill:#ffffff;fill-opacity:1;fill-rule:nonzero;stroke:none"
             d="m 16269.7,2321.69 c -27.2,282.26 -158.5,536.31 -521,655.47 -1008.6,331.64 -1559.5,524.41 -1683.7,-604.99 2,261.78 -33.9,728.4 -180.6,819.51 -345.4,249.54 -1560.6,414.43 -1873.5,143.73 -65.9,-42.76 -103.9,-308.79 -112.1,-465.94 -8.1,157.5 -46.9,422.85 -112.2,465.94 -313,270.7 -1528,105.81 -1873.53,-143.73 -146.79,-91.03 -182.66,-557.98 -180.53,-819.59 -124.18,1129.48 -675.1,936.71 -1683.78,605.07 -362.44,-119.16 -493.79,-373.21 -520.98,-655.47 -30.3,375.33 51.46,756.1 520.98,910.45 1008.68,331.64 1559.6,524.41 1683.78,-605.07 2.29,357.06 41.56,719.22 180.53,819.59 345.53,249.54 1560.53,414.43 1873.53,143.73 63.2,-54.65 96.4,-239.35 112.2,-465.94 15.8,226.59 48.8,411.29 112.1,465.94 312.9,270.7 1528.1,105.81 1873.6,-143.73 138.9,-100.37 178.1,-462.53 180.5,-819.59 124.1,1129.48 675.1,936.71 1683.7,605.07 469.5,-154.35 551.3,-535.12 521,-910.45" />
        </g>
        <g
           transform="matrix(0.195084,0,0,-0.195084,0,2666.6742)"
           id="g260">
          <path
             id="path262"
             style="fill:#ffffff;fill-opacity:1;fill-rule:nonzero;stroke:none"
             d="m 16282.8,481.094 c -22,456.622 -305.3,535.766 -710.8,706.296 -416.3,166.9 -822.4,141.27 -983.1,-340.097 -0.2,11.005 -0.7,21.874 -1.3,32.74 0,0.067 0,0.136 0,0.206 -35.6,1061.151 -1190.2,1849.461 -1509,733.911 15.8,156.51 -10.8,240.3 72.7,387.18 397.1,847.43 1404.9,86.32 1437.6,-949 227.8,691.4 923.5,402.7 1410.1,145.1 265.5,-130.4 301,-456.619 283.8,-716.336" />
        </g>
        <g
           transform="matrix(0.19487733,0,0,-0.19487733,0,2666.6742)"
           id="g264">
          <path
             id="path266"
             style="fill:#cfd6e2;fill-opacity:1;fill-rule:nonzero;stroke:none"
             d="M 16300,481.603 C 16289.6,315.754 16257.6,146.622 16225,0 h -1727.4 c -0.2,30.9248 1.8,191.301 0,298.307 C 14444.2,172.894 14353.1,72.1152 14242.5,0 h -913.3 c -334.5,155.789 -426.3,919.963 -414,1008.22 C 12510.5,-291.671 11361,401.961 11300.4,1596.42 11324.3,1182.9 10884,563.636 10445.7,571.093 9847.54,581.289 9579.96,1590.13 9578.38,1555.64 9527.68,1294.01 9159.32,582.04 8710.97,571.093 8272.95,594.7 7833.02,1182.49 7856.28,1596.42 7855.32,1553.86 7841.36,564.935 7212.25,196.98 6869.95,-3.28465 6421.17,430.15 6241.56,1008.09 6253.91,919.893 6204.04,115.422 5801.8,0 H 4914.25 C 4800.29,73.8925 4710.5,177.889 4659.91,296.324 4673.47,163.66 4678.92,5.8851 4678.92,0 H 2926.71 c -70.5,314.113 -162.6,751.582 178.52,973.738 713.95,394.022 1187.03,479.682 1446.45,-232.761 -121.2,820.823 1040.63,2200.423 1512.64,874.943 -35.05,314.18 16.07,650.05 414.84,780.66 811.98,266.97 1255.47,422.15 1355.43,-487.07 -1.64,210.73 27.16,586.41 145.32,659.76 278.12,200.88 1256.24,333.61 1508.16,115.7 52.82,-34.49 83.88,-248.43 90.31,-375.08 6.71,126.65 37.49,340.46 90.25,375.08 251.92,217.91 1230.07,85.18 1508.27,-115.7 118,-73.28 147,-449.1 145.3,-659.7 99.9,909.16 543.4,753.98 1355.4,487.01 398.8,-130.68 449.9,-466.48 414.8,-780.73 319.2,1116.87 1475.1,327.32 1510.6,-734.68 0.1,-0.07 180.7,728.93 996.9,338.26 395.1,-189.11 678.5,-281.406 700.1,-737.827" />
        </g>
      </g>
    </g>
  </g>
</svg>
