<?xml version="1.0" encoding="UTF-8" standalone="no"?>
<!-- Created with Inkscape (http://www.inkscape.org/) -->

<svg
   width="779.37549"
   height="202.90196"
   viewBox="0 0 206.20976 53.684478"
   version="1.1"
   id="svg1"
   sodipodi:docname="bg-services.svg"
   xmlns:inkscape="http://www.inkscape.org/namespaces/inkscape"
   xmlns:sodipodi="http://sodipodi.sourceforge.net/DTD/sodipodi-0.dtd"
   xmlns="http://www.w3.org/2000/svg"
   xmlns:svg="http://www.w3.org/2000/svg">
  <sodipodi:namedview
     id="namedview1"
     pagecolor="#505050"
     bordercolor="#ffffff"
     borderopacity="1"
     inkscape:showpageshadow="0"
     inkscape:pageopacity="0"
     inkscape:pagecheckerboard="1"
     inkscape:deskcolor="#505050"
     inkscape:document-units="px" />
  <defs
     id="defs1" />
  <g
     inkscape:label="Camada 1"
     inkscape:groupmode="layer"
     id="layer1"
     transform="translate(-22.572202)">
    <g
       id="g3"
       transform="matrix(0.06738549,0,0,0.06903678,22.572202,0)">
      <g
         id="g2"
         transform="translate(-336.59462,-0.00376861)">
        <g
           transform="matrix(0.15306533,0,0,-0.15306533,0,2666.6742)"
           id="g222">
          <path
             id="path224"
             style="fill:#ffffff;fill-opacity:1;fill-rule:nonzero;stroke:none"
             d="m 6860.18,14191.3 c -488.3,-1759.5 -2128.92,-497.3 -2186.01,1246.8 -377.04,-1141 -1358.24,-610.8 -2056.4,-230.5 -352.46,191.9 -435.88,630.3 -416.01,1092.4 32.89,-323.2 146.19,-601.5 407.9,-744 698.17,-380.2 1679.36,-910.5 2056.42,230.5 12.58,-1547.6 1627.14,-3134.6 2202.79,-1219.4 -12.73,-125.5 -17.55,-252.6 -8.69,-375.8" />
        </g>
        <g
           transform="matrix(0.20215066,0,0,-0.20215066,0,2666.6742)"
           id="g226">
          <path
             id="path228"
             style="fill:#fcb4b4;fill-opacity:1;fill-rule:nonzero;stroke:none"
             d="m 16300,13191.5 c -3786.1,-3101.3 -10321.77,-3101.4 -14107.87,0 H 16300" />
        </g>
        <g
           transform="matrix(0.20215066,0,0,-0.20215066,0,2666.6742)"
           id="g230">
          <path
             id="path232"
             style="fill:#f49f9f;fill-opacity:1;fill-rule:nonzero;stroke:none"
             d="m 14794.9,13191.5 c 17.7,-162.7 17,-143.9 16.1,-263.3 -37.6,97.1 -98.3,190.4 -169.8,263.3 h -1226.7 c -184.2,-152.3 -332.1,-384.3 -360.9,-738.1 -10,-122.8 -4.8,-250.7 11.8,-379.6 -443.2,1550.4 -1809.5,852.3 -1781.5,-446.5 -566.7,1618.1 -2026.51,972.9 -2049.92,-458.7 -23.62,1433.1 -1483.78,2075.5 -2049.83,459 27.7,1300.2 -1339.58,1995 -1781.53,446.2 76.01,389 -64.99,924 -349.09,1117.7 H 3826.84 c -71.52,-72.9 -132.28,-166.2 -169.84,-263.3 -0.92,119.5 -1.6,100.5 16.14,263.3 H 2192.13 c 1360.73,-1146.1 3110.53,-1843.8 4944.27,-2141.3 0,-0.7 -0.07,-1.5 -0.07,-2.2 14.38,-2.4 28.83,-4.7 43.21,-7.1 0,0.8 0.06,1.6 0.06,2.4 1310.05,-212.2 2798.38,-213.5 4109,-3.8 0,-0.8 0.1,-1.6 0.1,-2.3 14.4,2.2 28.7,4.5 43.1,6.9 0,0.7 0,1.5 0,2.3 1258.5,201.5 2462.4,587.6 3543.5,1176.4 0,0 0,0 0,0 511.7,278.9 990.9,602.3 1424.7,968.7 h -1505.1" />
        </g>
        <g
           transform="matrix(0.164928,0,0,-0.164928,0,2666.6742)"
           id="g234">
          <path
             id="path236"
             style="fill:#ffffff;fill-opacity:1;fill-rule:nonzero;stroke:none"
             d="m 15692.8,12044.5 c -1030.5,-369.5 -1622,-593.8 -1802.6,489.1 -17.4,-340.3 -73.1,-646.3 -208.5,-743.8 -411.3,-296.2 -1857.7,-491.9 -2230.1,-170.5 -75.4,65 -114.9,284.7 -133.6,554.2 -18.8,-269.5 -58.2,-489.2 -133.6,-554.2 -372.4,-321.4 -1818.8,-125.7 -2230.13,170.5 -135.33,97.5 -191.19,403.2 -208.5,743.4 -180.52,-1082.4 -772.11,-858.2 -1802.47,-488.7 -499.57,179.2 -595.87,615.1 -569.2,1050.7 39.38,-314.5 187.23,-593 561.68,-727.3 1036,-382.9 1635.13,-569.8 1802.48,488.7 8.24,-239.5 62.57,-651.8 208.49,-743.4 411.33,-296.2 1857.75,-491.9 2230.15,-170.6 78.6,51.6 124.2,369.2 133.6,554.3 9.6,-185.4 55.2,-502.6 133.6,-554.3 372.4,-321.3 1818.8,-125.6 2230.1,170.6 145.9,91.7 200.3,504.1 208.5,743.7 167.8,-1059 766.2,-871.8 1802.6,-489 408.7,146 548.1,467.1 569.7,814.4 45,-459.6 -28.9,-947.5 -562.2,-1137.8" />
        </g>
        <g
           transform="matrix(0.20861066,0,0,-0.20861066,0,2666.6742)"
           id="g238">
          <path
             id="path240"
             style="fill:#ffffff;fill-opacity:1;fill-rule:nonzero;stroke:none"
             d="m 15975.4,11158.4 c -512.3,-279 -1232.3,-668 -1508.9,169.2 -50.7,-1520.34 -1545.5,-2201.41 -1622.1,-639.2 422.1,-1405.14 1607.1,-240.8 1616.2,894.9 276.6,-837.3 996.6,-448.2 1508.9,-169.2 203.5,110.7 284.7,333.5 303,588.6 -17.1,284.7 -83.8,576.7 -128.4,780.3 h 6 c 44.6,-203.6 111.2,-495.6 128.4,-780.3 21.5,-354.4 -33.6,-697.5 -303.1,-844.3" />
        </g>
        <g
           transform="matrix(0.20825866,0,0,-0.20825866,0,2666.6742)"
           id="g242">
          <path
             id="path244"
             style="fill:#cfd6e2;fill-opacity:1;fill-rule:nonzero;stroke:none"
             d="m 16300,12023 c -18.3,-255.5 -99.7,-478.7 -303.5,-589.6 -513.2,-279.5 -1234.5,-669.2 -1511.5,169.4 -9.2,-1137.5 -1195.9,-2303.86 -1618.9,-896.4 37,-354.8 -12.8,-759.09 -444.3,-911.78 -820.6,-303.14 -1294.9,-451.42 -1427.5,387.28 -6.5,-189.77 -49.6,-516.33 -165.1,-588.95 -325.8,-234.58 -1471.21,-389.58 -1766.17,-135.09 -62.36,40.7 -98.21,292.28 -105.77,438.94 -7.49,-146.71 -43.72,-397.93 -105.82,-438.94 -294.89,-254.49 -1440.39,-99.49 -1766.14,135.09 -115.63,72.52 -158.59,399.04 -165.12,588.65 -132.72,-838.22 -606.9,-690.18 -1427.45,-386.96 -431.91,153.04 -481.16,557.16 -444.25,911.86 -422.81,-1407.56 -1609.89,-241.3 -1619.01,896.3 -277.13,-838.6 -998.28,-448.9 -1511.42,-169.4 -192.36,104.7 -275.63,309.3 -299.8,546.8 -4.3,289.6 83.05,612.6 124.89,824.4 h 1818.59 c 0.35,-5.6 -13.97,-565.7 -11.91,-560.7 2.29,5.5 4.64,11 7.04,16.4 155.01,349.9 584.77,527.6 984.46,419.6 372.88,-100.7 681.21,-337.7 734.48,-853.2 -5.79,-63.3 -25.84,-349.3 -37.59,-427.1 466.53,1524.6 1780.82,916.4 1729.29,-433.2 726.46,1865.6 2059.87,693.1 1995.27,-332.1 -33.42,520 489.39,1267.1 1014.06,1275.9 430.57,-16.7 880.47,-478.8 971.67,-876.3 78.1,1009.1 1142.4,2098.5 1722.5,407.3 -14,108.9 16.6,361.7 24.4,453.6 147.2,915.3 1287.7,1159 1675.3,334.1 -0.4,39.6 -18.3,570.1 -18,575.7 h 1818.7 c 44.7,-203.9 111.4,-496.4 128.6,-781.6" />
        </g>
      </g>
    </g>
  </g>
</svg>
